<svg width="16px" height="16px" viewBox="0 0 16 16" version="1.1" xmlns="http://www.w3.org/2000/svg" xmlns:xlink="http://www.w3.org/1999/xlink">
    <defs>
        <polygon id="path-1" points="3.84386511e-16 0 16 0 16 16 3.84386511e-16 16"></polygon>
    </defs>
    <g id="Welcome" stroke="none" stroke-width="1" fill="none" fill-rule="evenodd">
        <g id="HOMEPAGE_1440" transform="translate(-440.000000, -2487.000000)">
            <g id="Group-4" transform="translate(39.000000, 2261.000000)">
                <g id="nex" transform="translate(401.000000, 226.000000)">
                    <g id="download-copy" transform="translate(8.000000, 8.000000) rotate(-90.000000) translate(-8.000000, -8.000000) ">
                        <mask id="mask-2" fill="white">
                            <use xlink:href="#path-1"></use>
                        </mask>
                        <g id="Clip-2"></g>
                        <path d="M8.0016,16 C7.85888,16 7.74368,15.8921279 7.74368,15.7560621 L7.74368,0.243937943 C7.74368,0.109710783 7.85888,0 8.0016,0 C8.14112,0 8.25632,0.109710783 8.25632,0.243937943 L8.25632,15.7560621 C8.25632,15.8921279 8.14112,16 8.0016,16 Z" id="Fill-1" fill="#33434B" mask="url(#mask-2)"></path>
                        <path d="M7.99856155,16 C7.91724105,16 7.83975642,15.9711858 7.78298551,15.9165127 L0.0897594189,8.50535648 C-0.0299198063,8.38936092 -0.0299198063,8.20243812 0.0897594189,8.08644256 C0.209438644,7.97118581 0.404300972,7.97118581 0.524747372,8.08644256 L7.99856155,15.2870336 L15.4754444,8.08644256 C15.5951236,7.97118581 15.789986,7.97118581 15.9096652,8.08644256 C16.0301116,8.20243812 16.0301116,8.38936092 15.9096652,8.50535648 L8.21720629,15.9135574 C8.15736667,15.9711858 8.07911487,16 7.99856155,16 Z" id="Fill-3" fill="#33434B" mask="url(#mask-2)"></path>
                    </g>
                </g>
            </g>
        </g>
    </g>
</svg>