
<svg width="175px" height="21px" viewBox="0 0 175 21" version="1.1" xmlns="http://www.w3.org/2000/svg" xmlns:xlink="http://www.w3.org/1999/xlink">
    <defs>
        <polygon id="path-1" points="0 0 175 0 175 21 0 21"></polygon>
    </defs>
    <g id="Welcome" stroke="none" stroke-width="1" fill="none" fill-rule="evenodd">
        <g id="DISCLAIMER_1440" transform="translate(-43.000000, -30.000000)">
            <g id="Group-3-Copy" transform="translate(43.000000, 30.000000)">
                <mask id="mask-2" fill="white">
                    <use xlink:href="#path-1"></use>
                </mask>
                <g id="Clip-2"></g>
                <path d="M13.078158,5.81813031 C13.078158,2.56045326 10.950577,0.523512748 7.58876395,0.523512748 L0,0.523512748 L0,20.5669122 L8.19294993,20.5669122 C11.928559,20.5669122 14.140773,17.8613031 14.140773,14.6916714 C14.140773,12.7713314 12.847768,10.4155241 10.520359,9.89201133 C12.445761,9.13529745 13.078158,7.38866856 13.078158,5.81813031 Z M3.07500101,8.75694051 L3.07500101,3.34572238 L7.27139,3.34572238 C8.90997998,3.34572238 9.91617297,4.30470255 9.91617297,5.93473088 C9.91617297,7.44815864 9.08394793,8.75694051 7.47356896,8.75694051 L3.07500101,8.75694051 Z M7.96255995,11.4030595 C9.85975094,11.4030595 10.950577,13.1782436 10.950577,14.6631161 C10.950577,16.2050992 9.88796196,17.7470822 8.04954392,17.7470822 L3.07500101,17.7470822 L3.07500101,11.4030595 L7.96255995,11.4030595 Z M27.7079219,3.37427762 C29.8355029,3.37427762 30.695939,5.20657224 30.695939,6.89371105 C30.695939,8.6117847 29.804941,10.3845892 27.5927269,10.3845892 L23.165948,10.3845892 L23.165948,3.37427762 L27.7079219,3.37427762 Z M28.7423259,13.0901983 C32.3933019,12.6832861 33.8579239,9.83252125 33.8579239,6.89371105 C33.8579239,3.69552408 32.0759279,0.523512748 27.8231169,0.523512748 L20.0909469,0.523512748 L20.0909469,20.5669122 L23.165948,20.5669122 L23.165948,13.2067989 L25.2935289,13.2067989 L30.2375099,20.5669122 L33.9449079,20.5669122 L28.7423259,13.0901983 Z M52.5970929,20.5669122 L55.8154999,20.5669122 L48.3442819,0.523512748 L45.0388909,0.523512748 L37.5653219,20.5669122 L40.8142909,20.5669122 L42.7114819,15.5649858 L50.6999019,15.5649858 L52.5970929,20.5669122 Z M46.7056919,4.39274788 L49.6654979,12.7998867 L43.7458859,12.7998867 L46.7056919,4.39274788 Z M61.1614879,20.5669122 L64.2082779,20.5669122 L64.2082779,0.523512748 L61.1614879,0.523512748 L61.1614879,20.5669122 Z M86.6548449,0.523512748 L83.6080549,0.523512748 L83.6080549,14.7487819 L75.1870659,0.523512748 L72.2554709,0.523512748 L72.2554709,20.5669122 L75.3022609,20.5669122 L75.3022609,6.22504249 L83.8102339,20.5669122 L86.6548449,20.5669122 L86.6548449,0.523512748 Z M91.7727938,3.40283286 L97.6054219,3.40283286 L97.6054219,20.5669122 L100.710985,20.5669122 L100.710985,3.40283286 L106.545964,3.40283286 L106.545964,0.523512748 L91.7727938,0.523512748 L91.7727938,3.40283286 Z M112.098833,10.5154674 C112.098833,6.41541076 115.209097,3.08872521 119.198606,3.08872521 C123.218676,3.08872521 126.32894,6.41541076 126.32894,10.5154674 C126.32894,14.6155241 123.218676,17.9112748 119.198606,17.9112748 C115.209097,17.9112748 112.098833,14.6155241 112.098833,10.5154674 Z M108.986217,10.5154674 C108.986217,16.3074221 113.44826,21 119.198606,21 C124.979513,21 129.469767,16.3074221 129.469767,10.5154674 C129.469767,4.69495751 124.979513,0 119.198606,0 C113.44826,0 108.986217,4.69495751 108.986217,10.5154674 Z M148.559223,15.4483853 L145.166848,3.25767705 L142.780666,3.25767705 L139.390642,15.4483853 L134.677051,0.523512748 L131.399871,0.523512748 L138.097637,20.5669122 L140.655436,20.5669122 L143.960827,8.55229462 L147.294429,20.5669122 L149.852228,20.5669122 L156.547643,0.523512748 L153.272814,0.523512748 L148.559223,15.4483853 Z M175,0.523512748 L171.95321,0.523512748 L171.95321,14.7487819 L163.532221,0.523512748 L160.600626,0.523512748 L160.600626,20.5669122 L163.647416,20.5669122 L163.647416,6.22504249 L172.155389,20.5669122 L175,20.5669122 L175,0.523512748 Z" id="Fill-1" fill="#33434B" mask="url(#mask-2)"></path>
            </g>
        </g>
    </g>
</svg>