<svg width="450px" height="53px" viewBox="0 0 450 53" version="1.1" xmlns="http://www.w3.org/2000/svg" xmlns:xlink="http://www.w3.org/1999/xlink">
    <defs>
        <polygon id="path-1" points="0 0 450 0 450 53 0 53"></polygon>
    </defs>
    <g id="Welcome" stroke="none" stroke-width="1" fill="none" fill-rule="evenodd">
        <g id="HOMEPAGE_1440" transform="translate(-40.000000, -39.000000)">
            <g id="Group-3" transform="translate(40.000000, 39.000000)">
                <mask id="mask-2" fill="white">
                    <use xlink:href="#path-1"></use>
                </mask>
                <g id="Clip-2"></g>
                <path d="M33.629549,14.6838527 C33.629549,6.46209632 28.1586265,1.32124646 19.5139645,1.32124646 L0,1.32124646 L0,51.9069688 L21.0675855,51.9069688 C30.6734373,51.9069688 36.3619877,45.0785269 36.3619877,37.0789802 C36.3619877,32.2324079 33.0371176,26.2867989 27.0523516,24.9655524 C32.0033853,23.0557507 33.629549,18.6475921 33.629549,14.6838527 Z M7.90714545,22.1008499 L7.90714545,8.44396601 L18.69786,8.44396601 C22.9113771,8.44396601 25.4987305,10.8642493 25.4987305,14.9781303 C25.4987305,18.7977337 23.3587232,22.1008499 19.2177488,22.1008499 L7.90714545,22.1008499 Z M20.4751542,28.7791501 C25.3536453,28.7791501 28.1586265,33.2593768 28.1586265,37.0069122 C28.1586265,40.8985836 25.4261879,44.790255 20.6988272,44.790255 L7.90714545,44.790255 L7.90714545,28.7791501 L20.4751542,28.7791501 Z M71.2489421,8.51603399 C76.7198646,8.51603399 78.9324145,13.1403966 78.9324145,17.3984136 C78.9324145,21.7345042 76.6412768,26.2087252 70.9527264,26.2087252 L59.5695805,26.2087252 L59.5695805,8.51603399 L71.2489421,8.51603399 Z M73.9088381,33.0371671 C83.297062,32.0101983 87.063233,24.8154108 87.063233,17.3984136 C87.063233,9.32679887 82.4809576,1.32124646 71.5451578,1.32124646 L51.662435,1.32124646 L51.662435,51.9069688 L59.5695805,51.9069688 L59.5695805,33.3314448 L65.040503,33.3314448 L77.7535969,51.9069688 L87.2869061,51.9069688 L73.9088381,33.0371671 Z M135.249668,51.9069688 L143.525571,51.9069688 L124.313868,1.32124646 L115.814291,1.32124646 L96.5965421,51.9069688 L104.951034,51.9069688 L109.829525,39.2830595 L130.371176,39.2830595 L135.249668,51.9069688 Z M120.100351,11.0864589 L127.71128,32.3044759 L112.489421,32.3044759 L120.100351,11.0864589 Z M157.272398,51.9069688 L165.107,51.9069688 L165.107,1.32124646 L157.272398,1.32124646 L157.272398,51.9069688 Z M222.826744,1.32124646 L214.992141,1.32124646 L214.992141,37.2231161 L193.33817,1.32124646 L185.799782,1.32124646 L185.799782,51.9069688 L193.634385,51.9069688 L193.634385,15.7108215 L215.51203,51.9069688 L222.826744,51.9069688 L222.826744,1.32124646 Z M235.987184,8.58810198 L250.985371,8.58810198 L250.985371,51.9069688 L258.971104,51.9069688 L258.971104,8.58810198 L273.975336,8.58810198 L273.975336,1.32124646 L235.987184,1.32124646 L235.987184,8.58810198 Z M288.254141,26.5390368 C288.254141,16.1912748 296.251965,7.79535411 306.5107,7.79535411 C316.848023,7.79535411 324.845847,16.1912748 324.845847,26.5390368 C324.845847,36.8867989 316.848023,45.2046459 306.5107,45.2046459 C296.251965,45.2046459 288.254141,36.8867989 288.254141,26.5390368 Z M280.250272,26.5390368 C280.250272,41.1568272 291.724096,53 306.5107,53 C321.375892,53 332.922258,41.1568272 332.922258,26.5390368 C332.922258,11.8491785 321.375892,0 306.5107,0 C291.724096,0 280.250272,11.8491785 280.250272,26.5390368 Z M382.009431,38.9887819 L373.286181,8.22175637 L367.150284,8.22175637 L358.433079,38.9887819 L346.312417,1.32124646 L337.885383,1.32124646 L355.108209,51.9069688 L361.685407,51.9069688 L370.184984,21.5843626 L378.757103,51.9069688 L385.334301,51.9069688 L402.551082,1.32124646 L394.130093,1.32124646 L382.009431,38.9887819 Z M450,1.32124646 L442.165397,1.32124646 L442.165397,37.2231161 L420.511425,1.32124646 L412.973038,1.32124646 L412.973038,51.9069688 L420.807641,51.9069688 L420.807641,15.7108215 L442.685286,51.9069688 L450,51.9069688 L450,1.32124646 Z" id="Fill-1" fill="#B4DECC" mask="url(#mask-2)"></path>
            </g>
        </g>
    </g>
</svg>