<?xml version="1.0" standalone="no"?>
<!DOCTYPE svg PUBLIC "-//W3C//DTD SVG 1.1//EN" "http://www.w3.org/Graphics/SVG/1.1/DTD/svg11.dtd" >
<svg xmlns="http://www.w3.org/2000/svg" xmlns:xlink="http://www.w3.org/1999/xlink" version="1.1">
<metadata>
Created by FontForge 20181003 at Thu Feb 11 20:43:19 2010
 By Mark Brand
Copyright 2010 URW++ Design &#38; Development Hamburg
</metadata>
<defs>
<font id="NimbusSanNov-RegIta" horiz-adv-x="500" >
  <font-face 
    font-family="NimbusSanNov"
    font-weight="400"
    font-style="italic"
    font-stretch="normal"
    units-per-em="1000"
    panose-1="0 0 5 0 0 0 0 0 0 0"
    ascent="667"
    descent="-333"
    x-height="481"
    cap-height="667"
    bbox="-124 -250 1045 895"
    underline-thickness="43"
    underline-position="-138"
    slope="-12"
    unicode-range="U+0020-FB04"
  />
<missing-glyph horiz-adv-x="250" 
 />
    <glyph glyph-name="ff" unicode="ff" horiz-adv-x="513" 
d="M124 432h-82l11 49h81l8 36q16 79 34 107q33 50 115 50q26 0 50 -7l-9 -49q-20 8 -40 8q-49 0 -69 -34q-13 -23 -24 -75l-8 -36h195l8 36q16 79 34 107q33 50 115 50q26 0 50 -7l-9 -49q-20 8 -40 8q-49 0 -69 -34q-13 -23 -24 -75l-8 -36h98l-10 -49h-98l-92 -432h-57
l92 432h-195l-92 -432h-57z" />
    <glyph glyph-name="fi" unicode="fi" horiz-adv-x="464" 
d="M124 432h-82l11 49h81l8 36q16 79 34 107q33 50 115 50q26 0 50 -7l-9 -49q-20 8 -40 8q-49 0 -69 -34q-13 -23 -24 -75l-8 -36h98l-10 -49h-98l-92 -432h-57zM443 481l-102 -481h-57l103 481h56zM483 667l-21 -97h-57l21 97h57z" />
    <glyph glyph-name="fl" unicode="fl" horiz-adv-x="464" 
d="M124 432h-82l11 49h81l8 36q16 79 34 107q33 50 115 50q26 0 50 -7l-9 -49q-20 8 -40 8q-49 0 -69 -34q-13 -23 -24 -75l-8 -36h98l-10 -49h-98l-92 -432h-57zM483 667l-142 -667h-57l142 667h57z" />
    <glyph glyph-name="ffi" unicode="ffi" horiz-adv-x="716" 
d="M124 432h-82l11 49h81l8 36q16 79 34 107q33 50 115 50q26 0 50 -7l-9 -49q-20 8 -40 8q-49 0 -69 -34q-13 -23 -24 -75l-8 -36h195l8 36q16 79 34 107q33 50 115 50q26 0 50 -7l-9 -49q-20 8 -40 8q-49 0 -69 -34q-13 -23 -24 -75l-8 -36h98l-10 -49h-98l-92 -432h-57
l92 432h-195l-92 -432h-57zM695 481l-102 -481h-57l103 481h56zM735 667l-21 -97h-57l21 97h57z" />
    <glyph glyph-name="ffl" unicode="ffl" horiz-adv-x="716" 
d="M124 432h-82l11 49h81l8 36q16 79 34 107q33 50 115 50q26 0 50 -7l-9 -49q-20 8 -40 8q-49 0 -69 -34q-13 -23 -24 -75l-8 -36h195l8 36q16 79 34 107q33 50 115 50q26 0 50 -7l-9 -49q-20 8 -40 8q-49 0 -69 -34q-13 -23 -24 -75l-8 -36h98l-10 -49h-98l-92 -432h-57
l92 432h-195l-92 -432h-57zM735 667l-142 -667h-57l142 667h57z" />
    <glyph glyph-name=".notdef" horiz-adv-x="250" 
 />
    <glyph glyph-name=".null" horiz-adv-x="0" 
 />
    <glyph glyph-name="nonmarkingreturn" horiz-adv-x="333" 
 />
    <glyph glyph-name="space" unicode=" " horiz-adv-x="250" 
 />
    <glyph glyph-name="exclam" unicode="!" horiz-adv-x="263" 
d="M147 93l-20 -93h-70l20 93h70zM265 667l-44 -206l-77 -295h-34l48 295l44 206h63z" />
    <glyph glyph-name="quotedbl" unicode="&#x22;" horiz-adv-x="284" 
d="M135 400h-46l48 267h64zM265 400h-46l48 267h64z" />
    <glyph glyph-name="numbersign" unicode="#" horiz-adv-x="547" 
d="M364 231l-59 -198h-44l59 198h-116l-59 -198h-44l59 198h-123l13 42h123l33 110h-123l13 43h123l55 181h43l-55 -181h117l55 181h43l-55 -181h127l-13 -43h-126l-34 -110h127l-13 -42h-126zM366 383h-116l-34 -110h117z" />
    <glyph glyph-name="dollar" unicode="$" horiz-adv-x="547" 
d="M399 731l-15 -71q63 -14 91 -34q60 -45 60 -127q0 -13 -1 -20h-55v18q0 95 -105 116l-54 -255q85 -25 124.5 -66.5t39.5 -106.5q0 -87 -62.5 -142t-162.5 -55q-10 0 -18 1l-17 -84h-37l18 84q-165 30 -165 185q0 14 1 25h56q-1 -11 -1 -25q0 -70 46 -107q23 -19 73 -31
l59 280q-84 27 -119 63t-35 95q0 83 58.5 136t150.5 53q11 0 19 -1l15 69h36zM286 369l52 247q-6 1 -12 1q-64 0 -106.5 -39t-42.5 -97q0 -43 24.5 -68t84.5 -44zM309 306l-58 -272l14 -1q69 0 115.5 42t46.5 104q0 92 -118 127z" />
    <glyph glyph-name="percent" unicode="%" horiz-adv-x="703" 
d="M661 682l-533 -712h-50l533 712h50zM259 663q56 0 86.5 -33t30.5 -94q0 -80 -46 -135t-114 -55q-56 0 -88 33t-32 90q0 44 17 88t45 69q39 37 101 37zM254 623q-47 0 -78.5 -44.5t-31.5 -111.5q0 -39 19.5 -60.5t54.5 -21.5q42 0 68 33q40 50 40 125q0 80 -72 80z
M527 306q56 0 87.5 -32.5t31.5 -89.5q0 -43 -15.5 -85.5t-41.5 -68.5q-41 -41 -106 -41q-55 0 -86 32.5t-31 90.5q0 83 46 138.5t115 55.5zM523 266q-39 0 -66 -29q-18 -20 -30.5 -57t-12.5 -71q0 -39 19.5 -60.5t54.5 -21.5q46 0 77 44t31 108q0 41 -19 64t-54 23z" />
    <glyph glyph-name="ampersand" unicode="&#x26;" horiz-adv-x="585" 
d="M465 294h57q-14 -90 -81 -171l81 -123h-67l-52 82q-82 -95 -193 -95q-81 0 -131 45.5t-50 119.5q0 92 79 152q28 20 112 65q-32 54 -44.5 86t-12.5 65q0 64 43 104.5t111 40.5q63 0 103 -34.5t40 -89.5q0 -53 -37 -95.5t-128 -91.5l116 -185q43 61 54 125zM269 394
q76 38 107.5 70t31.5 72q0 36 -25.5 58.5t-65.5 22.5q-44 0 -72 -27t-28 -69q0 -25 10.5 -50t41.5 -77zM375 125l-127 204q-69 -37 -90 -51q-73 -49 -73 -121q0 -52 36 -86.5t91 -34.5q44 0 89 24.5t74 64.5z" />
    <glyph glyph-name="quotesingle" unicode="'" horiz-adv-x="154" 
d="M135 400h-46l48 267h64z" />
    <glyph glyph-name="parenleft" unicode="(" horiz-adv-x="279" 
d="M263 667h49q-95 -112 -152 -238q-68 -153 -68 -327q0 -146 46 -281h-40q-27 66 -44.5 153.5t-17.5 161.5q0 281 227 531z" />
    <glyph glyph-name="parenright" unicode=")" horiz-adv-x="279" 
d="M20 -179h-49q93 108 152 238q68 153 68 327q0 146 -46 281h40q27 -66 44.5 -153.5t17.5 -161.5q0 -280 -227 -531z" />
    <glyph glyph-name="asterisk" unicode="*" horiz-adv-x="547" 
d="M385 664l-24 -113l109 24l5 -37l-108 -23l55 -95l-34 -18l-56 99l-81 -87l-26 27l78 83l-94 51l19 33l95 -52l24 111z" />
    <glyph glyph-name="plus" unicode="+" horiz-adv-x="547" 
d="M68 345h202v202h43v-202h202v-43h-202v-202h-43v202h-202v43z" />
    <glyph glyph-name="comma" unicode="," horiz-adv-x="223" 
d="M121 97l-21 -97q-13 -60 -39.5 -90.5t-73.5 -38.5l8 37q49 12 64 92h-36l21 97h77z" />
    <glyph glyph-name="hyphen" unicode="-" horiz-adv-x="222" 
d="M230 273l-11 -53h-222l11 53h222z" />
    <glyph glyph-name="period" unicode="." horiz-adv-x="223" 
d="M121 100l-21 -100h-77l21 100h77z" />
    <glyph glyph-name="slash" unicode="/" horiz-adv-x="356" 
d="M412 667l-476 -846h-50l475 846h51z" />
    <glyph glyph-name="zero" unicode="0" horiz-adv-x="547" 
d="M342 661q91 0 139 -58t48 -168q0 -80 -22 -166t-59 -149q-78 -134 -208 -134q-89 0 -137 60t-48 171q0 80 24.5 170t63.5 153q74 121 199 121zM341 610q-103 0 -165 -130q-26 -56 -44 -134.5t-18 -140.5q0 -82 34 -125.5t97 -43.5q104 0 165 135q26 59 42.5 132t16.5 133
q0 174 -128 174z" />
    <glyph glyph-name="one" unicode="1" horiz-adv-x="547" 
d="M438 653l-139 -653h-61l115 544q-30 -19 -85 -35t-96 -18l10 46q68 7 123 38t85 78h48z" />
    <glyph glyph-name="two" unicode="2" horiz-adv-x="547" 
d="M464 52l-11 -52h-424q10 90 67 151.5t205 140.5q95 53 132 96t37 100q0 55 -36.5 89t-96.5 34q-70 0 -114.5 -47t-50.5 -128h-56q6 103 67 164t157 61q86 0 137.5 -46.5t51.5 -125.5q0 -102 -105 -180q-29 -22 -148 -89q-159 -87 -179 -169q29 1 59 1h308z" />
    <glyph glyph-name="three" unicode="3" horiz-adv-x="547" 
d="M46 208h57q-3 -20 -3 -33q0 -66 39.5 -103t109.5 -37q75 0 124 47.5t49 119.5q0 32 -16.5 59t-43.5 40q-33 15 -94 15h-21l11 49q16 -1 33 -1q84 0 126 32q48 35 48 100q0 52 -35.5 83t-94.5 31q-65 0 -108.5 -40.5t-54.5 -113.5h-56q14 97 72.5 150.5t149.5 53.5
q83 0 134.5 -44.5t51.5 -115.5q0 -62 -36.5 -105t-100.5 -55q47 -14 72.5 -50t25.5 -88q0 -54 -27.5 -103t-73.5 -77q-58 -36 -138 -36q-93 0 -148 50.5t-55 135.5q0 15 3 36z" />
    <glyph glyph-name="four" unicode="4" horiz-adv-x="547" 
d="M500 211l-10 -49h-99l-35 -162h-57l34 162h-302l12 56l399 438h54l-95 -445h99zM344 211l52 248q9 39 15 66l4 18q1 2 4 23q-20 -27 -82 -95l-207 -226q-12 -14 -33 -35h14l32 1h201z" />
    <glyph glyph-name="five" unicode="5" horiz-adv-x="547" 
d="M535 647l-12 -52h-285l-73 -213q55 52 139 52q85 0 137.5 -53t52.5 -139q0 -92 -56 -167q-67 -88 -189 -88q-91 0 -144 48.5t-53 131.5v19h58l-1 -22q0 -58 38.5 -92.5t103.5 -34.5q79 0 129 55.5t50 141.5q0 69 -38.5 108.5t-104.5 39.5q-92 0 -141 -72l-54 2l108 335
h335z" />
    <glyph glyph-name="six" unicode="6" horiz-adv-x="547" 
d="M540 488h-59q-1 52 -20 78q-31 45 -100 45q-100 0 -158 -100q-31 -50 -66 -178q28 44 72.5 68.5t95.5 24.5q86 0 139 -54t53 -141q0 -106 -65.5 -175.5t-165.5 -69.5q-97 0 -150 59t-53 168q0 68 20.5 152t51.5 144q78 152 227 152q85 0 131.5 -45t46.5 -128zM294 376
q-74 0 -122.5 -53t-48.5 -133q0 -70 40 -112t106 -42q73 0 120.5 55t47.5 139q0 67 -39 106.5t-104 39.5z" />
    <glyph glyph-name="seven" unicode="7" horiz-adv-x="547" 
d="M565 647l-11 -51q-252 -258 -361 -596h-65q44 148 142.5 308.5t221.5 283.5h-64h-292l12 55h417z" />
    <glyph glyph-name="eight" unicode="8" horiz-adv-x="547" 
d="M379 345q51 -17 79.5 -57t28.5 -95q0 -51 -27.5 -99t-72.5 -75q-51 -33 -134 -33q-97 0 -153 50.5t-56 136.5q0 74 47 123.5t127 59.5q-91 39 -91 133q0 76 56.5 123.5t145.5 47.5q85 0 136.5 -43.5t51.5 -116.5q0 -59 -39 -102.5t-99 -52.5zM330 612q-67 0 -106.5 -35.5
t-39.5 -94.5q0 -51 36 -81t98 -30q63 0 101.5 35t38.5 92q0 53 -34.5 83.5t-93.5 30.5zM275 324q-77 0 -123.5 -41.5t-46.5 -111.5q0 -63 41 -99.5t111 -36.5q75 0 122 44t47 114q0 61 -40 96t-111 35z" />
    <glyph glyph-name="nine" unicode="9" horiz-adv-x="547" 
d="M50 158h56q0 -58 33 -89.5t94 -31.5q99 0 156 99q34 61 60 183q-61 -99 -171 -99q-85 0 -137.5 54t-52.5 141q0 106 66.5 176t166.5 70q111 0 163 -80q35 -55 35 -145q0 -71 -18.5 -154.5t-46.5 -141.5q-39 -81 -92.5 -118t-130.5 -37q-87 0 -134 45t-47 128zM320 610
q-85 0 -132 -67q-41 -57 -41 -129q0 -65 39 -104.5t104 -39.5q71 0 120 55t49 135q0 70 -37 110t-102 40z" />
    <glyph glyph-name="colon" unicode=":" horiz-adv-x="240" 
d="M138 100l-21 -100h-77l21 100h77zM217 470l-22 -100h-76l21 100h77z" />
    <glyph glyph-name="semicolon" unicode=";" horiz-adv-x="240" 
d="M138 97l-21 -97q-13 -60 -39.5 -90.5t-73.5 -38.5l8 37q49 12 64 92h-36l21 97h77zM217 470l-21 -100h-77l21 100h77z" />
    <glyph glyph-name="less" unicode="&#x3c;" 
d="M487 562v-63l-366 -165l366 -164v-63l-433 200v55z" />
    <glyph glyph-name="equal" unicode="=" horiz-adv-x="547" 
d="M68 416h447v-43h-447v43zM68 274h447v-43h-447v43z" />
    <glyph glyph-name="greater" unicode="&#x3e;" 
d="M55 107v63l365 165l-365 164v63l433 -200v-55z" />
    <glyph glyph-name="question" unicode="?" horiz-adv-x="490" 
d="M252 93l-20 -93h-69l19 93h70zM261 170h-56q13 74 36.5 110.5t84.5 76.5q116 80 116 160q0 50 -34 80t-89 30q-140 0 -164 -167h-56q12 106 69.5 162t152.5 56q83 0 133 -43.5t50 -114.5q0 -66 -44 -118q-17 -20 -33.5 -33.5t-75.5 -55.5q-44 -31 -60.5 -57.5
t-29.5 -85.5z" />
    <glyph glyph-name="at" unicode="@" horiz-adv-x="753" 
d="M669 168h36q-28 -62 -82 -104q-98 -79 -221 -79q-144 0 -244 100.5t-100 245.5q0 147 101.5 249t248.5 102q131 0 221 -83t90 -204q0 -119 -90 -194q-64 -54 -128 -54q-62 0 -70 57q-55 -56 -114 -56q-48 0 -77.5 35t-29.5 91q0 92 61 168.5t135 76.5q67 0 95 -66l18 50
h46l-84 -247q-9 -27 -9 -44q0 -36 41 -36q51 0 105 52q68 68 68 165q0 109 -80 183.5t-197 74.5q-133 0 -224 -92.5t-91 -227.5q0 -132 89.5 -223t219.5 -91q82 0 155 41.5t111 109.5zM445 293l23 66q13 36 13 56q0 31 -19 52.5t-46 21.5q-57 0 -106.5 -72.5t-49.5 -155.5
q0 -39 17.5 -61.5t47.5 -22.5q41 0 75 34q22 22 45 82z" />
    <glyph glyph-name="A" unicode="A" horiz-adv-x="616" 
d="M437 667l121 -667h-66l-35 210h-301l-125 -210h-72l407 667h71zM449 263l-39 219q-13 82 -19 130q-45 -85 -84 -149l-121 -200h263z" />
    <glyph glyph-name="B" unicode="B" horiz-adv-x="636" 
d="M172 667h212q116 0 159 -22q73 -38 73 -130q0 -67 -38.5 -112t-105.5 -56q54 -12 83.5 -48t29.5 -90q0 -57 -29.5 -106.5t-79.5 -75.5q-30 -16 -68 -21.5t-112 -5.5h-266zM222 614l-51 -244h184q95 0 136 27q59 40 59 114q0 63 -53 90q-30 13 -109 13h-166zM160 320
l-57 -267h183q122 0 165 27q32 20 50.5 54t18.5 73q0 72 -63 100q-30 13 -115 13h-182z" />
    <glyph glyph-name="C" unicode="C" horiz-adv-x="675" 
d="M574 231h64q-28 -115 -109.5 -180.5t-197.5 -65.5q-125 0 -196.5 76t-71.5 208q0 91 33.5 177t90.5 143q96 94 239 94q112 0 180 -61.5t67 -162.5h-62q-4 82 -52.5 126t-134.5 44q-145 0 -227 -127q-70 -107 -70 -230q0 -109 55 -172t149 -63q89 0 153 51t90 143z" />
    <glyph glyph-name="D" unicode="D" horiz-adv-x="661" 
d="M172 667h170q94 0 140.5 -12t83.5 -46q75 -69 75 -210q0 -85 -33 -167t-90 -138q-65 -64 -150 -83q-48 -11 -143 -11h-195zM222 614l-119 -561h136q113 0 166 26q77 37 126 127.5t49 196.5q0 134 -81 183q-46 28 -141 28h-136z" />
    <glyph glyph-name="E" unicode="E" horiz-adv-x="576" 
d="M620 667l-12 -53h-386l-51 -243h361l-12 -53h-360l-57 -265h396l-12 -53h-457l142 667h448z" />
    <glyph glyph-name="F" unicode="F" horiz-adv-x="527" 
d="M600 667l-12 -53h-366l-51 -242h327l-12 -53h-326l-68 -319h-62l142 667h428z" />
    <glyph glyph-name="G" unicode="G" horiz-adv-x="717" 
d="M675 340l-72 -340h-42l6 63l1 4q0 4 1 10t1 11l4 25q-90 -128 -243 -128q-126 0 -197.5 76t-71.5 209q0 79 25.5 155t69.5 131q103 126 277 126q115 0 181.5 -58t71.5 -161h-63q-6 81 -55 124t-136 43q-130 0 -217 -103.5t-87 -258.5q0 -108 56.5 -169t156.5 -61
q137 0 212 112q34 51 53 137h-230l11 53h287z" />
    <glyph glyph-name="H" unicode="H" horiz-adv-x="672" 
d="M683 667l-142 -667h-62l68 322h-387l-68 -322h-62l142 667h62l-62 -292h387l62 292h62z" />
    <glyph glyph-name="I" unicode="I" horiz-adv-x="223" 
d="M234 667l-142 -667h-62l142 667h62z" />
    <glyph glyph-name="J" unicode="J" horiz-adv-x="463" 
d="M485 667l-96 -453q-24 -109 -50 -151q-52 -78 -165 -78q-83 0 -128.5 40t-45.5 113q0 30 9 76h61q-9 -50 -9 -75q0 -49 29 -75t84 -26q67 0 107 46q26 32 44 124l98 459h62z" />
    <glyph glyph-name="K" unicode="K" horiz-adv-x="619" 
d="M677 667l-340 -279l237 -388h-72l-212 351l-149 -120l-49 -231h-62l142 667h62l-76 -357q26 24 92 78l340 279h87z" />
    <glyph glyph-name="L" unicode="L" horiz-adv-x="527" 
d="M234 667l-131 -614h368l-12 -53h-429l142 667h62z" />
    <glyph glyph-name="M" unicode="M" horiz-adv-x="814" 
d="M825 667l-142 -667h-62l81 378q22 105 58 233q-26 -47 -89 -153l-283 -458h-58l-91 466q-8 39 -24 145q-20 -123 -46 -247l-77 -364h-62l142 667h87l88 -459q17 -99 23 -147q21 42 70 122l295 484h90z" />
    <glyph glyph-name="N" unicode="N" horiz-adv-x="685" 
d="M696 667l-142 -667h-71l-217 472q-36 80 -52 126q-8 -57 -32 -175l-90 -423h-62l142 667h71l212 -466q48 -111 56 -134q24 135 40 209l83 391h62z" />
    <glyph glyph-name="O" unicode="O" horiz-adv-x="722" 
d="M426 683q126 0 200.5 -76t74.5 -205q0 -85 -27.5 -164t-77.5 -138q-98 -116 -256 -116q-128 0 -201.5 77t-73.5 212q0 84 27.5 163t76.5 135q98 112 257 112zM423 630q-120 0 -199 -88q-44 -49 -69 -121t-25 -150q0 -108 58 -171.5t156 -63.5q113 0 194 87
q46 50 72 124.5t26 154.5q0 106 -57 167t-156 61z" />
    <glyph glyph-name="P" unicode="P" horiz-adv-x="595" 
d="M172 667h220q108 0 150 -26q73 -45 73 -143q0 -59 -28 -109t-75 -75q-52 -28 -175 -28h-184l-61 -286h-62zM222 614l-58 -275h172q66 0 98.5 6t55.5 22q29 19 46 53.5t17 73.5q0 72 -51 101q-33 19 -129 19h-151z" />
    <glyph glyph-name="Q" unicode="Q" horiz-adv-x="737" 
d="M640 -21l-38 -38l-93 89q-75 -45 -172 -45q-125 0 -199 77.5t-74 209.5q0 178 102.5 294t258.5 116q127 0 201 -76t74 -207q0 -100 -39 -191.5t-107 -147.5zM427 180l85 -81q56 47 90 128.5t34 168.5q0 107 -56.5 170t-153.5 63q-150 0 -233 -131q-64 -99 -64 -222
q0 -108 60 -173.5t158 -65.5q67 0 120 33l-77 71z" />
    <glyph glyph-name="R" unicode="R" horiz-adv-x="648" 
d="M170 667h232q103 0 145 -21q80 -41 80 -143q0 -75 -46.5 -126.5t-122.5 -58.5q83 -19 83 -122q0 -26 -5 -90q-2 -36 -2 -45q0 -35 10 -61h-65q-8 23 -8 55q0 16 4 57q5 60 5 84q0 58 -30 79t-114 21h-183l-63 -296h-62zM220 614l-56 -265h191q108 0 153 31q56 43 56 117
q0 71 -55 101q-29 16 -114 16h-175z" />
    <glyph glyph-name="S" unicode="S" horiz-adv-x="582" 
d="M574 474h-60q1 6 1 13q0 139 -174 139q-81 0 -128 -35t-47 -94q0 -52 41 -81q36 -25 137 -52q88 -25 124 -51q60 -44 60 -124q0 -91 -70 -146t-186 -55q-118 0 -183.5 56t-65.5 156v21h61v-15q0 -166 191 -166q85 0 138 40t53 105q0 48 -29 73.5t-110 48.5
q-87 25 -118.5 38.5t-55.5 36.5q-47 42 -47 113q0 84 64 134t171 50q114 0 174 -49t60 -142q0 -9 -1 -14z" />
    <glyph glyph-name="T" unicode="T" horiz-adv-x="554" 
d="M632 667l-11 -53h-229l-130 -614h-62l130 614h-235l11 53h526z" />
    <glyph glyph-name="U" unicode="U" horiz-adv-x="660" 
d="M681 667l-86 -408q-16 -72 -28 -106.5t-31 -62.5q-71 -103 -233 -103q-108 0 -172.5 52t-64.5 138q0 38 13 102l83 388h62l-85 -396q-12 -60 -12 -89q0 -67 46.5 -105t127.5 -38q132 0 187 86q25 37 46 138l86 404h61z" />
    <glyph glyph-name="V" unicode="V" horiz-adv-x="578" 
d="M661 667l-383 -667h-74l-104 667h65l67 -456q0 -2 1.5 -11.5t3 -22.5t3.5 -25q2 -18 9 -78l2 -17q54 102 76 140l266 470h68z" />
    <glyph glyph-name="W" unicode="W" horiz-adv-x="870" 
d="M948 667l-317 -667h-69l-36 449q-10 118 -11 159q-44 -101 -78 -171l-212 -437h-70l-50 667h63l29 -419q7 -114 7 -158q0 -13 -1 -24q16 40 79 174l207 427h74l33 -394q10 -121 13 -202q18 50 86 199l187 397h66z" />
    <glyph glyph-name="X" unicode="X" horiz-adv-x="562" 
d="M620 667l-288 -328l173 -339h-67l-84 165q-35 70 -45 91q-7 14 -19 42q-11 -15 -52 -61l-207 -237h-75l306 348l-164 319h69l88 -177q35 -71 48 -103q84 100 99 118l143 162h75z" />
    <glyph glyph-name="Y" unicode="Y" horiz-adv-x="558" 
d="M656 667l-332 -397l-58 -270h-62l59 276l-178 391h68l107 -242q22 -49 42 -98q34 46 67 85l211 255h76z" />
    <glyph glyph-name="Z" unicode="Z" horiz-adv-x="572" 
d="M608 667l-12 -53l-472 -501l-41 -41l-14 -14l-6 -5q7 -1 14 -1l77 1h355l-12 -53h-519l12 56l462 487q28 29 71 71q-11 1 -24 1q-7 0 -40 -1h-341l11 53h479z" />
    <glyph glyph-name="bracketleft" unicode="[" horiz-adv-x="279" 
d="M319 667l-10 -45h-96l-161 -756h97l-10 -45h-152l180 846h152z" />
    <glyph glyph-name="backslash" unicode="\" horiz-adv-x="365" 
d="M132 667h51l117 -846h-51z" />
    <glyph glyph-name="bracketright" unicode="]" horiz-adv-x="279" 
d="M-36 -179l10 45h96l161 756h-97l10 45h152l-180 -846h-152z" />
    <glyph glyph-name="asciicircum" unicode="^" 
d="M117 379h-61l179 289h72l179 -289h-61l-155 246z" />
    <glyph glyph-name="underscore" unicode="_" 
d="M21 -75h500v-43h-500v43z" />
    <glyph glyph-name="grave" unicode="`" 
d="M365 553h-47l-103 134h72z" />
    <glyph glyph-name="a" unicode="a" horiz-adv-x="498" 
d="M133 340h-56q33 154 202 154q80 0 123.5 -30.5t43.5 -85.5q0 -17 -13 -82l-33 -154q-13 -55 -13 -70q0 -31 24 -31q8 0 27 4l-8 -45q-27 -7 -43 -7q-26 0 -41 15t-15 42q0 9 4 25q-65 -88 -176 -88q-68 0 -108 35.5t-40 96.5q0 74 58 115q49 35 178 44q68 4 91.5 10
t34.5 20q17 25 17 71q0 67 -108 67q-64 0 -99.5 -25t-49.5 -81zM359 217l10 43q-13 -13 -40 -18.5t-93 -10.5q-76 -6 -107 -18q-28 -11 -44.5 -35t-16.5 -54q0 -41 29 -65t79 -24q86 0 140 70q26 33 43 112z" />
    <glyph glyph-name="b" unicode="b" horiz-adv-x="551" 
d="M222 667l-57 -271q66 98 173 98q82 0 130 -54.5t48 -146.5q0 -131 -78 -222q-71 -84 -172 -84q-84 0 -130 52q-34 38 -34 72l-24 -111h-54l142 667h56zM324 446q-97 0 -153 -95q-46 -77 -46 -169q0 -68 36.5 -108t97.5 -40q81 0 139.5 76t58.5 182q0 73 -35.5 113.5
t-97.5 40.5z" />
    <glyph glyph-name="c" unicode="c" horiz-adv-x="498" 
d="M391 156h60q-25 -82 -83 -126t-139 -44q-91 0 -140.5 53t-49.5 148q0 60 21 119.5t56 101.5q74 86 189 86q82 0 127.5 -42.5t46.5 -119.5h-58q0 54 -31.5 84t-87.5 30q-88 0 -146 -73.5t-58 -183.5q0 -74 35 -114.5t99 -40.5q55 0 97.5 32.5t61.5 89.5z" />
    <glyph glyph-name="d" unicode="d" horiz-adv-x="553" 
d="M571 667l-142 -667h-55l19 91q-64 -104 -181 -104q-83 0 -130 51t-47 140q0 56 18.5 113.5t50.5 100.5q75 102 193 102q64 0 105.5 -29.5t51.5 -81.5l60 284h57zM300 446q-88 0 -146.5 -76.5t-58.5 -190.5q0 -68 34.5 -106t96.5 -38q85 0 141 73q28 37 46.5 94.5
t18.5 110.5q0 61 -35.5 97t-96.5 36z" />
    <glyph glyph-name="e" unicode="e" horiz-adv-x="511" 
d="M392 154h60q-23 -80 -79.5 -123.5t-137.5 -43.5q-93 0 -145 53.5t-52 150.5q0 129 73.5 216.5t182.5 87.5q87 0 136 -52t49 -144q0 -29 -7 -71h-373q-4 -20 -4 -40q0 -71 37.5 -112.5t102.5 -41.5q56 0 97 31t60 89zM107 277h314q2 22 2 26q0 68 -35 106t-98 38
q-67 0 -115.5 -45t-67.5 -125z" />
    <glyph glyph-name="f" unicode="f" horiz-adv-x="261" 
d="M289 481l-10 -49h-98l-92 -432h-57l92 432h-82l11 49h81l8 36q16 79 34 107q33 50 115 50q26 0 50 -7l-9 -49q-20 8 -40 8q-49 0 -69 -34q-13 -23 -24 -75l-8 -36h98z" />
    <glyph glyph-name="g" unicode="g" horiz-adv-x="544" 
d="M523 481l-89 -418q-26 -121 -61 -168q-61 -85 -188 -85q-92 0 -139 44q-43 40 -43 95v10h59v-5q0 -42 32 -69t96 -27q85 0 131 53q31 34 52 132l12 54q-55 -91 -164 -91q-81 0 -130.5 53.5t-49.5 140.5q0 123 70.5 208.5t171.5 85.5q67 0 111 -32t52 -88l23 107h54z
M288 446q-80 0 -134.5 -70.5t-54.5 -173.5q0 -68 36 -108t97 -40q63 0 109 44q36 35 58 92.5t22 118.5q0 63 -36 100t-97 37z" />
    <glyph glyph-name="h" unicode="h" horiz-adv-x="531" 
d="M222 667l-58 -275q35 47 73 71q52 31 111 31q52 0 94 -30t42 -92q0 -26 -13 -90l-60 -282h-57l59 280q13 59 13 82q0 40 -26 62t-72 22q-91 0 -149 -81q-29 -42 -45 -114l-53 -251h-57l142 667h56z" />
    <glyph glyph-name="i" unicode="i" horiz-adv-x="204" 
d="M183 481l-102 -481h-57l102 481h57zM222 667l-20 -97h-57l21 97h56z" />
    <glyph glyph-name="j" unicode="j" horiz-adv-x="198" 
d="M176 481l-104 -490q-22 -95 -33 -119q-27 -56 -97 -56q-20 0 -44 4l11 49q15 -5 30 -5q38 0 53 34q6 16 25 102l102 481h57zM215 667l-20 -97h-57l21 97h56z" />
    <glyph glyph-name="k" unicode="k" horiz-adv-x="477" 
d="M222 667l-89 -421l13 11q8 7 26 21l249 203h79l-230 -184l148 -297h-66l-127 261l-107 -86l-37 -175h-57l142 667h56z" />
    <glyph glyph-name="l" unicode="l" horiz-adv-x="204" 
d="M222 667l-141 -667h-57l142 667h56z" />
    <glyph glyph-name="m" unicode="m" horiz-adv-x="797" 
d="M180 481l-18 -88q25 45 73 73t98 28q53 0 83.5 -27t32.5 -77q65 104 174 104q58 0 94 -30t36 -78q0 -27 -14 -96l-62 -290h-56l62 291q11 58 11 80q0 34 -24.5 54.5t-64.5 20.5q-63 0 -113 -54q-24 -26 -36 -54t-24 -84l-54 -254h-57l62 289q12 60 12 83q0 34 -22 54.5
t-59 20.5q-60 0 -114 -54q-26 -26 -40.5 -57t-24.5 -82l-54 -254h-57l102 481h54z" />
    <glyph glyph-name="n" unicode="n" horiz-adv-x="529" 
d="M180 481l-19 -90q42 55 85 79t99 24q63 0 100.5 -32t37.5 -87q0 -30 -14 -93l-60 -282h-56l61 288q11 51 11 78q0 37 -26 58.5t-71 21.5q-65 0 -116 -45q-57 -50 -79 -155l-52 -246h-57l102 481h54z" />
    <glyph glyph-name="o" unicode="o" horiz-adv-x="533" 
d="M302 494q91 0 143.5 -51.5t52.5 -141.5q0 -61 -20.5 -122.5t-55.5 -105.5q-70 -87 -184 -87q-95 0 -147 53t-52 151q0 130 75 217t188 87zM299 446q-85 0 -143.5 -74t-58.5 -182q0 -74 38 -115t106 -41q84 0 141.5 76.5t57.5 188.5q0 68 -38 107.5t-103 39.5z" />
    <glyph glyph-name="p" unicode="p" horiz-adv-x="551" 
d="M179 481l-19 -90q25 47 73.5 75t106.5 28q81 0 128.5 -54t47.5 -147q0 -67 -24 -131t-65 -107q-65 -68 -160 -68q-67 0 -111.5 33.5t-52.5 89.5l-61 -289h-57l140 660h54zM321 446q-82 0 -137 -72q-26 -35 -43.5 -91.5t-17.5 -108.5q0 -63 38 -101.5t100 -38.5
q65 0 113 46q38 38 60.5 95.5t22.5 118.5q0 72 -36 112t-100 40z" />
    <glyph glyph-name="q" unicode="q" horiz-adv-x="553" 
d="M531 481l-140 -660h-57l57 270q-64 -104 -179 -104q-83 0 -130 51t-47 140q0 56 18.5 113.5t50.5 100.5q75 102 193 102q65 0 106.5 -29.5t52.5 -83.5l21 100h54zM300 446q-88 0 -146.5 -76.5t-58.5 -190.5q0 -69 34.5 -107t96.5 -38q60 0 108 39q43 35 70.5 102.5
t27.5 137.5q0 61 -35.5 97t-96.5 36z" />
    <glyph glyph-name="r" unicode="r" horiz-adv-x="306" 
d="M363 488l-13 -61q-10 2 -24 2q-78 0 -128 -56q-49 -53 -74 -167l-43 -206h-57l102 481h54l-24 -113q25 56 73 89t105 33q5 0 29 -2z" />
    <glyph glyph-name="s" unicode="s" horiz-adv-x="443" 
d="M414 341h-58q1 4 1 9q0 97 -118 97q-52 0 -83 -21.5t-31 -57.5q0 -38 39 -61q19 -10 91 -39q65 -25 87 -45q41 -35 41 -89q0 -66 -52.5 -106.5t-138.5 -40.5q-88 0 -137 40.5t-49 112.5v17h57q-1 -6 -1 -14q0 -51 35 -79.5t97 -28.5q57 0 92.5 26t35.5 67q0 37 -33 60
q-21 13 -104 47q-63 25 -86 48q-33 31 -33 79q0 60 49 96.5t129 36.5q81 0 125.5 -37t44.5 -104v-13z" />
    <glyph glyph-name="t" unicode="t" horiz-adv-x="274" 
d="M286 481l-10 -49h-101l-62 -291q-10 -46 -10 -59q0 -37 52 -37q23 0 51 7l-11 -51q-27 -4 -56 -4q-94 0 -94 71q0 22 11 73l62 291h-85l10 49h86l31 147h57l-32 -147h101z" />
    <glyph glyph-name="u" unicode="u" horiz-adv-x="526" 
d="M504 481l-102 -481h-54l19 90q-59 -103 -174 -103q-67 0 -105 32.5t-38 89.5q0 34 12 88l60 284h57l-55 -260q-16 -80 -16 -103q0 -38 28 -60.5t74 -22.5q68 0 116.5 51.5t68.5 146.5l53 248h56z" />
    <glyph glyph-name="v" unicode="v" horiz-adv-x="416" 
d="M466 481l-270 -481h-64l-77 481h61l46 -304q10 -70 12 -122q19 44 55 109l174 317h63z" />
    <glyph glyph-name="w" unicode="w" horiz-adv-x="686" 
d="M731 481l-252 -481h-63l-29 317q-5 46 -7 94q-9 -21 -15 -33q-6 -14 -13 -28l-10 -21l-162 -329h-63l-57 481h61l24 -234q14 -141 14 -185q15 36 42 92l158 327h68l27 -289q8 -74 8 -128q19 48 77 163l130 254h62z" />
    <glyph glyph-name="x" unicode="x" horiz-adv-x="427" 
d="M459 481l-211 -232l128 -249h-66l-70 145q-27 52 -33 67q-24 -29 -46 -53l-140 -159h-71l231 254l-114 227h66l63 -133q9 -20 27 -58q6 6 12 14q3 3 7.5 9t12 14.5t13.5 15.5l121 138h70z" />
    <glyph glyph-name="y" unicode="y" horiz-adv-x="424" 
d="M474 481l-258 -456q-63 -109 -87 -143q-46 -65 -117 -65q-22 0 -50 5l11 50q25 -7 40 -7q26 0 46.5 15.5t43.5 52.5q2 3 20 32q23 31 22 33l-1 2l-89 481h61l46 -253q22 -138 24 -161q23 47 71 135l153 279h64z" />
    <glyph glyph-name="z" unicode="z" horiz-adv-x="417" 
d="M441 481l-9 -45l-316 -327q-47 -47 -64 -62q52 2 107 2h208l-11 -49h-383l10 48l309 318q19 19 29 30q18 16 26 25q6 5 11 11h-109h-180l10 49h362z" />
    <glyph glyph-name="braceleft" unicode="{" horiz-adv-x="277" 
d="M191 526l-36 -170q-12 -50 -29 -74t-51 -39q37 -23 37 -66q0 -27 -6 -50l-34 -162q-6 -33 -6 -48q0 -50 68 -50h11l-10 -46h-11q-59 0 -86.5 20.5t-27.5 64.5q0 29 7 63l34 157q5 28 5 41q0 41 -42 55l9 45q34 10 51 30.5t26 61.5l37 172q15 72 54.5 104t112.5 32h11
l-10 -47h-11q-44 0 -68 -22q-24 -21 -35 -72z" />
    <glyph glyph-name="bar" unicode="|" 
d="M239 667h63v-834h-63v834z" />
    <glyph glyph-name="braceright" unicode="}" horiz-adv-x="277" 
d="M90 -39l36 170q12 50 29 74t51 39q-37 23 -37 66q0 28 6 50l34 162q6 33 6 48q0 50 -68 50h-11l10 47h11q59 0 86.5 -20.5t27.5 -65.5q0 -29 -7 -63l-34 -157q-5 -28 -5 -41q0 -41 42 -55l-9 -45q-34 -10 -51 -30.5t-26 -61.5l-37 -172q-15 -72 -54 -103.5t-113 -31.5
h-11l10 46h11q44 0 68 22q24 21 35 72z" />
    <glyph glyph-name="asciitilde" unicode="~" horiz-adv-x="667" 
d="M151 587l-35 27q53 107 133 107q39 0 116 -41q69 -35 97 -35q29 0 51 18t46 60l35 -27q-50 -107 -138 -107q-21 0 -43.5 8.5t-82.5 39.5q-53 28 -84 28q-51 0 -95 -78z" />
    <glyph glyph-name="uni00A0" unicode="&#xa0;" horiz-adv-x="250" 
 />
    <glyph glyph-name="exclamdown" unicode="&#xa1;" horiz-adv-x="263" 
d="M119 388l20 93h70l-20 -93h-70zM1 -185l44 206l76 294h35l-48 -294l-44 -206h-63z" />
    <glyph glyph-name="cent" unicode="&#xa2;" horiz-adv-x="547" 
d="M520 422h-58q1 48 -26.5 78.5t-74.5 34.5l-87 -411q55 1 96 32.5t62 88.5h60q-25 -80 -86.5 -125t-141.5 -43l-21 -98h-36l20 98q-68 15 -101 54q-46 54 -46 142q0 131 72.5 219.5t182.5 91.5l18 84h37l-18 -84q70 -8 109.5 -51t38.5 -111zM238 127l87 408
q-79 -7 -133 -81t-54 -177q0 -64 23.5 -99.5t76.5 -50.5z" />
    <glyph glyph-name="sterling" unicode="&#xa3;" horiz-adv-x="547" 
d="M357 336l-6 -32h-134q9 -35 9 -65q0 -63 -36 -108q-21 -28 -82 -82q55 22 95 22q27 0 83 -16q52 -16 82 -16q28 0 51 10.5t57 39.5l24 -47q-69 -59 -139 -59q-21 0 -36.5 3.5t-70.5 22.5q-49 16 -80 16q-45 0 -111 -40l-22 51q72 59 100.5 103t28.5 95q0 32 -11 70h-81
l7 32h65q-24 70 -24 127q0 87 62 144t157 57q92 0 148 -52.5t56 -140.5q0 -12 -1 -22h-57v15q0 71 -37.5 109t-107.5 38q-71 0 -116.5 -43t-45.5 -111q0 -59 25 -121h148z" />
    <glyph glyph-name="currency" unicode="&#xa4;" horiz-adv-x="667" 
d="M64 119l91 93q-52 67 -52 144q0 75 52 142l-94 92l34 34l92 -92q72 53 146 53q75 0 144 -53l93 92l34 -34l-93 -92q52 -67 52 -143t-51 -143l93 -93l-34 -33l-93 93q-66 -53 -144 -53q-73 0 -145 52l-92 -92zM335 532q-74 0 -125.5 -51.5t-51.5 -125.5q0 -73 51.5 -124.5
t123.5 -51.5q73 0 124 51.5t51 124.5t-51 125t-122 52z" />
    <glyph glyph-name="yen" unicode="&#xa5;" horiz-adv-x="547" 
d="M232 187h-173l9 40h172l10 46l-25 67h-153l8 40h130l-100 267h65l115 -321l237 321h71l-202 -267h132l-8 -40h-154l-56 -73l-8 -40h174l-9 -40h-174l-39 -187h-62z" />
    <glyph glyph-name="brokenbar" unicode="&#xa6;" 
d="M239 667h63v-331h-63v331zM239 153h63v-320h-63v320z" />
    <glyph glyph-name="section" unicode="&#xa7;" horiz-adv-x="547" 
d="M499 496h-56q1 7 1 16q0 46 -28.5 73t-76.5 27q-43 0 -71 -24t-28 -61q0 -32 17 -57t76 -81q87 -83 113 -117q31 -43 31 -90q0 -56 -36 -95t-97 -48q30 -36 30 -83q0 -59 -46.5 -98t-117.5 -39q-76 0 -123 42.5t-47 111.5q0 11 2 19h56q-2 -7 -2 -16q0 -50 32 -79t87 -29
q42 0 70.5 24t28.5 60q0 32 -20 61t-89 98q-84 85 -104 113q-28 42 -28 87q0 53 36 92.5t94 48.5q-23 36 -23 74q0 59 44.5 97t114.5 38q73 0 117 -39.5t44 -105.5q0 -11 -1 -20zM346 298l-119 117h-1q-28 -2 -58 -24q-39 -30 -39 -75q0 -26 15.5 -52t56.5 -68l117 -121h1
q15 1 36.5 10.5t31.5 19.5q30 28 30 71q0 52 -71 122z" />
    <glyph glyph-name="dieresis" unicode="&#xa8;" 
d="M295 667l-20 -94h-60l20 94h60zM448 667l-20 -94h-60l20 94h60z" />
    <glyph glyph-name="copyright" unicode="&#xa9;" horiz-adv-x="788" 
d="M555 294h45q-6 -73 -53.5 -116t-122.5 -43q-85 0 -136 54.5t-51 143.5t52.5 144t137.5 55q68 0 115 -35.5t53 -91.5h-45q-10 42 -42.5 65.5t-81.5 23.5q-65 0 -104.5 -44t-39.5 -116q0 -73 39 -117t104 -44q55 0 88.5 31t41.5 90zM420 682q140 0 241.5 -103t101.5 -246
q0 -144 -102 -246t-246 -102q-143 0 -245.5 102t-102.5 246q0 146 102.5 247.5t250.5 101.5zM419 648q-132 0 -223 -91.5t-91 -223.5q0 -130 91 -222t219 -92t219 92.5t91 222.5q0 128 -90.5 221t-215.5 93z" />
    <glyph glyph-name="ordfeminine" unicode="&#xaa;" horiz-adv-x="365" 
d="M344 297h-297l7 33h297zM169 584h-38q18 90 117 90q46 0 71.5 -17t25.5 -49q0 -10 -7 -44l-18 -84q-6 -31 -6 -36q0 -14 10 -14q6 0 19 2l-6 -31q-17 -4 -27 -4q-34 0 -34 36q-40 -40 -94 -40q-40 0 -63 20t-23 55q0 42 34 64q27 20 101 25q51 3 63.5 11t12.5 39
q0 34 -58 34q-36 0 -54 -13t-26 -44zM290 521l4 16q-16 -7 -29 -8q-4 -1 -22 -2l-19 -2q-42 -3 -58 -9q-31 -11 -31 -44q0 -21 15.5 -33.5t42.5 -12.5q78 0 97 95z" />
    <glyph glyph-name="guillemotleft" unicode="&#xab;" horiz-adv-x="387" 
d="M209 395l-14 -64l-108 -79l71 -96l-12 -58l-98 131l13 60zM359 395l-14 -65l-108 -77l71 -97l-12 -57l-98 130l13 60z" />
    <glyph glyph-name="logicalnot" unicode="&#xac;" 
d="M426 0v219h-372v55h433v-274h-61z" />
    <glyph glyph-name="uni00AD" unicode="&#xad;" horiz-adv-x="222" 
d="M230 273l-11 -53h-222l11 53h222z" />
    <glyph glyph-name="registered" unicode="&#xae;" horiz-adv-x="788" 
d="M273 524h179q65 0 99.5 -27t34.5 -77q0 -67 -66 -92q34 -12 45.5 -34t14.5 -84q3 -32 7 -44.5t14 -22.5h-53q-9 12 -12 55q-4 73 -22 92.5t-82 19.5h-114v-167h-45v381zM318 486v-140h109q61 0 87.5 16.5t26.5 54.5q0 69 -101 69h-122zM420 682q140 0 241.5 -103
t101.5 -246q0 -144 -102 -246t-246 -102q-143 0 -245.5 102t-102.5 246q0 146 102.5 247.5t250.5 101.5zM419 648q-132 0 -223 -91.5t-91 -223.5q0 -130 91 -222t219 -92t219 92.5t91 222.5q0 128 -90.5 221t-215.5 93z" />
    <glyph glyph-name="macron" unicode="&#xaf;" 
d="M467 635l-9 -41h-261l9 41h261z" />
    <glyph glyph-name="degree" unicode="&#xb0;" horiz-adv-x="414" 
d="M268 664q58 0 99.5 -42t41.5 -101q0 -58 -41.5 -100t-99.5 -42q-59 0 -101 42t-42 101t42 100.5t101 41.5zM266 626q-42 0 -72.5 -30.5t-30.5 -73.5t30.5 -74t73.5 -31q42 0 73 30.5t31 71.5q0 45 -30.5 76t-74.5 31z" />
    <glyph glyph-name="plusminus" unicode="&#xb1;" horiz-adv-x="547" 
d="M68 345h202v202h43v-202h202v-43h-202v-202h-43v202h-202v43zM68 70h447v-43h-447v43z" />
    <glyph glyph-name="twosuperior" unicode="&#xb2;" horiz-adv-x="356" 
d="M341 304l-8 -37h-269q5 56 40.5 93.5t129.5 84.5q57 31 79 55t22 56t-22 51.5t-59 19.5q-43 0 -68.5 -27t-29.5 -76h-41q3 64 41.5 101.5t100.5 37.5q55 0 88 -29t33 -76q0 -62 -66 -109q-17 -12 -92 -52q-48 -26 -72 -47t-35 -46h33h195z" />
    <glyph glyph-name="threesuperior" unicode="&#xb3;" horiz-adv-x="356" 
d="M71 396h42q-2 -9 -2 -21q0 -37 24 -58.5t66 -21.5q44 0 73 26.5t29 66.5t-36 57q-20 8 -57 8h-16l7 36q12 -1 25 -1q101 0 101 74q0 29 -21.5 47t-56.5 18q-82 0 -96 -91h-42q10 61 46.5 94t94.5 33q53 0 86 -27t33 -71q0 -71 -74 -95q52 -26 52 -81q0 -56 -42.5 -93
t-107.5 -37q-60 0 -95 30.5t-35 82.5q0 13 2 24z" />
    <glyph glyph-name="acute" unicode="&#xb4;" 
d="M465 687l-136 -134h-50l109 134h77z" />
    <glyph glyph-name="mu" unicode="&#xb5;" horiz-adv-x="526" 
d="M-18 -165l137 645h55l-59 -277q-10 -46 -10 -68q0 -45 30.5 -73.5t77.5 -28.5q64 0 115.5 50.5t68.5 130.5l56 266h55l-102 -480h-55l21 98q-68 -112 -171 -112q-84 0 -116 78l-48 -229h-55z" />
    <glyph glyph-name="paragraph" unicode="&#xb6;" horiz-adv-x="547" 
d="M148 -179l105 493q-51 0 -80 11q-79 31 -79 123q0 47 22.5 93.5t60.5 76.5q61 49 168 49h233l-10 -45h-43l-170 -801h-57l170 801h-93l-170 -801h-57z" />
    <glyph glyph-name="periodcentered" unicode="&#xb7;" horiz-adv-x="223" 
d="M163 297l-21 -100h-77l21 100h77z" />
    <glyph glyph-name="cedilla" unicode="&#xb8;" 
d="M238 0l-46 -53q21 3 29 3q33 0 54.5 -18t21.5 -45q0 -32 -29 -54.5t-71 -22.5q-46 0 -92 20l14 28q34 -17 68 -17q26 0 41.5 11.5t15.5 30.5q0 17 -13.5 27.5t-35.5 10.5q-21 0 -38 -8l-14 15l63 72h32z" />
    <glyph glyph-name="onesuperior" unicode="&#xb9;" horiz-adv-x="356" 
d="M318 659l-83 -392h-45l67 318q-52 -24 -111 -29l7 34q92 9 130 69h35z" />
    <glyph glyph-name="ordmasculine" unicode="&#xba;" horiz-adv-x="365" 
d="M344 297h-297l7 33h297zM255 674q53 0 83 -29t30 -79q0 -74 -42.5 -123.5t-105.5 -49.5q-55 0 -85 30t-30 84q0 72 42.5 119.5t107.5 47.5zM251 642q-45 0 -76 -38.5t-31 -94.5q0 -39 20.5 -61t57.5 -22q45 0 75.5 39.5t30.5 98.5q0 36 -20.5 57t-56.5 21z" />
    <glyph glyph-name="guillemotright" unicode="&#xbb;" horiz-adv-x="387" 
d="M97 395l98 -130l-13 -60l-148 -107l14 65l108 78l-71 96zM247 395l98 -130l-13 -60l-148 -106l13 64l109 79l-72 95z" />
    <glyph glyph-name="onequarter" unicode="&#xbc;" horiz-adv-x="858" 
d="M318 659l-83 -392h-45l67 318q-52 -24 -111 -29l7 34q92 9 130 69h35zM665 655l-389 -655h-45l391 655h43zM805 131l-8 -35h-61l-20 -96h-43l21 96h-188l8 37l247 261h38l-56 -263h62zM701 131l31 143q2 9 5 23t3 16q1 3 1.5 6t0.5 5l1 1v1q-26 -30 -42 -47l-142 -148
h142z" />
    <glyph glyph-name="onehalf" unicode="&#xbd;" horiz-adv-x="858" 
d="M318 659l-83 -392h-45l67 318q-52 -24 -111 -29l7 34q92 9 130 69h35zM665 655l-389 -655h-45l391 655h43zM784 37l-8 -37h-269q5 56 40.5 94t128.5 85q56 31 78.5 55.5t22.5 55.5q0 32 -22 51.5t-59 19.5q-43 0 -68 -27t-29 -76h-42q4 64 42 101.5t100 37.5
q55 0 88 -28.5t33 -76.5q0 -62 -66 -109q-19 -14 -91 -53q-48 -26 -72 -46.5t-35 -46.5h33h195z" />
    <glyph glyph-name="threequarters" unicode="&#xbe;" horiz-adv-x="858" 
d="M71 396h42q-2 -9 -2 -21q0 -37 24 -58.5t66 -21.5q44 0 73 26.5t29 66.5t-36 57q-20 8 -57 8h-16l7 36q12 -1 25 -1q101 0 101 74q0 29 -21.5 47t-56.5 18q-82 0 -96 -91h-42q10 61 46.5 94t94.5 33q53 0 86 -27t33 -71q0 -71 -74 -95q52 -26 52 -81q0 -56 -42.5 -93
t-107.5 -37q-60 0 -95 30.5t-35 82.5q0 13 2 24zM665 655l-389 -655h-45l391 655h43zM805 131l-8 -35h-61l-20 -96h-43l21 96h-188l8 37l247 261h38l-56 -263h62zM701 131l31 143q2 9 5 23t3 16q1 3 1.5 6t0.5 5l1 1v1q-26 -30 -42 -47l-142 -148h142z" />
    <glyph glyph-name="questiondown" unicode="&#xbf;" horiz-adv-x="490" 
d="M240 388l20 93h70l-20 -93h-70zM232 311h56q-14 -74 -37 -110.5t-84 -76.5q-117 -78 -117 -159q0 -50 34 -80t89 -30q141 0 164 167h56q-11 -105 -68.5 -161.5t-153.5 -56.5q-83 0 -133 43.5t-50 114.5q0 66 44 118q17 20 33.5 33t76.5 55q44 32 60.5 58.5t29.5 84.5z
" />
    <glyph glyph-name="Agrave" unicode="&#xc0;" horiz-adv-x="616" 
d="M437 667l121 -667h-66l-35 210h-301l-125 -210h-72l407 667h71zM449 263l-39 219q-13 82 -19 130q-45 -85 -84 -149l-121 -200h263zM455 722h-47l-98 127h72z" />
    <glyph glyph-name="Aacute" unicode="&#xc1;" horiz-adv-x="616" 
d="M437 667l121 -667h-66l-35 210h-301l-125 -210h-72l407 667h71zM449 263l-39 219q-13 82 -19 130q-45 -85 -84 -149l-121 -200h263zM547 849l-133 -127h-46l102 127h77z" />
    <glyph glyph-name="Acircumflex" unicode="&#xc2;" horiz-adv-x="616" 
d="M437 667l121 -667h-66l-35 210h-301l-125 -210h-72l407 667h71zM449 263l-39 219q-13 82 -19 130q-45 -85 -84 -149l-121 -200h263zM550 722h-54l-61 92l-110 -92h-58l143 127h60z" />
    <glyph glyph-name="Atilde" unicode="&#xc3;" horiz-adv-x="616" 
d="M437 667l121 -667h-66l-35 210h-301l-125 -210h-72l407 667h71zM449 263l-39 219q-13 82 -19 130q-45 -85 -84 -149l-121 -200h263zM542 826h37q-29 -93 -84 -93q-23 0 -56 18q-59 33 -72 33q-30 0 -47 -48h-37q26 93 85 93q16 0 28.5 -5.5t65.5 -34.5q23 -12 34 -12
q29 0 46 49z" />
    <glyph glyph-name="Adieresis" unicode="&#xc4;" horiz-adv-x="616" 
d="M437 667l121 -667h-66l-35 210h-301l-125 -210h-72l407 667h71zM449 263l-39 219q-13 82 -19 130q-45 -85 -84 -149l-121 -200h263zM374 831l-21 -94h-63l20 94h64zM560 831l-20 -94h-63l20 94h63z" />
    <glyph glyph-name="Aring" unicode="&#xc5;" horiz-adv-x="616" 
d="M437 667l121 -667h-66l-35 210h-301l-125 -210h-72l407 667h71zM449 263l-39 219q-13 82 -19 130q-45 -85 -84 -149l-121 -200h263zM424 895q38 0 65.5 -28t27.5 -67t-27.5 -67t-67.5 -28t-67.5 28t-27.5 68q0 39 28.5 66.5t68.5 27.5zM423 856q-24 0 -40.5 -16.5
t-16.5 -39.5t16.5 -39.5t39.5 -16.5t39.5 16.5t16.5 39.5t-16 39.5t-39 16.5z" />
    <glyph glyph-name="AE" unicode="&#xc6;" horiz-adv-x="872" 
d="M915 667l-11 -53h-336l-52 -243h315l-11 -53h-315l-56 -265h345l-11 -53h-407l46 218h-235l-162 -218h-75l500 667h465zM506 614h-30l-251 -343h208z" />
    <glyph glyph-name="Ccedilla" unicode="&#xc7;" horiz-adv-x="675" 
d="M673 459h-63q1 3 1 7q0 73 -51.5 118t-134.5 45q-127 0 -210 -100q-41 -49 -64.5 -120t-23.5 -144q0 -104 55.5 -165.5t150.5 -61.5q87 0 151 51.5t89 141.5h64q-23 -109 -107.5 -177.5t-195.5 -68.5h-14l-34 -38q19 4 30 4q32 0 53 -17.5t21 -44.5q0 -34 -28.5 -56
t-72.5 -22q-47 0 -95 21l14 27q43 -17 73 -17q26 0 42 11.5t16 30.5q0 17 -14 27.5t-36 10.5q-17 0 -38 -8l-15 14l52 60q-109 16 -167 88.5t-58 194.5q0 79 27 158t73 133q101 120 262 120q113 0 180.5 -61t67.5 -162z" />
    <glyph glyph-name="Egrave" unicode="&#xc8;" horiz-adv-x="576" 
d="M620 667l-12 -53h-386l-51 -243h361l-12 -53h-360l-57 -265h396l-12 -53h-457l142 667h448zM459 722h-47l-98 127h72z" />
    <glyph glyph-name="Eacute" unicode="&#xc9;" horiz-adv-x="576" 
d="M620 667l-12 -53h-386l-51 -243h361l-12 -53h-360l-57 -265h396l-12 -53h-457l142 667h448zM534 849l-133 -127h-46l102 127h77z" />
    <glyph glyph-name="Ecircumflex" unicode="&#xca;" horiz-adv-x="576" 
d="M620 667l-12 -53h-386l-51 -243h361l-12 -53h-360l-57 -265h396l-12 -53h-457l142 667h448zM543 722h-54l-62 92l-109 -92h-59l143 127h61z" />
    <glyph glyph-name="Edieresis" unicode="&#xcb;" horiz-adv-x="576" 
d="M620 667l-12 -53h-386l-51 -243h361l-12 -53h-360l-57 -265h396l-12 -53h-457l142 667h448zM368 831l-20 -94h-63l20 94h63zM555 831l-20 -94h-64l20 94h64z" />
    <glyph glyph-name="Igrave" unicode="&#xcc;" horiz-adv-x="223" 
d="M234 667l-142 -667h-62l142 667h62zM249 722h-47l-82 127h69z" />
    <glyph glyph-name="Iacute" unicode="&#xcd;" horiz-adv-x="223" 
d="M234 667l-142 -667h-62l142 667h62zM343 849l-117 -127h-46l89 127h74z" />
    <glyph glyph-name="Icircumflex" unicode="&#xce;" horiz-adv-x="223" 
d="M234 667l-142 -667h-62l142 667h62zM326 722h-50l-42 92l-90 -92h-55l120 127h60z" />
    <glyph glyph-name="Idieresis" unicode="&#xcf;" horiz-adv-x="223" 
d="M234 667l-142 -667h-62l142 667h62zM206 831l-20 -94h-63l20 94h63zM333 831l-20 -94h-64l20 94h64z" />
    <glyph glyph-name="Eth" unicode="&#xd0;" horiz-adv-x="661" 
d="M110 375l62 292h170q94 0 140.5 -12t83.5 -46q75 -69 75 -210q0 -85 -33 -167t-90 -138q-65 -64 -150 -83q-48 -11 -143 -11h-195l68 322h-73l11 53h74zM172 375h199l-11 -53h-200l-57 -269h136q113 0 166 26q77 37 126 127.5t49 196.5q0 134 -81 183q-46 28 -141 28
h-136z" />
    <glyph glyph-name="Ntilde" unicode="&#xd1;" horiz-adv-x="685" 
d="M696 667l-142 -667h-71l-217 472q-36 80 -52 126q-8 -57 -32 -175l-90 -423h-62l142 667h71l212 -466q48 -111 56 -134q24 135 40 209l83 391h62zM576 826h37q-29 -93 -84 -93q-24 0 -56 18q-59 33 -72 33q-30 0 -47 -48h-37q26 93 85 93q16 0 28.5 -5.5t65.5 -34.5
q21 -12 34 -12q29 0 46 49z" />
    <glyph glyph-name="Ograve" unicode="&#xd2;" horiz-adv-x="722" 
d="M426 683q126 0 200.5 -76t74.5 -205q0 -85 -27.5 -164t-77.5 -138q-98 -116 -256 -116q-128 0 -201.5 77.5t-73.5 211.5q0 84 27.5 163t76.5 135q98 112 257 112zM423 630q-120 0 -199 -88q-44 -49 -69 -121t-25 -150q0 -108 58 -171.5t156 -63.5q113 0 194 87
q46 50 72 124.5t26 154.5q0 106 -57 167t-156 61zM506 722h-47l-98 127h72z" />
    <glyph glyph-name="Oacute" unicode="&#xd3;" horiz-adv-x="722" 
d="M426 683q126 0 200.5 -76t74.5 -205q0 -85 -27.5 -164t-77.5 -138q-98 -116 -256 -116q-128 0 -201.5 77.5t-73.5 211.5q0 84 27.5 163t76.5 135q98 112 257 112zM423 630q-120 0 -199 -88q-44 -49 -69 -121t-25 -150q0 -108 58 -171.5t156 -63.5q113 0 194 87
q46 50 72 124.5t26 154.5q0 106 -57 167t-156 61zM585 849l-134 -127h-46l102 127h78z" />
    <glyph glyph-name="Ocircumflex" unicode="&#xd4;" horiz-adv-x="722" 
d="M426 683q126 0 200.5 -76t74.5 -205q0 -85 -27.5 -164t-77.5 -138q-98 -116 -256 -116q-128 0 -201.5 77.5t-73.5 211.5q0 84 27.5 163t76.5 135q98 112 257 112zM423 630q-120 0 -199 -88q-44 -49 -69 -121t-25 -150q0 -108 58 -171.5t156 -63.5q113 0 194 87
q46 50 72 124.5t26 154.5q0 106 -57 167t-156 61zM593 722h-54l-62 92l-109 -92h-58l142 127h61z" />
    <glyph glyph-name="Otilde" unicode="&#xd5;" horiz-adv-x="722" 
d="M426 683q126 0 200.5 -76t74.5 -205q0 -85 -27.5 -164t-77.5 -138q-98 -116 -256 -116q-128 0 -201.5 77.5t-73.5 211.5q0 84 27.5 163t76.5 135q98 112 257 112zM423 630q-120 0 -199 -88q-44 -49 -69 -121t-25 -150q0 -108 58 -171.5t156 -63.5q113 0 194 87
q46 50 72 124.5t26 154.5q0 106 -57 167t-156 61zM582 826h37q-29 -93 -85 -93q-23 0 -55 18q-60 33 -72 33q-29 0 -47 -48h-37q26 93 84 93q17 0 29.5 -5.5t65.5 -34.5q21 -12 34 -12q28 0 46 49z" />
    <glyph glyph-name="Odieresis" unicode="&#xd6;" horiz-adv-x="722" 
d="M426 683q126 0 200.5 -76t74.5 -205q0 -85 -27.5 -164t-77.5 -138q-98 -116 -256 -116q-128 0 -201.5 77.5t-73.5 211.5q0 84 27.5 163t76.5 135q98 112 257 112zM423 630q-120 0 -199 -88q-44 -49 -69 -121t-25 -150q0 -108 58 -171.5t156 -63.5q113 0 194 87
q46 50 72 124.5t26 154.5q0 106 -57 167t-156 61zM420 831l-20 -94h-64l20 94h64zM606 831l-20 -94h-63l20 94h63z" />
    <glyph glyph-name="multiply" unicode="&#xd7;" horiz-adv-x="547" 
d="M102 164l159 159l-159 160l31 30l159 -159l159 159l31 -30l-159 -160l159 -159l-31 -31l-159 160l-159 -160z" />
    <glyph glyph-name="Oslash" unicode="&#xd8;" horiz-adv-x="722" 
d="M730 660l-78 -80q50 -74 50 -184q0 -83 -30 -163t-82 -138q-100 -111 -251 -111q-117 0 -191 71l-81 -83l-31 33l82 85q-51 80 -51 185q0 77 26 153.5t70 128.5q103 125 268 125q118 0 189 -67l78 77zM165 135l413 437q-64 57 -147 57q-65 0 -124.5 -31.5t-99.5 -87.5
q-32 -44 -51.5 -105.5t-19.5 -119.5q0 -89 29 -150zM605 531l-414 -434q51 -59 150 -59q124 0 209.5 104t85.5 253q0 80 -31 136z" />
    <glyph glyph-name="Ugrave" unicode="&#xd9;" horiz-adv-x="660" 
d="M681 667l-86 -408q-16 -72 -28 -106.5t-31 -62.5q-71 -103 -233 -103q-108 0 -172.5 52t-64.5 138q0 38 13 102l83 388h62l-85 -396q-12 -60 -12 -89q0 -67 46.5 -105t127.5 -38q132 0 187 86q25 38 46 138l86 404h61zM484 722h-46l-99 127h72z" />
    <glyph glyph-name="Uacute" unicode="&#xda;" horiz-adv-x="660" 
d="M681 667l-86 -408q-16 -72 -28 -106.5t-31 -62.5q-71 -103 -233 -103q-108 0 -172.5 52t-64.5 138q0 38 13 102l83 388h62l-85 -396q-12 -60 -12 -89q0 -67 46.5 -105t127.5 -38q132 0 187 86q25 38 46 138l86 404h61zM563 849l-133 -127h-46l102 127h77z" />
    <glyph glyph-name="Ucircumflex" unicode="&#xdb;" horiz-adv-x="660" 
d="M681 667l-86 -408q-16 -72 -28 -106.5t-31 -62.5q-71 -103 -233 -103q-108 0 -172.5 52t-64.5 138q0 38 13 102l83 388h62l-85 -396q-12 -60 -12 -89q0 -67 46.5 -105t127.5 -38q132 0 187 86q25 38 46 138l86 404h61zM572 722h-54l-62 92l-110 -92h-58l143 127h60z" />
    <glyph glyph-name="Udieresis" unicode="&#xdc;" horiz-adv-x="660" 
d="M681 667l-86 -408q-16 -72 -28 -106.5t-31 -62.5q-71 -103 -233 -103q-108 0 -172.5 52t-64.5 138q0 38 13 102l83 388h62l-85 -396q-12 -60 -12 -89q0 -67 46.5 -105t127.5 -38q132 0 187 86q25 38 46 138l86 404h61zM395 831l-20 -94h-64l21 94h63zM581 831l-20 -94
h-63l20 94h63z" />
    <glyph glyph-name="Yacute" unicode="&#xdd;" horiz-adv-x="558" 
d="M656 667l-332 -397l-58 -270h-62l59 276l-178 391h68l107 -242q22 -49 42 -98q34 46 67 85l211 255h76zM505 849l-133 -127h-46l102 127h77z" />
    <glyph glyph-name="Thorn" unicode="&#xde;" horiz-adv-x="598" 
d="M172 667h62l-22 -100h159q108 0 150 -26q73 -45 73 -143q0 -59 -28 -109t-75 -75q-53 -28 -175 -28h-184l-40 -186h-62zM201 514l-58 -275h172q113 0 154 28q29 20 46 54.5t17 72.5q0 72 -51 101q-33 19 -129 19h-151z" />
    <glyph glyph-name="germandbls" unicode="&#xdf;" horiz-adv-x="508" 
d="M169 -5l10 48q19 -5 38 -5q81 0 133.5 53.5t52.5 136.5q0 117 -145 117h-15l10 48q9 -1 20 -1q71 0 118 41t47 102q0 44 -29 70.5t-78 26.5q-69 0 -108 -47q-15 -19 -23.5 -42.5t-19.5 -77.5l-99 -465h-57l100 468q14 68 26.5 99t36.5 56q53 56 145 56q76 0 119.5 -38
t43.5 -104q0 -63 -39 -108.5t-104 -58.5q53 -10 82 -46.5t29 -94.5q0 -101 -74 -172q-67 -66 -170 -66q-25 0 -50 4z" />
    <glyph glyph-name="agrave" unicode="&#xe0;" horiz-adv-x="498" 
d="M133 340h-56q33 154 202 154q80 0 123.5 -30.5t43.5 -85.5q0 -17 -13 -82l-33 -154q-13 -55 -13 -70q0 -31 24 -31q8 0 27 4l-8 -45q-27 -7 -43 -7q-26 0 -41 15t-15 42q0 9 4 25q-65 -88 -176 -88q-68 0 -108 35.5t-40 96.5q0 74 58 115q49 35 178 44q68 4 91.5 10
t34.5 20q17 25 17 71q0 67 -108 67q-64 0 -99.5 -25t-49.5 -81zM359 217l10 43q-13 -13 -40 -18.5t-93 -10.5q-76 -6 -107 -18q-28 -11 -44.5 -35t-16.5 -54q0 -41 29 -65t79 -24q86 0 140 70q26 33 43 112zM354 553h-47l-102 134h71z" />
    <glyph glyph-name="aacute" unicode="&#xe1;" horiz-adv-x="498" 
d="M133 340h-56q33 154 202 154q80 0 123.5 -30.5t43.5 -85.5q0 -17 -13 -82l-33 -154q-13 -55 -13 -70q0 -31 24 -31q8 0 27 4l-8 -45q-27 -7 -43 -7q-26 0 -41 15t-15 42q0 9 4 25q-65 -88 -176 -88q-68 0 -108 35.5t-40 96.5q0 74 58 115q49 35 178 44q68 4 91.5 10
t34.5 20q17 25 17 71q0 67 -108 67q-64 0 -99.5 -25t-49.5 -81zM359 217l10 43q-13 -13 -40 -18.5t-93 -10.5q-76 -6 -107 -18q-28 -11 -44.5 -35t-16.5 -54q0 -41 29 -65t79 -24q86 0 140 70q26 33 43 112zM438 687l-137 -134h-50l109 134h78z" />
    <glyph glyph-name="acircumflex" unicode="&#xe2;" horiz-adv-x="498" 
d="M133 340h-56q33 154 202 154q80 0 123.5 -30.5t43.5 -85.5q0 -17 -13 -82l-33 -154q-13 -55 -13 -70q0 -31 24 -31q8 0 27 4l-8 -45q-27 -7 -43 -7q-26 0 -41 15t-15 42q0 9 4 25q-65 -88 -176 -88q-68 0 -108 35.5t-40 96.5q0 74 58 115q49 35 178 44q68 4 91.5 10
t34.5 20q17 25 17 71q0 67 -108 67q-64 0 -99.5 -25t-49.5 -81zM359 217l10 43q-13 -13 -40 -18.5t-93 -10.5q-76 -6 -107 -18q-28 -11 -44.5 -35t-16.5 -54q0 -41 29 -65t79 -24q86 0 140 70q26 33 43 112zM434 553h-54l-52 99l-99 -99h-59l133 134h60z" />
    <glyph glyph-name="atilde" unicode="&#xe3;" horiz-adv-x="498" 
d="M133 340h-56q33 154 202 154q80 0 123.5 -30.5t43.5 -85.5q0 -17 -13 -82l-33 -154q-13 -55 -13 -70q0 -31 24 -31q8 0 27 4l-8 -45q-27 -7 -43 -7q-26 0 -41 15t-15 42q0 9 4 25q-65 -88 -176 -88q-68 0 -108 35.5t-40 96.5q0 74 58 115q49 35 178 44q68 4 91.5 10
t34.5 20q17 25 17 71q0 67 -108 67q-64 0 -99.5 -25t-49.5 -81zM359 217l10 43q-13 -13 -40 -18.5t-93 -10.5q-76 -6 -107 -18q-28 -11 -44.5 -35t-16.5 -54q0 -41 29 -65t79 -24q86 0 140 70q26 33 43 112zM425 664h36q-29 -93 -82 -93q-22 0 -54 18q-56 33 -69 33
q-28 0 -45 -48h-36q12 44 33.5 68.5t48.5 24.5q15 0 28.5 -6t62.5 -34q20 -12 32 -12q28 0 45 49z" />
    <glyph glyph-name="adieresis" unicode="&#xe4;" horiz-adv-x="498" 
d="M133 340h-56q33 154 202 154q80 0 123.5 -30.5t43.5 -85.5q0 -17 -13 -82l-33 -154q-13 -55 -13 -70q0 -31 24 -31q8 0 27 4l-8 -45q-27 -7 -43 -7q-26 0 -41 15t-15 42q0 9 4 25q-65 -88 -176 -88q-68 0 -108 35.5t-40 96.5q0 74 58 115q49 35 178 44q68 4 91.5 10
t34.5 20q17 25 17 71q0 67 -108 67q-64 0 -99.5 -25t-49.5 -81zM359 217l10 43q-13 -13 -40 -18.5t-93 -10.5q-76 -6 -107 -18q-28 -11 -44.5 -35t-16.5 -54q0 -41 29 -65t79 -24q86 0 140 70q26 33 43 112zM281 667l-20 -94h-60l20 94h60zM434 667l-20 -94h-60l20 94h60z
" />
    <glyph glyph-name="aring" unicode="&#xe5;" horiz-adv-x="498" 
d="M133 340h-56q33 154 202 154q80 0 123.5 -30.5t43.5 -85.5q0 -17 -13 -82l-33 -154q-13 -55 -13 -70q0 -31 24 -31q8 0 27 4l-8 -45q-27 -7 -43 -7q-26 0 -41 15t-15 42q0 9 4 25q-65 -88 -176 -88q-68 0 -108 35.5t-40 96.5q0 74 58 115q49 35 178 44q68 4 91.5 10
t34.5 20q17 25 17 71q0 67 -108 67q-64 0 -99.5 -25t-49.5 -81zM359 217l10 43q-13 -13 -40 -18.5t-93 -10.5q-76 -6 -107 -18q-28 -11 -44.5 -35t-16.5 -54q0 -41 29 -65t79 -24q86 0 140 70q26 33 43 112zM319 720q38 0 65 -27.5t27 -65.5t-27.5 -65.5t-65.5 -27.5
q-39 0 -66.5 27.5t-27.5 66.5q0 38 27.5 65t67.5 27zM318 681q-23 0 -39 -16t-16 -38q0 -23 16 -38.5t39 -15.5q22 0 38 15.5t16 38.5q0 22 -16 38t-38 16z" />
    <glyph glyph-name="ae" unicode="&#xe6;" horiz-adv-x="809" 
d="M696 154h59q-63 -167 -224 -167q-73 0 -118.5 34t-52.5 93q-59 -128 -201 -128q-69 0 -109 35t-40 95q0 79 66 121q27 17 60.5 24.5t116.5 14.5q86 8 106 23q24 16 24 64q0 38 -29 60.5t-79 22.5q-116 0 -141 -106h-57q34 154 200 154q131 0 155 -97q61 97 176 97
q77 0 124.5 -50.5t47.5 -133.5q0 -30 -9 -82h-361q-7 -34 -7 -59q0 -61 36.5 -97.5t98.5 -36.5q110 0 158 119zM352 208l12 55q-14 -15 -46 -22t-133 -17q-55 -5 -85.5 -32t-30.5 -70q0 -40 27.5 -63.5t73.5 -23.5q73 0 125 50q40 39 57 123zM420 277h302q2 14 2 33
q0 64 -33.5 100t-92.5 36q-65 0 -114 -46.5t-64 -122.5z" />
    <glyph glyph-name="ccedilla" unicode="&#xe7;" horiz-adv-x="498" 
d="M479 332h-59q0 56 -31.5 85.5t-89.5 29.5q-86 0 -144 -75t-58 -185q0 -70 36 -111.5t98 -41.5q54 0 98 33.5t61 88.5h60q-26 -86 -86.5 -129.5t-149.5 -39.5l-35 -40q19 4 29 4q34 0 55.5 -18t21.5 -46q0 -32 -29 -54.5t-72 -22.5q-44 0 -92 20l14 28q37 -17 69 -17
q27 0 42.5 11t15.5 31q0 18 -13.5 28.5t-36.5 10.5q-21 0 -38 -9l-15 15l55 62q-44 10 -69.5 26t-44.5 46q-33 51 -33 122q0 125 73 219q74 92 193 92q81 0 128 -43.5t47 -119.5z" />
    <glyph glyph-name="egrave" unicode="&#xe8;" horiz-adv-x="511" 
d="M392 154h60q-23 -80 -79.5 -123.5t-137.5 -43.5q-93 0 -145 54t-52 150q0 129 73.5 216.5t182.5 87.5q87 0 136 -52t49 -144q0 -29 -7 -71h-373q-4 -20 -4 -40q0 -71 37.5 -112.5t102.5 -41.5q56 0 97 31t60 89zM107 277h314q2 22 2 26q0 68 -35 106t-98 38
q-67 0 -115.5 -45.5t-67.5 -124.5zM364 553h-48l-102 134h72z" />
    <glyph glyph-name="eacute" unicode="&#xe9;" horiz-adv-x="511" 
d="M392 154h60q-23 -80 -79.5 -123.5t-137.5 -43.5q-93 0 -145 54t-52 150q0 129 73.5 216.5t182.5 87.5q87 0 136 -52t49 -144q0 -29 -7 -71h-373q-4 -20 -4 -40q0 -71 37.5 -112.5t102.5 -41.5q56 0 97 31t60 89zM107 277h314q2 22 2 26q0 68 -35 106t-98 38
q-67 0 -115.5 -45.5t-67.5 -124.5zM447 687l-136 -134h-50l108 134h78z" />
    <glyph glyph-name="ecircumflex" unicode="&#xea;" horiz-adv-x="511" 
d="M392 154h60q-23 -80 -79.5 -123.5t-137.5 -43.5q-93 0 -145 54t-52 150q0 129 73.5 216.5t182.5 87.5q87 0 136 -52t49 -144q0 -29 -7 -71h-373q-4 -20 -4 -40q0 -71 37.5 -112.5t102.5 -41.5q56 0 97 31t60 89zM107 277h314q2 22 2 26q0 68 -35 106t-98 38
q-67 0 -115.5 -45.5t-67.5 -124.5zM441 553h-54l-51 99l-100 -99h-58l132 134h61z" />
    <glyph glyph-name="edieresis" unicode="&#xeb;" horiz-adv-x="511" 
d="M392 154h60q-23 -80 -79.5 -123.5t-137.5 -43.5q-93 0 -145 54t-52 150q0 129 73.5 216.5t182.5 87.5q87 0 136 -52t49 -144q0 -29 -7 -71h-373q-4 -20 -4 -40q0 -71 37.5 -112.5t102.5 -41.5q56 0 97 31t60 89zM107 277h314q2 22 2 26q0 68 -35 106t-98 38
q-67 0 -115.5 -45.5t-67.5 -124.5zM291 667l-21 -94h-60l21 94h60zM444 667l-20 -94h-60l20 94h60z" />
    <glyph glyph-name="igrave" unicode="&#xec;" horiz-adv-x="204" 
d="M183 481l-102 -481h-57l102 481h57zM205 553h-44l-89 134h68z" />
    <glyph glyph-name="iacute" unicode="&#xed;" horiz-adv-x="204" 
d="M183 481l-102 -481h-57l102 481h57zM301 687l-123 -134h-46l95 134h74z" />
    <glyph glyph-name="icircumflex" unicode="&#xee;" horiz-adv-x="204" 
d="M183 481l-102 -481h-57l102 481h57zM278 553h-50l-32 99l-79 -99h-56l110 134h60z" />
    <glyph glyph-name="idieresis" unicode="&#xef;" horiz-adv-x="204" 
d="M183 481l-102 -481h-57l102 481h57zM168 667l-20 -94h-60l20 94h60zM281 667l-20 -94h-60l20 94h60z" />
    <glyph glyph-name="eth" unicode="&#xf0;" horiz-adv-x="533" 
d="M273 573l72 30l-37 63l41 19l39 -65l79 31l19 -38l-81 -31q92 -152 92 -272q0 -140 -70 -231q-70 -92 -193 -92q-92 0 -142.5 52.5t-50.5 147.5q0 66 22.5 127.5t61.5 104.5q69 75 179 75q37 0 61 -9t50 -33q-20 55 -52 112l-71 -27zM302 446q-90 0 -144 -72
q-61 -82 -61 -179q0 -75 38.5 -117.5t106.5 -42.5q86 0 141 73q25 34 41 87t16 104q0 69 -36.5 108t-101.5 39z" />
    <glyph glyph-name="ntilde" unicode="&#xf1;" horiz-adv-x="529" 
d="M180 481l-19 -90q42 55 85 79t99 24q63 0 100.5 -32t37.5 -87q0 -30 -14 -93l-60 -282h-56l61 288q11 51 11 78q0 37 -26 58.5t-71 21.5q-65 0 -116 -45q-57 -50 -79 -155l-52 -246h-57l102 481h54zM444 664h36q-28 -93 -82 -93q-22 0 -54 18q-56 33 -69 33
q-29 0 -45 -48h-36q12 44 33.5 68.5t48.5 24.5q15 0 28.5 -6t62.5 -34q19 -12 32 -12q28 0 45 49z" />
    <glyph glyph-name="ograve" unicode="&#xf2;" horiz-adv-x="533" 
d="M302 494q92 0 144 -51.5t52 -142.5q0 -60 -20.5 -121.5t-55.5 -105.5q-70 -87 -185 -87q-95 0 -146.5 53.5t-51.5 150.5q0 130 75 217t188 87zM299 446q-85 0 -143.5 -74t-58.5 -182q0 -74 38 -115t106 -41q84 0 141.5 76.5t57.5 188.5q0 68 -38 107.5t-103 39.5z
M381 553h-47l-103 134h72z" />
    <glyph glyph-name="oacute" unicode="&#xf3;" horiz-adv-x="533" 
d="M302 494q92 0 144 -51.5t52 -142.5q0 -60 -20.5 -121.5t-55.5 -105.5q-70 -87 -185 -87q-95 0 -146.5 53.5t-51.5 150.5q0 130 75 217t188 87zM299 446q-85 0 -143.5 -74t-58.5 -182q0 -74 38 -115t106 -41q84 0 141.5 76.5t57.5 188.5q0 68 -38 107.5t-103 39.5z
M468 687l-136 -134h-50l108 134h78z" />
    <glyph glyph-name="ocircumflex" unicode="&#xf4;" horiz-adv-x="533" 
d="M302 494q92 0 144 -51.5t52 -142.5q0 -60 -20.5 -121.5t-55.5 -105.5q-70 -87 -185 -87q-95 0 -146.5 53.5t-51.5 150.5q0 130 75 217t188 87zM299 446q-85 0 -143.5 -74t-58.5 -182q0 -74 38 -115t106 -41q84 0 141.5 76.5t57.5 188.5q0 68 -38 107.5t-103 39.5z
M466 553h-54l-52 99l-99 -99h-59l133 134h60z" />
    <glyph glyph-name="otilde" unicode="&#xf5;" horiz-adv-x="533" 
d="M302 494q92 0 144 -51.5t52 -142.5q0 -60 -20.5 -121.5t-55.5 -105.5q-70 -87 -185 -87q-95 0 -146.5 53.5t-51.5 150.5q0 130 75 217t188 87zM299 446q-85 0 -143.5 -74t-58.5 -182q0 -74 38 -115t106 -41q84 0 141.5 76.5t57.5 188.5q0 68 -38 107.5t-103 39.5z
M455 664h36q-29 -93 -82 -93q-22 0 -53 18q-56 33 -70 33q-28 0 -45 -48h-36q27 93 82 93q15 0 28.5 -6t62.5 -34q21 -12 32 -12q28 0 45 49z" />
    <glyph glyph-name="odieresis" unicode="&#xf6;" horiz-adv-x="533" 
d="M302 494q92 0 144 -51.5t52 -142.5q0 -60 -20.5 -121.5t-55.5 -105.5q-70 -87 -185 -87q-95 0 -146.5 53.5t-51.5 150.5q0 130 75 217t188 87zM299 446q-85 0 -143.5 -74t-58.5 -182q0 -74 38 -115t106 -41q84 0 141.5 76.5t57.5 188.5q0 68 -38 107.5t-103 39.5z
M312 667l-20 -94h-60l20 94h60zM465 667l-20 -94h-60l20 94h60z" />
    <glyph glyph-name="divide" unicode="&#xf7;" horiz-adv-x="547" 
d="M69 346h447v-43h-447v43zM294 513q17 0 30 -13t13 -31t-13 -31t-31 -13q-19 0 -31.5 13t-12.5 31q0 19 13 31.5t32 12.5zM294 222q17 0 30 -13t13 -31t-13 -31t-31 -13t-31 13t-13 31q0 19 13 31.5t32 12.5z" />
    <glyph glyph-name="oslash" unicode="&#xf8;" horiz-adv-x="533" 
d="M526 470l-59 -57q29 -43 29 -112q0 -66 -22 -129t-60 -106q-68 -80 -175 -80q-93 0 -146 49l-62 -60l-27 29l64 63q-30 53 -30 124q0 131 75 217.5t189 86.5q99 0 142 -51l54 54zM114 109l291 300q-42 39 -102 39q-72 0 -124 -50q-37 -36 -59 -92.5t-22 -115.5
q0 -41 16 -81zM426 375l-291 -300q41 -40 107 -40q84 0 138 69q65 86 65 191q0 43 -19 80z" />
    <glyph glyph-name="ugrave" unicode="&#xf9;" horiz-adv-x="526" 
d="M504 481l-102 -481h-54l19 90q-59 -103 -174 -103q-67 0 -105 32.5t-38 89.5q0 34 12 88l60 284h57l-55 -260q-16 -80 -16 -103q0 -38 28 -60.5t74 -22.5q68 0 116.5 51.5t68.5 146.5l53 248h56zM378 553h-47l-103 134h72z" />
    <glyph glyph-name="uacute" unicode="&#xfa;" horiz-adv-x="526" 
d="M504 481l-102 -481h-54l19 90q-59 -103 -174 -103q-67 0 -105 32.5t-38 89.5q0 34 12 88l60 284h57l-55 -260q-16 -80 -16 -103q0 -38 28 -60.5t74 -22.5q68 0 116.5 51.5t68.5 146.5l53 248h56zM461 687l-136 -134h-50l108 134h78z" />
    <glyph glyph-name="ucircumflex" unicode="&#xfb;" horiz-adv-x="526" 
d="M504 481l-102 -481h-54l19 90q-59 -103 -174 -103q-67 0 -105 32.5t-38 89.5q0 34 12 88l60 284h57l-55 -260q-16 -80 -16 -103q0 -38 28 -60.5t74 -22.5q68 0 116.5 51.5t68.5 146.5l53 248h56zM459 553h-54l-52 99l-99 -99h-59l133 134h61z" />
    <glyph glyph-name="udieresis" unicode="&#xfc;" horiz-adv-x="526" 
d="M504 481l-102 -481h-54l19 90q-59 -103 -174 -103q-67 0 -105 32.5t-38 89.5q0 34 12 88l60 284h57l-55 -260q-16 -80 -16 -103q0 -38 28 -60.5t74 -22.5q68 0 116.5 51.5t68.5 146.5l53 248h56zM308 667l-20 -94h-60l20 94h60zM461 667l-20 -94h-60l20 94h60z" />
    <glyph glyph-name="yacute" unicode="&#xfd;" horiz-adv-x="424" 
d="M474 481l-258 -456q-58 -103 -87 -143q-46 -65 -117 -65q-22 0 -50 5l11 50q25 -7 40 -7q26 0 46.5 15.5t43.5 52.5l20 32q23 31 22 33l-1 2l-89 481h61l46 -253q19 -115 24 -161q23 47 71 135l153 279h64zM410 687l-136 -134h-50l109 134h77z" />
    <glyph glyph-name="thorn" unicode="&#xfe;" horiz-adv-x="551" 
d="M221 667l-58 -276q24 47 71.5 75t105.5 28q81 0 128.5 -54.5t47.5 -146.5q0 -67 -24 -131t-65 -107q-65 -68 -160 -68q-67 0 -111.5 33.5t-52.5 89.5l-61 -289h-57l180 846h56zM321 446q-82 0 -137 -72q-26 -35 -43.5 -91.5t-17.5 -108.5q0 -63 38 -101.5t100 -38.5
q65 0 113 46q38 38 60.5 95.5t22.5 118.5q0 72 -36 112t-100 40z" />
    <glyph glyph-name="ydieresis" unicode="&#xff;" horiz-adv-x="424" 
d="M474 481l-258 -456q-58 -103 -87 -143q-46 -65 -117 -65q-22 0 -50 5l11 50q25 -7 40 -7q26 0 46.5 15.5t43.5 52.5l20 32q23 31 22 33l-1 2l-89 481h61l46 -253q19 -115 24 -161q23 47 71 135l153 279h64zM254 667l-20 -94h-60l20 94h60zM407 667l-20 -94h-60l20 94h60z
" />
    <glyph glyph-name="Amacron" unicode="&#x100;" horiz-adv-x="616" 
d="M437 667l121 -667h-66l-35 210h-301l-125 -210h-72l407 667h71zM449 263l-39 219q-13 82 -19 130q-45 -85 -84 -149l-121 -200h263zM573 803l-9 -43h-288l9 43h288z" />
    <glyph glyph-name="amacron" unicode="&#x101;" horiz-adv-x="498" 
d="M133 340h-56q33 154 202 154q80 0 123.5 -30.5t43.5 -85.5q0 -17 -13 -82l-33 -154q-13 -55 -13 -70q0 -31 24 -31q8 0 27 4l-8 -45q-27 -7 -43 -7q-26 0 -41 15t-15 42q0 9 4 25q-65 -88 -176 -88q-68 0 -108 35.5t-40 96.5q0 74 58 115q49 35 178 44q68 4 91.5 10
t34.5 20q17 25 17 71q0 67 -108 67q-64 0 -99.5 -25t-49.5 -81zM359 217l10 43q-13 -13 -40 -18.5t-93 -10.5q-76 -6 -107 -18q-28 -11 -44.5 -35t-16.5 -54q0 -41 29 -65t79 -24q86 0 140 70q26 33 43 112zM453 635l-9 -41h-261l9 41h261z" />
    <glyph glyph-name="Abreve" unicode="&#x102;" horiz-adv-x="616" 
d="M437 667l121 -667h-66l-35 210h-301l-125 -210h-72l407 667h71zM449 263l-39 219q-13 82 -19 130q-45 -85 -84 -149l-121 -200h263zM538 847h36q-13 -56 -54.5 -89t-100.5 -33q-55 0 -85.5 29t-30.5 81v12h36q1 -37 24.5 -58t63.5 -21q76 0 111 79z" />
    <glyph glyph-name="abreve" unicode="&#x103;" horiz-adv-x="498" 
d="M133 340h-56q33 154 202 154q80 0 123.5 -30.5t43.5 -85.5q0 -17 -13 -82l-33 -154q-13 -55 -13 -70q0 -31 24 -31q8 0 27 4l-8 -45q-27 -7 -43 -7q-26 0 -41 15t-15 42q0 9 4 25q-65 -88 -176 -88q-68 0 -108 35.5t-40 96.5q0 74 58 115q49 35 178 44q68 4 91.5 10
t34.5 20q17 25 17 71q0 67 -108 67q-64 0 -99.5 -25t-49.5 -81zM359 217l10 43q-13 -13 -40 -18.5t-93 -10.5q-76 -6 -107 -18q-28 -11 -44.5 -35t-16.5 -54q0 -41 29 -65t79 -24q86 0 140 70q26 33 43 112zM422 684h35q-11 -52 -52 -88t-90 -36q-39 0 -66.5 17.5
t-37.5 48.5q-7 21 -7 58h35v-5q1 -35 23 -56t58 -21q34 0 63 23.5t39 58.5z" />
    <glyph glyph-name="Aogonek" unicode="&#x104;" horiz-adv-x="616" 
d="M437 667l121 -667q-30 -16 -53 -45t-23 -51q0 -17 14.5 -27.5t38.5 -10.5q16 0 41 8l-7 -35q-26 -10 -49 -10q-39 0 -63 19t-24 49q0 53 83 103h-24l-35 210h-301l-125 -210h-72l407 667h71zM449 263l-39 219q-13 82 -19 130q-45 -85 -84 -149l-121 -200h263z" />
    <glyph glyph-name="aogonek" unicode="&#x105;" horiz-adv-x="498" 
d="M438 45l-8 -45q-7 -2 -26 -6q-64 -51 -64 -91q0 -17 14.5 -27t38.5 -10q14 0 41 8l-7 -35q-26 -10 -49 -10q-39 0 -63 19t-24 49q0 54 76 99q-36 12 -36 54q0 9 4 25q-65 -88 -176 -88q-68 0 -108 35.5t-40 96.5q0 74 58 115q49 35 178 44q68 4 91.5 10t34.5 20
q17 25 17 71q0 67 -108 67q-64 0 -99.5 -25t-49.5 -81h-56q33 154 202 154q80 0 123.5 -30.5t43.5 -85.5q0 -17 -13 -82l-33 -154q-13 -55 -13 -70q0 -31 24 -31q8 0 27 4zM359 217l10 43q-13 -13 -40 -18.5t-93 -10.5q-76 -6 -107 -18q-28 -11 -44.5 -35t-16.5 -54
q0 -41 29 -65t79 -24q86 0 140 70q26 33 43 112z" />
    <glyph glyph-name="Cacute" unicode="&#x106;" horiz-adv-x="675" 
d="M574 231h64q-29 -117 -110 -181.5t-197 -64.5q-125 0 -196.5 76t-71.5 208q0 91 33.5 177t90.5 143q96 94 239 94q112 0 180 -61.5t67 -162.5h-62q-4 82 -52.5 126t-134.5 44q-144 0 -227 -127q-70 -105 -70 -230q0 -109 55 -172t149 -63q89 0 152.5 50.5t90.5 143.5z
M571 849l-134 -127h-46l102 127h78z" />
    <glyph glyph-name="cacute" unicode="&#x107;" horiz-adv-x="498" 
d="M391 156h60q-25 -81 -83 -125.5t-139 -44.5q-91 0 -140.5 53t-49.5 148q0 60 21 119.5t56 101.5q74 86 189 86q82 0 127 -42.5t47 -119.5h-58q-1 55 -31.5 84.5t-87.5 29.5q-88 0 -146 -73.5t-58 -183.5q0 -74 35 -114.5t99 -40.5q55 0 97.5 32.5t61.5 89.5zM458 687
l-136 -134h-50l108 134h78z" />
    <glyph glyph-name="Ccircumflex" unicode="&#x108;" horiz-adv-x="675" 
d="M574 231h64q-29 -117 -110 -181.5t-197 -64.5q-125 0 -196.5 76t-71.5 208q0 91 33.5 177t90.5 143q96 94 239 94q112 0 180 -61.5t67 -162.5h-62q-4 82 -52.5 126t-134.5 44q-144 0 -227 -127q-70 -105 -70 -230q0 -109 55 -172t149 -63q89 0 152.5 50.5t90.5 143.5z
M582 722h-54l-61 92l-110 -92h-58l143 127h60z" />
    <glyph glyph-name="Cdotaccent" unicode="&#x10a;" horiz-adv-x="675" 
d="M574 231h64q-29 -117 -110 -181.5t-197 -64.5q-125 0 -196.5 76t-71.5 208q0 91 33.5 177t90.5 143q96 94 239 94q112 0 180 -61.5t67 -162.5h-62q-4 82 -52.5 126t-134.5 44q-144 0 -227 -127q-70 -105 -70 -230q0 -109 55 -172t149 -63q89 0 152.5 50.5t90.5 143.5z
M497 831l-20 -94h-63l20 94h63z" />
    <glyph glyph-name="cdotaccent" unicode="&#x10b;" horiz-adv-x="498" 
d="M391 156h60q-25 -81 -83 -125.5t-139 -44.5q-91 0 -140.5 53t-49.5 148q0 60 21 119.5t56 101.5q74 86 189 86q82 0 127 -42.5t47 -119.5h-58q-1 55 -31.5 84.5t-87.5 29.5q-88 0 -146 -73.5t-58 -183.5q0 -74 35 -114.5t99 -40.5q55 0 97.5 32.5t61.5 89.5zM375 667
l-20 -94h-60l20 94h60z" />
    <glyph glyph-name="Ccaron" unicode="&#x10c;" horiz-adv-x="675" 
d="M574 231h64q-29 -117 -110 -181.5t-197 -64.5q-125 0 -196.5 76t-71.5 208q0 91 33.5 177t90.5 143q96 94 239 94q112 0 180 -61.5t67 -162.5h-62q-4 82 -52.5 126t-134.5 44q-144 0 -227 -127q-70 -105 -70 -230q0 -109 55 -172t149 -63q89 0 152.5 50.5t90.5 143.5z
M329 849h54l62 -92l109 92h58l-142 -127h-61z" />
    <glyph glyph-name="ccaron" unicode="&#x10d;" horiz-adv-x="498" 
d="M391 156h60q-25 -81 -83 -125.5t-139 -44.5q-91 0 -140.5 53t-49.5 148q0 60 21 119.5t56 101.5q74 86 189 86q82 0 127 -42.5t47 -119.5h-58q-1 55 -31.5 84.5t-87.5 29.5q-88 0 -146 -73.5t-58 -183.5q0 -74 35 -114.5t99 -40.5q55 0 97.5 32.5t61.5 89.5zM220 687h54
l52 -99l100 99h58l-133 -134h-60z" />
    <glyph glyph-name="Dcaron" unicode="&#x10e;" horiz-adv-x="661" 
d="M172 667h170q94 0 140.5 -12t83.5 -46q75 -69 75 -210q0 -85 -33 -167t-90 -138q-65 -64 -150 -83q-48 -11 -143 -11h-195zM222 614l-119 -561h136q113 0 166 26q77 37 126 127.5t49 196.5q0 134 -81 183q-46 28 -141 28h-136zM277 849h54l61 -92l110 92h58l-143 -127
h-60z" />
    <glyph glyph-name="dcaron" unicode="&#x10f;" horiz-adv-x="608" 
d="M571 667l-142 -667h-55l19 91q-64 -104 -181 -104q-83 0 -130 51t-47 140q0 56 18.5 113.5t50.5 100.5q75 102 193 102q64 0 105.5 -29.5t51.5 -81.5l60 284h57zM300 446q-88 0 -146.5 -76.5t-58.5 -190.5q0 -68 34.5 -106t96.5 -38q85 0 141 73q28 37 46.5 94.5
t18.5 110.5q0 61 -35.5 97t-96.5 36zM701 667l-14 -65q-10 -49 -31.5 -73t-59.5 -29l6 29q43 15 52 66h-32l16 72h63z" />
    <glyph glyph-name="Dcroat" unicode="&#x110;" horiz-adv-x="661" 
d="M110 375l62 292h170q94 0 140.5 -12t83.5 -46q75 -69 75 -210q0 -85 -33 -167t-90 -138q-65 -64 -150 -83q-48 -11 -143 -11h-195l68 322h-73l11 53h74zM172 375h199l-11 -53h-200l-57 -269h136q113 0 166 26q77 37 126 127.5t49 196.5q0 134 -81 183q-46 28 -141 28
h-136z" />
    <glyph glyph-name="dcroat" unicode="&#x111;" horiz-adv-x="553" 
d="M547 552l-118 -552h-55l19 91q-64 -104 -181 -104q-83 0 -130 51t-47 140q0 56 18.5 113.5t50.5 100.5q75 102 193 102q64 0 105.5 -29.5t51.5 -81.5l36 169h-167l10 47h167l14 68h57l-14 -68h66l-10 -47h-66zM300 446q-88 0 -146.5 -76.5t-58.5 -190.5q0 -68 34.5 -106
t96.5 -38q85 0 141 73q28 37 46.5 94.5t18.5 110.5q0 61 -35.5 97t-96.5 36z" />
    <glyph glyph-name="Emacron" unicode="&#x112;" horiz-adv-x="576" 
d="M620 667l-12 -53h-386l-51 -243h361l-12 -53h-360l-57 -265h396l-12 -53h-457l142 667h448zM569 803l-9 -43h-288l9 43h288z" />
    <glyph glyph-name="emacron" unicode="&#x113;" horiz-adv-x="511" 
d="M392 154h60q-23 -80 -79.5 -123.5t-137.5 -43.5q-93 0 -145 54t-52 150q0 129 73.5 216.5t182.5 87.5q87 0 136 -52t49 -144q0 -29 -7 -71h-373q-4 -20 -4 -40q0 -71 37.5 -112.5t102.5 -41.5q56 0 97 31t60 89zM107 277h314q2 22 2 26q0 68 -35 106t-98 38
q-67 0 -115.5 -45.5t-67.5 -124.5zM462 635l-9 -41h-261l9 41h261z" />
    <glyph glyph-name="Ebreve" unicode="&#x114;" horiz-adv-x="576" 
d="M620 667l-12 -53h-386l-51 -243h361l-12 -53h-360l-57 -265h396l-12 -53h-457l142 667h448zM534 847h36q-13 -56 -54.5 -89t-100.5 -33q-55 0 -85.5 29t-30.5 81v12h36q1 -37 24.5 -58t63.5 -21q76 0 111 79z" />
    <glyph glyph-name="ebreve" unicode="&#x115;" horiz-adv-x="511" 
d="M392 154h60q-23 -80 -79.5 -123.5t-137.5 -43.5q-93 0 -145 54t-52 150q0 129 73.5 216.5t182.5 87.5q87 0 136 -52t49 -144q0 -29 -7 -71h-373q-4 -20 -4 -40q0 -71 37.5 -112.5t102.5 -41.5q56 0 97 31t60 89zM107 277h314q2 22 2 26q0 68 -35 106t-98 38
q-67 0 -115.5 -45.5t-67.5 -124.5zM431 684h35q-11 -52 -52 -88t-90 -36q-53 0 -82.5 29.5t-29.5 83.5v11h35q0 -38 22.5 -60t59.5 -22q33 0 62.5 24t39.5 58z" />
    <glyph glyph-name="Edotaccent" unicode="&#x116;" horiz-adv-x="576" 
d="M620 667l-12 -53h-386l-51 -243h361l-12 -53h-360l-57 -265h396l-12 -53h-457l142 667h448zM458 831l-20 -94h-63l20 94h63z" />
    <glyph glyph-name="edotaccent" unicode="&#x117;" horiz-adv-x="511" 
d="M392 154h60q-23 -80 -79.5 -123.5t-137.5 -43.5q-93 0 -145 54t-52 150q0 129 73.5 216.5t182.5 87.5q87 0 136 -52t49 -144q0 -29 -7 -71h-373q-4 -20 -4 -40q0 -71 37.5 -112.5t102.5 -41.5q56 0 97 31t60 89zM107 277h314q2 22 2 26q0 68 -35 106t-98 38
q-67 0 -115.5 -45.5t-67.5 -124.5zM367 667l-20 -94h-60l20 94h60z" />
    <glyph glyph-name="Eogonek" unicode="&#x118;" horiz-adv-x="576" 
d="M499 53l-12 -53q-30 -17 -52.5 -45.5t-22.5 -50.5q0 -17 14.5 -27.5t37.5 -10.5q16 0 41 8l-6 -35q-26 -10 -50 -10q-38 0 -62 19t-24 49q0 53 83 103h-416l142 667h448l-12 -53h-386l-51 -243h361l-12 -53h-360l-57 -265h396z" />
    <glyph glyph-name="eogonek" unicode="&#x119;" horiz-adv-x="511" 
d="M364 -126l-7 -35q-26 -10 -49 -10q-39 0 -63 19t-24 50q0 26 15.5 46t58.5 50q-34 -7 -63 -7q-91 0 -142.5 54.5t-51.5 149.5q0 129 73.5 216.5t182.5 87.5q87 0 136 -52t49 -144q0 -29 -7 -71h-373q-4 -20 -4 -40q0 -71 37.5 -112.5t102.5 -41.5q56 0 97 31t60 89h60
q-14 -49 -40 -82.5t-85 -80.5q-57 -48 -57 -88q0 -17 14 -27t38 -10q15 0 42 8zM107 277h314q2 22 2 26q0 68 -35 106t-98 38q-67 0 -115.5 -45t-67.5 -125z" />
    <glyph glyph-name="Ecaron" unicode="&#x11a;" horiz-adv-x="576" 
d="M620 667l-12 -53h-386l-51 -243h361l-12 -53h-360l-57 -265h396l-12 -53h-457l142 667h448zM296 849h54l61 -92l110 92h58l-142 -127h-61z" />
    <glyph glyph-name="ecaron" unicode="&#x11b;" horiz-adv-x="511" 
d="M392 154h60q-23 -80 -79.5 -123.5t-137.5 -43.5q-93 0 -145 54t-52 150q0 129 73.5 216.5t182.5 87.5q87 0 136 -52t49 -144q0 -29 -7 -71h-373q-4 -20 -4 -40q0 -71 37.5 -112.5t102.5 -41.5q56 0 97 31t60 89zM107 277h314q2 22 2 26q0 68 -35 106t-98 38
q-67 0 -115.5 -45.5t-67.5 -124.5zM209 687h54l52 -99l100 99h58l-133 -134h-60z" />
    <glyph glyph-name="Gcircumflex" unicode="&#x11c;" horiz-adv-x="717" 
d="M675 340l-72 -340h-42l6 63q2 20 7 50q-47 -67 -105.5 -97.5t-137.5 -30.5q-126 0 -197.5 76t-71.5 209q0 79 25.5 155t69.5 131q103 126 277 126q115 0 181.5 -58t71.5 -161h-62q-7 81 -56 124t-136 43q-130 0 -217 -103.5t-87 -258.5q0 -107 56.5 -168.5t156.5 -61.5
q137 0 212 112q32 48 53 137h-230l11 53h287zM591 722h-54l-62 92l-110 -92h-58l143 127h60z" />
    <glyph glyph-name="gcircumflex" unicode="&#x11d;" horiz-adv-x="544" 
d="M523 481l-89 -418q-15 -70 -27.5 -105t-33.5 -63q-61 -85 -188 -85q-92 0 -139 44q-43 40 -43 95v10h59v-6q0 -41 32 -68t96 -27q85 0 131 53q31 34 52 132l12 54q-54 -91 -164 -91q-81 0 -130.5 53.5t-49.5 140.5q0 123 70.5 208.5t171.5 85.5q68 0 112 -32.5t51 -87.5
l23 107h54zM288 446q-80 0 -134.5 -70.5t-54.5 -173.5q0 -68 36 -108t97 -40q63 0 109 44q36 35 58 92.5t22 118.5q0 63 -36 100t-97 37zM472 553h-54l-52 99l-100 -99h-58l133 134h60z" />
    <glyph glyph-name="Gbreve" unicode="&#x11e;" horiz-adv-x="717" 
d="M675 340l-72 -340h-42l6 63q2 20 7 50q-47 -67 -105.5 -97.5t-137.5 -30.5q-126 0 -197.5 76t-71.5 209q0 79 25.5 155t69.5 131q103 126 277 126q115 0 181.5 -58t71.5 -161h-62q-7 81 -56 124t-136 43q-130 0 -217 -103.5t-87 -258.5q0 -107 56.5 -168.5t156.5 -61.5
q137 0 212 112q32 48 53 137h-230l11 53h287zM581 847h36q-12 -56 -54 -89t-100 -33q-55 0 -85.5 29t-30.5 81v12h35q1 -37 24.5 -58t64.5 -21q76 0 110 79z" />
    <glyph glyph-name="gbreve" unicode="&#x11f;" horiz-adv-x="544" 
d="M523 481l-89 -418q-15 -70 -27.5 -105t-33.5 -63q-61 -85 -188 -85q-92 0 -139 44q-43 40 -43 95v10h59v-6q0 -41 32 -68t96 -27q85 0 131 53q31 34 52 132l12 54q-54 -91 -164 -91q-81 0 -130.5 53.5t-49.5 140.5q0 123 70.5 208.5t171.5 85.5q68 0 112 -32.5t51 -87.5
l23 107h54zM288 446q-80 0 -134.5 -70.5t-54.5 -173.5q0 -68 36 -108t97 -40q63 0 109 44q36 35 58 92.5t22 118.5q0 63 -36 100t-97 37zM459 684h35q-12 -53 -52.5 -88.5t-89.5 -35.5q-53 0 -82.5 29.5t-29.5 82.5v12h35v-6q0 -33 23 -54.5t58 -21.5q34 0 63.5 23.5
t39.5 58.5z" />
    <glyph glyph-name="Gdotaccent" unicode="&#x120;" horiz-adv-x="717" 
d="M675 340l-72 -340h-42l6 63q2 20 7 50q-47 -67 -105.5 -97.5t-137.5 -30.5q-126 0 -197.5 76t-71.5 209q0 79 25.5 155t69.5 131q103 126 277 126q115 0 181.5 -58t71.5 -161h-62q-7 81 -56 124t-136 43q-130 0 -217 -103.5t-87 -258.5q0 -107 56.5 -168.5t156.5 -61.5
q137 0 212 112q32 48 53 137h-230l11 53h287zM507 831l-20 -94h-63l20 94h63z" />
    <glyph glyph-name="gdotaccent" unicode="&#x121;" horiz-adv-x="544" 
d="M523 481l-89 -418q-15 -70 -27.5 -105t-33.5 -63q-61 -85 -188 -85q-92 0 -139 44q-43 40 -43 95v10h59v-6q0 -41 32 -68t96 -27q85 0 131 53q31 34 52 132l12 54q-54 -91 -164 -91q-81 0 -130.5 53.5t-49.5 140.5q0 123 70.5 208.5t171.5 85.5q68 0 112 -32.5t51 -87.5
l23 107h54zM288 446q-80 0 -134.5 -70.5t-54.5 -173.5q0 -68 36 -108t97 -40q63 0 109 44q36 35 58 92.5t22 118.5q0 63 -36 100t-97 37zM391 667l-20 -94h-60l20 94h60z" />
    <glyph glyph-name="Gcommaaccent" unicode="&#x122;" horiz-adv-x="717" 
d="M675 340l-72 -340h-42l6 63q2 20 7 50q-47 -67 -105.5 -97.5t-137.5 -30.5q-126 0 -197.5 76t-71.5 209q0 79 25.5 155t69.5 131q103 126 277 126q115 0 181.5 -58t71.5 -161h-62q-7 81 -56 124t-136 43q-130 0 -217 -103.5t-87 -258.5q0 -107 56.5 -168.5t156.5 -61.5
q137 0 212 112q32 48 53 137h-230l11 53h287zM366 -57l-14 -65q-18 -91 -91 -101l6 29q42 13 52 65h-32l15 72h64z" />
    <glyph glyph-name="gcommaaccent" unicode="&#x123;" horiz-adv-x="544" 
d="M523 481l-89 -418q-15 -70 -27.5 -105t-33.5 -63q-61 -85 -188 -85q-92 0 -139 44q-43 40 -43 95v10h59v-6q0 -41 32 -68t96 -27q85 0 131 53q31 34 52 132l12 54q-54 -91 -164 -91q-81 0 -130.5 53.5t-49.5 140.5q0 123 70.5 208.5t171.5 85.5q68 0 112 -32.5t51 -87.5
l23 107h54zM288 446q-80 0 -134.5 -70.5t-54.5 -173.5q0 -68 36 -108t97 -40q63 0 109 44q36 35 58 92.5t22 118.5q0 63 -36 100t-97 37zM307 554l14 65q10 48 31.5 72t59.5 29l-6 -29q-43 -13 -52 -65h32l-15 -72h-64z" />
    <glyph glyph-name="Hcircumflex" unicode="&#x124;" horiz-adv-x="672" 
d="M683 667l-142 -667h-62l68 322h-387l-68 -322h-62l142 667h62l-62 -292h387l62 292h62zM574 722h-54l-62 92l-109 -92h-58l142 127h61z" />
    <glyph glyph-name="Hbar" unicode="&#x126;" horiz-adv-x="672" 
d="M660 558h73l-11 -53h-73l-108 -505h-62l69 322h-388l-68 -322h-62l107 505h-73l11 53h74l23 109h62l-23 -109h387l23 109h62zM199 505l-27 -130h387l28 130h-388z" />
    <glyph glyph-name="hbar" unicode="&#x127;" horiz-adv-x="531" 
d="M166 667h56l-14 -68h167l-10 -47h-167l-34 -160q35 47 73 71q52 31 111 31q52 0 94 -30t42 -92q0 -26 -13 -90l-60 -282h-57l59 280q13 59 13 82q0 40 -26 62t-72 22q-91 0 -149 -81q-29 -42 -45 -114l-53 -251h-57l117 552h-66l10 47h66z" />
    <glyph glyph-name="Imacron" unicode="&#x12a;" horiz-adv-x="223" 
d="M234 667l-142 -667h-62l142 667h62zM336 803l-9 -43h-208l9 43h208z" />
    <glyph glyph-name="imacron" unicode="&#x12b;" horiz-adv-x="204" 
d="M183 481l-102 -481h-57l102 481h57zM285 635l-9 -41h-195l9 41h195z" />
    <glyph glyph-name="ibreve" unicode="&#x12d;" horiz-adv-x="204" 
d="M183 481l-102 -481h-57l102 481h57zM276 680h35q-17 -53 -53 -86t-77 -33q-43 0 -70 30t-27 78v11h35q-1 -34 18.5 -55.5t49.5 -21.5q34 0 64 36q20 23 25 41z" />
    <glyph glyph-name="Iogonek" unicode="&#x12e;" horiz-adv-x="223" 
d="M234 667l-142 -667q-62 -56 -62 -96q0 -38 40 -38q13 0 30 8l-7 -35q-23 -10 -41 -10q-31 0 -51 19.5t-20 49.5q0 46 76 102h-27l142 667h62z" />
    <glyph glyph-name="iogonek" unicode="&#x12f;" horiz-adv-x="204" 
d="M183 481l-103 -481q-58 -50 -58 -98q0 -36 40 -36q11 0 30 8l-7 -35q-24 -10 -41 -10q-31 0 -50.5 19.5t-19.5 48.5q0 49 76 103h-26l102 481h57zM222 667l-20 -97h-57l21 97h56z" />
    <glyph glyph-name="Idotaccent" unicode="&#x130;" horiz-adv-x="223" 
d="M234 667l-142 -667h-62l142 667h62zM269 831l-20 -94h-63l20 94h63z" />
    <glyph glyph-name="dotlessi" unicode="&#x131;" horiz-adv-x="204" 
d="M183 481l-102 -481h-57l102 481h57z" />
    <glyph glyph-name="IJ" unicode="&#x132;" horiz-adv-x="679" 
d="M234 667l-142 -667h-62l142 667h62zM701 667l-97 -453q-22 -109 -50 -151q-50 -78 -164 -78q-83 0 -128.5 40t-45.5 113q0 36 9 76h61q-9 -54 -9 -75q0 -49 29 -75t84 -26q68 0 106 46q25 31 45 124l98 459h62z" />
    <glyph glyph-name="ij" unicode="&#x133;" horiz-adv-x="395" 
d="M183 481l-102 -481h-57l102 481h57zM222 667l-20 -97h-57l21 97h56zM374 481l-104 -490q-20 -91 -33 -119q-27 -56 -97 -56q-20 0 -44 4l11 49q15 -5 30 -5q38 0 53 34q6 16 25 102l102 481h57zM413 667l-20 -97h-57l21 97h56z" />
    <glyph glyph-name="Kcommaaccent" unicode="&#x136;" horiz-adv-x="619" 
d="M677 667l-340 -279l237 -388h-72l-212 351l-149 -120l-49 -231h-62l142 667h62l-76 -357q26 24 92 78l340 279h87zM296 -57l-14 -65q-10 -48 -31.5 -72t-59.5 -29l6 29q43 13 52 65h-31l15 72h63z" />
    <glyph glyph-name="kcommaaccent" unicode="&#x137;" horiz-adv-x="477" 
d="M222 667l-89 -421l13 11q8 7 26 21l249 203h79l-230 -184l148 -297h-66l-127 261l-107 -86l-37 -175h-57l142 667h56zM219 -57l-14 -65q-10 -48 -31.5 -72t-59.5 -29l6 29q43 13 52 65h-32l16 72h63z" />
    <glyph glyph-name="kgreenlandic" unicode="&#x138;" horiz-adv-x="477" 
d="M183 481l-50 -235q7 5 13 11q8 7 26 21l249 203h79l-230 -185l148 -296h-66l-127 260l-107 -85l-37 -175h-57l102 481h57z" />
    <glyph glyph-name="Lacute" unicode="&#x139;" horiz-adv-x="527" 
d="M234 667l-131 -614h368l-12 -53h-429l142 667h62zM357 849l-134 -127h-46l102 127h78z" />
    <glyph glyph-name="lacute" unicode="&#x13a;" horiz-adv-x="204" 
d="M222 667l-141 -667h-57l142 667h56zM332 849l-116 -127h-46l88 127h74z" />
    <glyph glyph-name="Lcommaaccent" unicode="&#x13b;" horiz-adv-x="527" 
d="M234 667l-131 -614h368l-12 -53h-429l142 667h62zM257 -57l-14 -65q-10 -48 -31.5 -72t-59.5 -29l6 29q43 13 52 65h-32l16 72h63z" />
    <glyph glyph-name="lcommaaccent" unicode="&#x13c;" horiz-adv-x="204" 
d="M222 667l-142 -667h-56l142 667h56zM74 -57l-14 -65q-10 -48 -31.5 -72t-59.5 -29l6 29q43 13 52 65h-32l16 72h63z" />
    <glyph glyph-name="Lcaron" unicode="&#x13d;" horiz-adv-x="527" 
d="M234 667l-131 -614h368l-12 -53h-429l142 667h62zM424 667l-14 -65q-18 -92 -91 -102l6 29q42 14 52 66h-32l15 72h64z" />
    <glyph glyph-name="lcaron" unicode="&#x13e;" horiz-adv-x="259" 
d="M222 667l-141 -667h-57l142 667h56zM352 667l-14 -65q-10 -49 -31.5 -73t-59.5 -29l7 29q42 14 52 66h-32l15 72h63z" />
    <glyph glyph-name="Ldot" unicode="&#x13f;" horiz-adv-x="527" 
d="M234 667l-131 -614h368l-12 -53h-429l142 667h62zM452 397l-24 -113h-86l24 113h86z" />
    <glyph glyph-name="ldot" unicode="&#x140;" horiz-adv-x="291" 
d="M222 667l-141 -667h-57l142 667h56zM325 397l-24 -113h-86l24 113h86z" />
    <glyph glyph-name="Lslash" unicode="&#x141;" horiz-adv-x="527" 
d="M154 292l-51 -239h367l-11 -53h-429l56 267l-84 -52l13 63l85 52l71 337h62l-66 -312l181 113l-13 -63z" />
    <glyph glyph-name="lslash" unicode="&#x142;" horiz-adv-x="204" 
d="M151 332l-70 -332h-57l66 311l-74 -46l12 59l74 45l64 298h56l-59 -277l74 46l-12 -59z" />
    <glyph glyph-name="Nacute" unicode="&#x143;" horiz-adv-x="685" 
d="M696 667l-142 -667h-71l-217 472q-36 80 -52 126q-8 -57 -32 -175l-90 -423h-62l142 667h71l212 -466q48 -111 56 -134q24 135 40 209l83 391h62zM572 849l-133 -127h-46l102 127h77z" />
    <glyph glyph-name="nacute" unicode="&#x144;" horiz-adv-x="529" 
d="M180 481l-19 -90q42 55 85 79t99 24q63 0 100.5 -32t37.5 -87q0 -30 -14 -93l-60 -282h-56l61 288q11 51 11 78q0 37 -26 58.5t-71 21.5q-65 0 -116 -45q-57 -50 -79 -155l-52 -246h-57l102 481h54zM457 687l-137 -134h-50l109 134h78z" />
    <glyph glyph-name="Ncommaaccent" unicode="&#x145;" horiz-adv-x="685" 
d="M696 667l-142 -667h-71l-217 472q-36 80 -52 126q-8 -57 -32 -175l-90 -423h-62l142 667h71l212 -466q48 -111 56 -134q24 135 40 209l83 391h62zM309 -57l-14 -65q-10 -48 -31.5 -72t-59.5 -29l6 29q43 13 52 65h-32l16 72h63z" />
    <glyph glyph-name="ncommaaccent" unicode="&#x146;" horiz-adv-x="529" 
d="M180 481l-19 -90q42 55 85 79t99 24q63 0 100.5 -32t37.5 -87q0 -30 -14 -93l-60 -282h-56l61 288q11 51 11 78q0 37 -26 58.5t-71 21.5q-65 0 -116 -45q-57 -50 -79 -155l-52 -246h-57l102 481h54zM239 -57l-14 -65q-11 -48 -32.5 -72t-58.5 -29l6 29q42 13 52 65h-32
l15 72h64z" />
    <glyph glyph-name="Ncaron" unicode="&#x147;" horiz-adv-x="685" 
d="M696 667l-142 -667h-71l-217 472q-36 80 -52 126q-8 -57 -32 -175l-90 -423h-62l142 667h71l212 -466q48 -111 56 -134q24 135 40 209l83 391h62zM332 849h54l62 -92l109 92h59l-143 -127h-61z" />
    <glyph glyph-name="ncaron" unicode="&#x148;" horiz-adv-x="529" 
d="M180 481l-19 -90q42 55 85 79t99 24q63 0 100.5 -32t37.5 -87q0 -30 -14 -93l-60 -282h-56l61 288q11 51 11 78q0 37 -26 58.5t-71 21.5q-65 0 -116 -45q-57 -50 -79 -155l-52 -246h-57l102 481h54zM219 687h54l52 -99l99 99h59l-133 -134h-61z" />
    <glyph glyph-name="napostrophe" unicode="&#x149;" horiz-adv-x="684" 
d="M240 667l-19 -90q-15 -67 -40 -96.5t-75 -39.5l8 38q30 11 42.5 28.5t21.5 61.5h-34l21 98h75zM335 481l-20 -90q43 55 86 79t98 24q63 0 100.5 -32t37.5 -87q0 -32 -13 -93l-60 -282h-57l61 288q11 50 11 78q0 37 -26 58.5t-70 21.5q-66 0 -117 -45q-56 -49 -79 -155
l-52 -246h-57l103 481h54z" />
    <glyph glyph-name="Eng" unicode="&#x14a;" horiz-adv-x="683" 
d="M234 667l-26 -121q40 49 70 71q85 65 195 65q88 0 137 -39.5t49 -110.5q0 -38 -13 -95l-99 -469q-11 -52 -21 -76t-27 -41q-35 -35 -105 -35q-6 0 -28 2l10 49q11 -1 23 -1q41 0 56.5 18t28.5 82l95 446q14 67 14 102q0 55 -38 85t-106 30q-135 0 -215 -105
q-42 -57 -68 -178l-74 -346h-62l142 667h62z" />
    <glyph glyph-name="eng" unicode="&#x14b;" horiz-adv-x="529" 
d="M180 481l-19 -90q42 55 85 79t99 24q63 0 100.5 -32t37.5 -87q0 -29 -14 -93l-62 -291q-20 -93 -32 -119q-27 -56 -97 -56q-20 0 -44 4l10 49q15 -5 31 -5q39 0 52 34q6 13 26 102l61 288q11 51 11 78q0 37 -26 58.5t-71 21.5q-65 0 -116 -45q-57 -50 -79 -155l-52 -246
h-57l102 481h54z" />
    <glyph glyph-name="Omacron" unicode="&#x14c;" horiz-adv-x="722" 
d="M426 683q126 0 200.5 -76t74.5 -205q0 -85 -27.5 -164t-77.5 -138q-98 -116 -256 -116q-128 0 -201.5 77.5t-73.5 211.5q0 84 27.5 163t76.5 135q98 112 257 112zM423 630q-120 0 -199 -88q-44 -49 -69 -121t-25 -150q0 -108 58 -171.5t156 -63.5q113 0 194 87
q46 50 72 124.5t26 154.5q0 106 -57 167t-156 61zM619 803l-9 -43h-288l9 43h288z" />
    <glyph glyph-name="omacron" unicode="&#x14d;" horiz-adv-x="533" 
d="M302 494q91 0 143.5 -51.5t52.5 -141.5q0 -61 -20.5 -122.5t-55.5 -105.5q-70 -87 -184 -87q-95 0 -147 53t-52 151q0 130 75 217t188 87zM299 446q-85 0 -143.5 -74t-58.5 -182q0 -74 38 -115t106 -41q84 0 141.5 76.5t57.5 188.5q0 68 -38 107.5t-103 39.5zM483 635
l-8 -41h-262l9 41h261z" />
    <glyph glyph-name="Ohungarumlaut" unicode="&#x150;" horiz-adv-x="722" 
d="M426 683q126 0 200.5 -76t74.5 -205q0 -85 -27.5 -164t-77.5 -138q-98 -116 -256 -116q-128 0 -201.5 77.5t-73.5 211.5q0 84 27.5 163t76.5 135q98 112 257 112zM423 630q-120 0 -199 -88q-44 -49 -69 -121t-25 -150q0 -108 58 -171.5t156 -63.5q113 0 194 87
q46 50 72 124.5t26 154.5q0 106 -57 167t-156 61zM513 849l-107 -127h-42l75 127h74zM663 849l-107 -127h-42l75 127h74z" />
    <glyph glyph-name="ohungarumlaut" unicode="&#x151;" horiz-adv-x="533" 
d="M302 494q92 0 144 -51.5t52 -142.5q0 -60 -20.5 -121.5t-55.5 -105.5q-70 -87 -185 -87q-95 0 -146.5 53.5t-51.5 150.5q0 130 75 217t188 87zM299 446q-85 0 -143.5 -74t-58.5 -182q0 -74 38 -115t106 -41q84 0 141.5 76.5t57.5 188.5q0 68 -38 107.5t-103 39.5z
M393 687l-110 -134h-42l81 134h71zM519 687l-109 -134h-43l82 134h70z" />
    <glyph glyph-name="OE" unicode="&#x152;" horiz-adv-x="1002" 
d="M1045 667l-12 -53h-356l-52 -243h329l-11 -53h-329l-56 -265h366l-11 -53h-426l13 59q-63 -74 -181 -74q-121 0 -189 75t-68 208q0 179 101.5 297t255.5 118q89 0 150 -46q33 -25 43 -49l17 79h416zM525 191l65 303l1 11q0 52 -50 88.5t-122 36.5q-124 0 -209.5 -103.5
t-85.5 -255.5q0 -109 53.5 -171.5t147.5 -62.5q75 0 130.5 42.5t69.5 111.5z" />
    <glyph glyph-name="oe" unicode="&#x153;" horiz-adv-x="853" 
d="M739 155h59q-28 -82 -84.5 -125t-136.5 -43q-69 0 -114.5 33.5t-56.5 92.5q-60 -127 -192 -127q-85 0 -132 51t-47 143q0 130 77 222.5t186 92.5q65 0 108 -34t50 -92q28 59 80.5 92t117.5 33q76 0 123 -51t47 -134q0 -35 -10 -81h-358q-8 -32 -8 -59q0 -62 36 -98
t98 -36q110 0 157 120zM291 446q-68 0 -117 -49q-35 -36 -57.5 -96t-22.5 -120q0 -69 34 -108t95 -39q98 0 150 103q17 33 29 85.5t12 91.5q0 63 -32 97.5t-91 34.5zM465 277h300q4 20 4 34q0 62 -34 98.5t-93 36.5q-65 0 -111.5 -44t-65.5 -125z" />
    <glyph glyph-name="Racute" unicode="&#x154;" horiz-adv-x="648" 
d="M170 667h232q103 0 145 -21q80 -41 80 -143q0 -75 -46.5 -126.5t-122.5 -58.5q83 -19 83 -122q0 -26 -5 -90q-2 -36 -2 -45q0 -35 10 -61h-65q-8 23 -8 55q0 16 4 57q5 60 5 84q0 58 -30 79t-114 21h-183l-63 -296h-62zM220 614l-56 -265h191q108 0 153 31q56 43 56 117
q0 71 -55 101q-29 16 -114 16h-175zM524 849l-133 -127h-46l102 127h77z" />
    <glyph glyph-name="racute" unicode="&#x155;" horiz-adv-x="306" 
d="M363 488l-13 -61q-10 2 -24 2q-78 0 -128 -56q-49 -53 -74 -167l-43 -206h-57l102 481h54l-24 -113q25 56 73 89t105 33q5 0 29 -2zM381 687l-136 -134h-50l109 134h77z" />
    <glyph glyph-name="Rcommaaccent" unicode="&#x156;" horiz-adv-x="648" 
d="M170 667h232q103 0 145 -21q80 -41 80 -143q0 -75 -46.5 -126.5t-122.5 -58.5q83 -19 83 -122q0 -26 -5 -90q-2 -36 -2 -45q0 -35 10 -61h-65q-8 23 -8 55q0 16 4 57q5 60 5 84q0 58 -30 79t-114 21h-183l-63 -296h-62zM220 614l-56 -265h191q108 0 153 31q56 43 56 117
q0 71 -55 101q-29 16 -114 16h-175zM291 -57l-14 -65q-10 -48 -31.5 -72t-59.5 -29l6 29q43 13 53 65h-32l15 72h63z" />
    <glyph glyph-name="rcommaaccent" unicode="&#x157;" horiz-adv-x="306" 
d="M363 488l-13 -61q-10 2 -24 2q-77 0 -129 -56q-48 -54 -73 -167l-43 -206h-57l102 481h54l-24 -113q25 56 73 89t105 33q5 0 29 -2zM76 -57l-14 -65q-10 -48 -31.5 -72t-59.5 -29l6 29q43 13 52 65h-32l16 72h63z" />
    <glyph glyph-name="Rcaron" unicode="&#x158;" horiz-adv-x="648" 
d="M170 667h232q103 0 145 -21q80 -41 80 -143q0 -75 -46.5 -126.5t-122.5 -58.5q83 -19 83 -122q0 -26 -5 -90q-2 -36 -2 -45q0 -35 10 -61h-65q-8 23 -8 55q0 16 4 57q5 60 5 84q0 58 -30 79t-114 21h-183l-63 -296h-62zM220 614l-56 -265h191q108 0 153 31q56 43 56 117
q0 71 -55 101q-29 16 -114 16h-175zM281 849h54l62 -92l109 92h59l-143 -127h-61z" />
    <glyph glyph-name="rcaron" unicode="&#x159;" horiz-adv-x="306" 
d="M363 488l-13 -61q-10 2 -24 2q-78 0 -128 -56q-49 -53 -74 -167l-43 -206h-57l102 481h54l-24 -113q25 56 73 89t105 33q5 0 29 -2zM144 687h54l52 -99l99 99h59l-133 -134h-61z" />
    <glyph glyph-name="Sacute" unicode="&#x15a;" horiz-adv-x="582" 
d="M574 474h-60q1 6 1 13q0 139 -174 139q-80 0 -127.5 -34.5t-47.5 -93.5q0 -53 41 -82q36 -25 136 -52q88 -25 125 -51q60 -44 60 -124q0 -91 -70.5 -146t-185.5 -55q-118 0 -183.5 56t-65.5 156v21h61v-15q0 -166 191 -166q85 0 138 40t53 105q0 48 -29 73.5t-110 48.5
q-87 25 -118.5 38.5t-55.5 36.5q-47 44 -47 113q0 84 64 134t171 50q97 0 153 -35q43 -26 62 -62.5t19 -92.5q0 -10 -1 -15zM504 849l-134 -127h-46l102 127h78z" />
    <glyph glyph-name="sacute" unicode="&#x15b;" horiz-adv-x="443" 
d="M413 341h-57q1 4 1 9q0 97 -118 97q-52 0 -83 -21.5t-31 -57.5q0 -38 39 -61q28 -15 91 -39q65 -25 87 -45q41 -35 41 -89q0 -66 -52.5 -106.5t-138.5 -40.5q-88 0 -137 40.5t-49 112.5v17h57q-1 -6 -1 -14q0 -51 35 -79.5t97 -28.5q57 0 92.5 26t35.5 67q0 37 -33 60
q-20 13 -104 47q-63 25 -86 48q-33 31 -33 79q0 60 49 96.5t129 36.5t125 -37t45 -103q0 -8 -1 -14zM409 687l-136 -134h-50l109 134h77z" />
    <glyph glyph-name="Scircumflex" unicode="&#x15c;" horiz-adv-x="582" 
d="M574 474h-60q1 6 1 13q0 139 -174 139q-80 0 -127.5 -34.5t-47.5 -93.5q0 -53 41 -82q36 -25 136 -52q88 -25 125 -51q60 -44 60 -124q0 -91 -70.5 -146t-185.5 -55q-118 0 -183.5 56t-65.5 156v21h61v-15q0 -166 191 -166q85 0 138 40t53 105q0 48 -29 73.5t-110 48.5
q-87 25 -118.5 38.5t-55.5 36.5q-47 44 -47 113q0 84 64 134t171 50q97 0 153 -35q43 -26 62 -62.5t19 -92.5q0 -10 -1 -15zM516 722h-54l-62 92l-110 -92h-58l143 127h60z" />
    <glyph glyph-name="scircumflex" unicode="&#x15d;" horiz-adv-x="443" 
d="M413 341h-57q1 4 1 9q0 97 -118 97q-52 0 -83 -21.5t-31 -57.5q0 -38 39 -61q28 -15 91 -39q65 -25 87 -45q41 -35 41 -89q0 -66 -52.5 -106.5t-138.5 -40.5q-88 0 -137 40.5t-49 112.5v17h57q-1 -6 -1 -14q0 -51 35 -79.5t97 -28.5q57 0 92.5 26t35.5 67q0 37 -33 60
q-20 13 -104 47q-63 25 -86 48q-33 31 -33 79q0 60 49 96.5t129 36.5t125 -37t45 -103q0 -8 -1 -14zM407 553h-54l-52 99l-99 -99h-59l133 134h61z" />
    <glyph glyph-name="Scedilla" unicode="&#x15e;" horiz-adv-x="582" 
d="M250 -11l-36 -42q19 4 30 4q32 0 53 -17.5t21 -44.5q0 -34 -28.5 -56t-72.5 -22q-47 0 -95 21l14 27q44 -17 73 -17q26 0 42 11.5t16 30.5q0 17 -13.5 27.5t-35.5 10.5q-18 0 -39 -8l-15 14l55 63q-74 12 -115 41q-81 57 -81 168v21h61v-15q0 -166 191 -166q85 0 138 40
t53 105q0 48 -29 73.5t-110 48.5q-87 25 -118.5 38.5t-55.5 36.5q-47 42 -47 113q0 84 64 134t171 50q114 0 174 -49t60 -142q0 -9 -1 -14h-60q1 6 1 13q0 139 -174 139q-81 0 -128 -35t-47 -94q0 -52 41 -81q36 -25 137 -52q88 -25 124 -51q60 -44 60 -124
q0 -88 -69.5 -144.5t-179.5 -56.5q-16 0 -29 1z" />
    <glyph glyph-name="scedilla" unicode="&#x15f;" horiz-adv-x="443" 
d="M174 -13l-35 -40q21 3 29 3q34 0 55.5 -18t21.5 -45q0 -32 -29 -54.5t-71 -22.5q-46 0 -92 20l13 28q37 -17 69 -17q26 0 41.5 11.5t15.5 30.5q0 17 -13.5 27.5t-36.5 10.5q-20 0 -37 -8l-15 15l55 62q-46 8 -75 27q-64 39 -64 123v17h57q-1 -6 -1 -14q0 -51 35 -80
t97 -29q57 0 92.5 26t35.5 67q0 37 -33 60q-23 15 -104 48q-65 26 -86 48q-33 31 -33 78q0 61 49 97.5t129 36.5q81 0 125.5 -37t44.5 -104v-13h-58q1 4 1 9q0 97 -118 97q-52 0 -83 -21.5t-31 -57.5q0 -38 39 -61q25 -14 91 -39q62 -24 87 -45q41 -35 41 -90
q0 -64 -52 -105.5t-131 -41.5z" />
    <glyph glyph-name="Scaron" unicode="&#x160;" horiz-adv-x="582" 
d="M574 474h-60q1 6 1 13q0 139 -174 139q-80 0 -127.5 -34.5t-47.5 -93.5q0 -53 41 -82q36 -25 136 -52q88 -25 125 -51q60 -44 60 -124q0 -91 -70.5 -146t-185.5 -55q-118 0 -183.5 56t-65.5 156v21h61v-15q0 -166 191 -166q85 0 138 40t53 105q0 48 -29 73.5t-110 48.5
q-87 25 -118.5 38.5t-55.5 36.5q-47 44 -47 113q0 84 64 134t171 50q97 0 153 -35q43 -26 62 -62.5t19 -92.5q0 -10 -1 -15zM260 849h54l62 -92l110 92h58l-143 -127h-60z" />
    <glyph glyph-name="scaron" unicode="&#x161;" horiz-adv-x="443" 
d="M413 341h-57q1 4 1 9q0 97 -118 97q-52 0 -83 -21.5t-31 -57.5q0 -38 39 -61q28 -15 91 -39q65 -25 87 -45q41 -35 41 -89q0 -66 -52.5 -106.5t-138.5 -40.5q-88 0 -137 40.5t-49 112.5v17h57q-1 -6 -1 -14q0 -51 35 -79.5t97 -28.5q57 0 92.5 26t35.5 67q0 37 -33 60
q-20 13 -104 47q-63 25 -86 48q-33 31 -33 79q0 60 49 96.5t129 36.5t125 -37t45 -103q0 -8 -1 -14zM172 687h54l51 -99l100 99h58l-133 -134h-60z" />
    <glyph glyph-name="Tcommaaccent" unicode="&#x162;" horiz-adv-x="554" 
d="M632 667l-11 -53h-229l-130 -614h-62l130 614h-235l11 53h526zM258 -57l-14 -65q-18 -91 -91 -101l6 29q43 13 52 65h-32l15 72h64z" />
    <glyph glyph-name="tcommaaccent" unicode="&#x163;" horiz-adv-x="274" 
d="M286 481l-10 -49h-101l-62 -291q-10 -46 -10 -59q0 -37 52 -37q23 0 51 7l-11 -51q-27 -4 -55 -4q-95 0 -95 71q0 18 12 73l62 291h-86l11 49h85l31 147h57l-31 -147h100zM124 -57l-14 -65q-10 -48 -31.5 -72t-59.5 -29l6 29q43 13 52 65h-32l16 72h63z" />
    <glyph glyph-name="Tcaron" unicode="&#x164;" horiz-adv-x="554" 
d="M632 667l-11 -53h-229l-130 -614h-62l130 614h-235l11 53h526zM274 849h54l62 -92l109 92h59l-143 -127h-61z" />
    <glyph glyph-name="tcaron" unicode="&#x165;" horiz-adv-x="272" 
d="M286 481l-10 -49h-101l-62 -291q-10 -46 -10 -59q0 -37 52 -37q23 0 51 7l-11 -51q-27 -4 -56 -4q-94 0 -94 71q0 22 11 73l62 291h-85l10 49h86l31 147h57l-32 -147h101zM365 704l-14 -65q-10 -48 -31.5 -72t-59.5 -29l6 29q43 13 53 65h-32l15 72h63z" />
    <glyph glyph-name="Tbar" unicode="&#x166;" horiz-adv-x="554" 
d="M632 667l-11 -53h-229l-44 -211h166l-11 -53h-167l-74 -350h-62l74 350h-166l11 53h167l44 211h-235l11 53h526z" />
    <glyph glyph-name="tbar" unicode="&#x167;" horiz-adv-x="274" 
d="M286 481l-10 -49h-101l-20 -93h91l-10 -47h-91l-32 -151q-10 -46 -10 -59q0 -37 52 -37q22 0 51 7l-11 -51q-27 -4 -56 -4q-94 0 -94 71q0 18 11 73l32 151h-75l10 47h75l20 93h-85l10 49h86l31 147h56l-31 -147h101z" />
    <glyph glyph-name="utilde" unicode="&#x169;" horiz-adv-x="526" 
d="M504 481l-102 -481h-54l19 90q-59 -103 -174 -103q-67 0 -105 32.5t-38 89.5q0 34 12 88l60 284h57l-55 -260q-16 -80 -16 -103q0 -38 28 -60.5t74 -22.5q68 0 116.5 51.5t68.5 146.5l53 248h56zM451 664h36q-29 -93 -82 -93q-22 0 -53 18q-56 33 -69 33q-28 0 -46 -48
h-36q27 93 83 93q15 0 28.5 -6t61.5 -34q21 -12 33 -12q27 0 44 49z" />
    <glyph glyph-name="Umacron" unicode="&#x16a;" horiz-adv-x="660" 
d="M681 667l-86 -408q-16 -72 -28 -106.5t-31 -62.5q-71 -103 -233 -103q-108 0 -172.5 52t-64.5 138q0 38 13 102l83 388h62l-85 -396q-12 -60 -12 -89q0 -67 46.5 -105t127.5 -38q132 0 187 86q25 38 46 138l86 404h61zM594 803l-9 -43h-288l9 43h288z" />
    <glyph glyph-name="umacron" unicode="&#x16b;" horiz-adv-x="526" 
d="M504 481l-102 -481h-54l19 90q-59 -103 -174 -103q-67 0 -105 32.5t-38 89.5q0 34 12 88l60 284h57l-55 -260q-16 -80 -16 -103q0 -38 28 -60.5t74 -22.5q68 0 116.5 51.5t68.5 146.5l53 248h56zM476 635l-9 -41h-261l9 41h261z" />
    <glyph glyph-name="ubreve" unicode="&#x16d;" horiz-adv-x="526" 
d="M504 481l-102 -481h-54l19 90q-59 -103 -174 -103q-67 0 -105 32.5t-38 89.5q0 34 12 88l60 284h57l-55 -260q-16 -80 -16 -103q0 -38 28 -60.5t74 -22.5q68 0 116.5 51.5t68.5 146.5l53 248h56zM449 684h35q-10 -42 -41 -76q-42 -48 -101 -48q-54 0 -83 29.5t-29 84.5
v10h35q0 -37 22 -59.5t59 -22.5q34 0 63.5 23.5t39.5 58.5z" />
    <glyph glyph-name="Uring" unicode="&#x16e;" horiz-adv-x="660" 
d="M681 667l-86 -408q-16 -72 -28 -106.5t-31 -62.5q-71 -103 -233 -103q-108 0 -172.5 52t-64.5 138q0 38 13 102l83 388h62l-85 -396q-12 -60 -12 -89q0 -67 46.5 -105t127.5 -38q132 0 187 86q25 38 46 138l86 404h61zM448 895q38 0 65.5 -28t27.5 -67q0 -40 -27.5 -67.5
t-67.5 -27.5t-67.5 28t-27.5 68q0 39 28.5 66.5t68.5 27.5zM447 856q-24 0 -40.5 -16t-16.5 -39q0 -24 16.5 -40.5t39.5 -16.5t39.5 16.5t16.5 39.5t-16.5 39.5t-38.5 16.5z" />
    <glyph glyph-name="uring" unicode="&#x16f;" horiz-adv-x="526" 
d="M504 481l-102 -481h-54l19 90q-59 -103 -174 -103q-67 0 -105 32.5t-38 89.5q0 34 12 88l60 284h57l-55 -260q-16 -80 -16 -103q0 -38 28 -60.5t74 -22.5q68 0 116.5 51.5t68.5 146.5l53 248h56zM339 720q38 0 65 -27.5t27 -65.5t-27.5 -65.5t-65.5 -27.5
q-39 0 -66.5 27.5t-27.5 66.5q0 38 27.5 65t67.5 27zM338 681q-23 0 -39 -15.5t-16 -37.5q0 -23 16 -39t39 -16q22 0 38 16t16 38t-16 38t-38 16z" />
    <glyph glyph-name="Uhungarumlaut" unicode="&#x170;" horiz-adv-x="660" 
d="M681 667l-86 -408q-16 -72 -28 -106.5t-31 -62.5q-71 -103 -233 -103q-108 0 -172.5 52t-64.5 138q0 38 13 102l83 388h62l-85 -396q-12 -60 -12 -89q0 -67 46.5 -105t127.5 -38q132 0 187 86q25 38 46 138l86 404h61zM485 849l-107 -127h-43l76 127h74zM635 849
l-107 -127h-43l76 127h74z" />
    <glyph glyph-name="uhungarumlaut" unicode="&#x171;" horiz-adv-x="526" 
d="M504 481l-102 -481h-54l19 90q-59 -103 -174 -103q-67 0 -105 32.5t-38 89.5q0 34 12 88l60 284h57l-55 -260q-16 -80 -16 -103q0 -38 28 -60.5t74 -22.5q68 0 116.5 51.5t68.5 146.5l53 248h56zM386 687l-110 -134h-42l81 134h71zM512 687l-109 -134h-43l81 134h71z" />
    <glyph glyph-name="Uogonek" unicode="&#x172;" horiz-adv-x="660" 
d="M452 -126l-7 -35q-26 -10 -49 -10q-39 0 -63 19t-24 49q0 29 18 51.5t59 46.5q-39 -8 -79 -8q-112 0 -176.5 51t-64.5 139q0 38 13 102l83 388h62l-85 -396q-12 -60 -12 -89q0 -67 46.5 -105t127.5 -38q132 0 187 86q25 37 46 138l86 404h61l-86 -408
q-23 -111 -51 -157.5t-101 -92.5q-85 -58 -85 -105q0 -17 14.5 -27.5t37.5 -10.5q15 0 42 8z" />
    <glyph glyph-name="uogonek" unicode="&#x173;" horiz-adv-x="526" 
d="M504 481l-102 -481q-76 -53 -76 -96q0 -17 14.5 -27.5t38.5 -10.5q16 0 41 8l-7 -35q-26 -10 -49 -10q-39 0 -63 19t-24 50q0 56 90 102h-19l19 90q-59 -103 -174 -103q-67 0 -105 32.5t-38 89.5q0 34 12 88l60 284h57l-55 -260q-16 -80 -16 -103q0 -38 28 -60.5
t74 -22.5q68 0 116.5 51.5t68.5 146.5l53 248h56z" />
    <glyph glyph-name="Wcircumflex" unicode="&#x174;" horiz-adv-x="870" 
d="M948 667l-317 -667h-69l-36 449q-10 118 -11 159q-44 -101 -78 -171l-212 -437h-70l-50 667h63l29 -419q7 -114 7 -158q0 -13 -1 -24q16 40 79 174l207 427h74l33 -394q10 -121 13 -202q18 50 86 199l187 397h66zM675 722h-54l-62 92l-109 -92h-59l143 127h61z" />
    <glyph glyph-name="Ycircumflex" unicode="&#x176;" horiz-adv-x="558" 
d="M656 667l-332 -397l-58 -270h-62l59 276l-178 391h68l107 -242q22 -49 42 -98q34 46 67 85l211 255h76zM512 722h-54l-62 92l-109 -92h-58l142 127h61z" />
    <glyph glyph-name="ycircumflex" unicode="&#x177;" horiz-adv-x="424" 
d="M474 481l-258 -456q-58 -103 -87 -143q-46 -65 -117 -65q-22 0 -50 5l11 50q25 -7 40 -7q26 0 46.5 15.5t43.5 52.5l20 32q23 31 22 33l-1 2l-89 481h61l46 -253q19 -115 24 -161q23 47 71 135l153 279h64zM408 553h-54l-52 99l-99 -99h-58l132 134h61z" />
    <glyph glyph-name="Ydieresis" unicode="&#x178;" horiz-adv-x="558" 
d="M656 667l-332 -397l-58 -270h-62l59 276l-178 391h68l107 -242q22 -49 42 -98q34 46 67 85l211 255h76zM337 831l-20 -94h-63l20 94h63zM523 831l-20 -94h-63l20 94h63z" />
    <glyph glyph-name="Zacute" unicode="&#x179;" horiz-adv-x="572" 
d="M608 667l-12 -53l-472 -501l-41 -41l-14 -14l-6 -5q7 -1 14 -1l77 1h355l-12 -53h-519l12 56l462 487q28 29 71 71q-11 1 -24 1q-7 0 -40 -1h-341l11 53h479zM506 849l-133 -127h-46l102 127h77z" />
    <glyph glyph-name="zacute" unicode="&#x17a;" horiz-adv-x="417" 
d="M441 481l-9 -45l-316 -327q-47 -47 -64 -62q52 2 107 2h208l-11 -49h-383l10 48l309 318q19 19 29 30q18 16 26 25q6 5 11 11h-109h-180l10 49h362zM406 687l-136 -134h-50l109 134h77z" />
    <glyph glyph-name="Zdotaccent" unicode="&#x17b;" horiz-adv-x="572" 
d="M608 667l-12 -53l-472 -501l-41 -41l-14 -14l-6 -5q7 -1 14 -1l77 1h355l-12 -53h-519l12 56l462 487q28 29 71 71q-11 1 -24 1q-7 0 -40 -1h-341l11 53h479zM431 831l-20 -94h-63l20 94h63z" />
    <glyph glyph-name="zdotaccent" unicode="&#x17c;" horiz-adv-x="417" 
d="M441 481l-9 -45l-316 -327q-47 -47 -64 -62q52 2 107 2h208l-11 -49h-383l10 48l309 318q19 19 29 30q18 16 26 25q6 5 11 11h-109h-180l10 49h362zM326 667l-20 -94h-60l20 94h60z" />
    <glyph glyph-name="Zcaron" unicode="&#x17d;" horiz-adv-x="572" 
d="M608 667l-12 -53l-472 -501l-41 -41l-14 -14l-6 -5q7 -1 14 -1l77 1h355l-12 -53h-519l12 56l462 487q28 29 71 71q-11 1 -24 1q-7 0 -40 -1h-341l11 53h479zM263 849h54l62 -92l109 92h59l-143 -127h-61z" />
    <glyph glyph-name="zcaron" unicode="&#x17e;" horiz-adv-x="417" 
d="M441 481l-9 -45l-316 -327q-47 -47 -64 -62q52 2 107 2h208l-11 -49h-383l10 48l309 318q19 19 29 30q18 16 26 25q6 5 11 11h-109h-180l10 49h362zM169 687h54l52 -99l99 99h58l-132 -134h-61z" />
    <glyph glyph-name="florin" unicode="&#x192;" horiz-adv-x="547" 
d="M460 436l-13 -47h-108l-104 -392q-27 -101 -53 -132q-35 -45 -109 -45q-22 0 -46 4l13 49q20 -3 32 -3q43 0 63 25t41 105l103 389h-94l12 47h95l34 131q22 83 56 115t99 32q20 0 57 -5l-12 -50q-23 4 -42 4q-43 0 -64 -22.5t-38 -87.5l-31 -117h109z" />
    <glyph glyph-name="uni01CD" unicode="&#x1cd;" horiz-adv-x="616" 
d="M437 667l121 -667h-66l-35 210h-301l-125 -210h-72l407 667h71zM449 263l-39 219q-13 82 -19 130q-45 -85 -84 -149l-121 -200h263zM299 849h54l61 -92l110 92h58l-142 -127h-61z" />
    <glyph glyph-name="uni01CE" unicode="&#x1ce;" horiz-adv-x="498" 
d="M133 340h-56q33 154 202 154q80 0 123.5 -30.5t43.5 -85.5q0 -17 -13 -82l-33 -154q-13 -55 -13 -70q0 -31 24 -31q8 0 27 4l-8 -45q-27 -7 -43 -7q-26 0 -41 15t-15 42q0 9 4 25q-65 -88 -176 -88q-68 0 -108 35.5t-40 96.5q0 74 58 115q49 35 178 44q68 4 91.5 10
t34.5 20q17 25 17 71q0 67 -108 67q-64 0 -99.5 -25t-49.5 -81zM359 217l10 43q-13 -13 -40 -18.5t-93 -10.5q-76 -6 -107 -18q-28 -11 -44.5 -35t-16.5 -54q0 -41 29 -65t79 -24q86 0 140 70q26 33 43 112zM202 687h54l52 -99l99 99h58l-132 -134h-61z" />
    <glyph glyph-name="uni01D1" unicode="&#x1d1;" horiz-adv-x="263" 
d="M158 574l20 93h70l-20 -93h-70zM40 0l44 206l76 294h35l-48 -294l-44 -206h-63z" />
    <glyph glyph-name="uni01D3" unicode="&#x1d3;" horiz-adv-x="660" 
d="M681 667l-86 -408q-16 -72 -28 -106.5t-31 -62.5q-71 -103 -233 -103q-108 0 -172.5 52t-64.5 138q0 38 13 102l83 388h62l-85 -396q-12 -60 -12 -89q0 -67 46.5 -105t127.5 -38q132 0 187 86q25 38 46 138l86 404h61zM320 849h54l62 -92l109 92h58l-142 -127h-61z" />
    <glyph glyph-name="uni01D4" unicode="&#x1d4;" horiz-adv-x="526" 
d="M504 481l-102 -481h-54l19 90q-59 -103 -174 -103q-67 0 -105 32.5t-38 89.5q0 34 12 88l60 284h57l-55 -260q-16 -80 -16 -103q0 -38 28 -60.5t74 -22.5q68 0 116.5 51.5t68.5 146.5l53 248h56zM229 687h54l52 -99l99 99h58l-132 -134h-61z" />
    <glyph glyph-name="Gcaron" unicode="&#x1e6;" horiz-adv-x="717" 
d="M675 340l-72 -340h-42l6 63q2 20 7 50q-47 -67 -105.5 -97.5t-137.5 -30.5q-126 0 -197.5 76t-71.5 209q0 79 25.5 155t69.5 131q103 126 277 126q115 0 181.5 -58t71.5 -161h-62q-7 81 -56 124t-136 43q-130 0 -217 -103.5t-87 -258.5q0 -107 56.5 -168.5t156.5 -61.5
q137 0 212 112q32 48 53 137h-230l11 53h287zM342 849h54l62 -92l109 92h59l-143 -127h-61z" />
    <glyph glyph-name="gcaron" unicode="&#x1e7;" horiz-adv-x="544" 
d="M523 481l-89 -418q-15 -70 -27.5 -105t-33.5 -63q-61 -85 -188 -85q-92 0 -139 44q-43 40 -43 95v10h59v-6q0 -41 32 -68t96 -27q85 0 131 53q31 34 52 132l12 54q-54 -91 -164 -91q-81 0 -130.5 53.5t-49.5 140.5q0 123 70.5 208.5t171.5 85.5q68 0 112 -32.5t51 -87.5
l23 107h54zM288 446q-80 0 -134.5 -70.5t-54.5 -173.5q0 -68 36 -108t97 -40q63 0 109 44q36 35 58 92.5t22 118.5q0 63 -36 100t-97 37zM236 687h54l52 -99l100 99h58l-133 -134h-60z" />
    <glyph glyph-name="uni01F4" unicode="&#x1f4;" horiz-adv-x="717" 
d="M675 340l-72 -340h-42l6 63q2 20 7 50q-47 -67 -105.5 -97.5t-137.5 -30.5q-126 0 -197.5 76t-71.5 209q0 79 25.5 155t69.5 131q103 126 277 126q115 0 181.5 -58t71.5 -161h-62q-7 81 -56 124t-136 43q-130 0 -217 -103.5t-87 -258.5q0 -107 56.5 -168.5t156.5 -61.5
q137 0 212 112q32 48 53 137h-230l11 53h287zM579 849l-134 -127h-46l102 127h78z" />
    <glyph glyph-name="Scommaaccent" unicode="&#x218;" horiz-adv-x="582" 
d="M574 474h-60q1 6 1 13q0 139 -174 139q-81 0 -128 -35t-47 -94q0 -52 41 -81q36 -25 137 -52q88 -25 124 -51q60 -44 60 -124q0 -91 -70 -146t-186 -55q-118 0 -183.5 56t-65.5 156v21h61v-15q0 -166 191 -166q85 0 138 40t53 105q0 48 -29 73.5t-110 48.5
q-87 25 -118.5 38.5t-55.5 36.5q-47 42 -47 113q0 84 64 134t171 50q114 0 174 -49t60 -142q0 -9 -1 -14zM275 -57l-14 -65q-18 -91 -91 -101l6 29q43 13 52 65h-32l15 72h64z" />
    <glyph glyph-name="scommaaccent" unicode="&#x219;" horiz-adv-x="443" 
d="M414 341h-58q1 4 1 9q0 97 -118 97q-52 0 -83 -21.5t-31 -57.5q0 -38 39 -61q19 -10 91 -39q65 -25 87 -45q41 -35 41 -89q0 -66 -52.5 -106.5t-138.5 -40.5q-88 0 -137 40.5t-49 112.5v17h57q-1 -6 -1 -14q0 -51 35 -79.5t97 -28.5q57 0 92.5 26t35.5 67q0 37 -33 60
q-21 13 -104 47q-63 25 -86 48q-33 31 -33 79q0 60 49 96.5t129 36.5q81 0 125.5 -37t44.5 -104v-13zM201 -57l-14 -65q-10 -48 -31.5 -72t-59.5 -29l6 29q43 13 52 65h-32l16 72h63z" />
    <glyph glyph-name="uni021A" unicode="&#x21a;" horiz-adv-x="554" 
d="M632 667l-11 -53h-229l-130 -614h-62l130 614h-235l11 53h526zM258 -57l-14 -65q-18 -91 -91 -101l6 29q43 13 52 65h-32l15 72h64z" />
    <glyph glyph-name="uni021B" unicode="&#x21b;" horiz-adv-x="274" 
d="M286 481l-10 -49h-101l-62 -291q-10 -46 -10 -59q0 -37 52 -37q23 0 51 7l-11 -51q-27 -4 -55 -4q-95 0 -95 71q0 18 12 73l62 291h-86l11 49h85l31 147h57l-31 -147h100zM124 -57l-14 -65q-10 -48 -31.5 -72t-59.5 -29l6 29q43 13 52 65h-32l16 72h63z" />
    <glyph glyph-name="afii57929" unicode="&#x2bc;" horiz-adv-x="222" 
d="M240 667l-19 -90q-15 -67 -40 -96.5t-75 -39.5l8 38q30 11 42.5 28.5t21.5 61.5h-34l21 98h75z" />
    <glyph glyph-name="circumflex" unicode="&#x2c6;" 
d="M450 553h-54l-52 99l-100 -99h-58l133 134h60z" />
    <glyph glyph-name="caron" unicode="&#x2c7;" 
d="M214 687h54l52 -99l99 99h59l-133 -134h-61z" />
    <glyph glyph-name="uni02C9" unicode="&#x2c9;" 
d="M467 635l-9 -41h-261l9 41h261z" />
    <glyph glyph-name="breve" unicode="&#x2d8;" 
d="M437 684h34q-11 -53 -51.5 -88.5t-89.5 -35.5q-53 0 -82.5 29.5t-29.5 83.5v11h35q1 -38 22.5 -60t58.5 -22q34 0 63 23.5t40 58.5z" />
    <glyph glyph-name="dotaccent" unicode="&#x2d9;" 
d="M372 667l-20 -94h-60l20 94h60z" />
    <glyph glyph-name="ring" unicode="&#x2da;" 
d="M316 720q38 0 65 -27.5t27 -65.5t-27.5 -65.5t-65.5 -27.5q-39 0 -66.5 27.5t-27.5 66.5q0 38 27.5 65t67.5 27zM315 681q-23 0 -39 -16t-16 -38q0 -23 16 -38.5t39 -15.5t38.5 15.5t15.5 38.5q0 22 -16 38t-38 16z" />
    <glyph glyph-name="ogonek" unicode="&#x2db;" 
d="M286 0h41q-34 -20 -54.5 -46.5t-20.5 -49.5q0 -17 14.5 -27.5t37.5 -10.5q16 0 41 8l-6 -35q-26 -10 -49 -10q-39 0 -63 19t-24 49q0 54 83 103z" />
    <glyph glyph-name="tilde" unicode="&#x2dc;" 
d="M439 664h36q-29 -93 -82 -93q-22 0 -54 18q-56 33 -69 33q-28 0 -45 -48h-36q27 93 82 93q15 0 28.5 -6t62.5 -34q21 -12 32 -12q28 0 45 49z" />
    <glyph glyph-name="hungarumlaut" unicode="&#x2dd;" 
d="M373 687l-109 -134h-43l81 134h71zM500 687l-110 -134h-42l81 134h71z" />
    <glyph glyph-name="uni0387" unicode="&#x387;" horiz-adv-x="223" 
d="M163 297l-21 -100h-77l21 100h77z" />
    <glyph glyph-name="Wacute" unicode="&#x1e82;" horiz-adv-x="282" 
d="M260 273l-11 -53h-222l11 53h222z" />
    <glyph glyph-name="Wdieresis" unicode="&#x1e84;" horiz-adv-x="870" 
d="M948 667l-317 -667h-69l-36 449q-10 118 -11 159q-44 -101 -78 -171l-212 -437h-70l-50 667h63l29 -419q7 -114 7 -158q0 -13 -1 -24q16 40 79 174l207 427h74l33 -394q10 -121 13 -202q18 50 86 199l187 397h66zM497 831l-20 -94h-64l20 94h64zM683 831l-20 -94h-63
l20 94h63z" />
    <glyph glyph-name="uni2002" unicode="&#x2002;" 
 />
    <glyph glyph-name="uni2003" unicode="&#x2003;" horiz-adv-x="1000" 
 />
    <glyph glyph-name="uni2004" unicode="&#x2004;" horiz-adv-x="333" 
 />
    <glyph glyph-name="uni2005" unicode="&#x2005;" horiz-adv-x="250" 
 />
    <glyph glyph-name="uni2006" unicode="&#x2006;" horiz-adv-x="67" 
 />
    <glyph glyph-name="uni2007" unicode="&#x2007;" horiz-adv-x="547" 
 />
    <glyph glyph-name="uni2009" unicode="&#x2009;" horiz-adv-x="125" 
 />
    <glyph glyph-name="uni200A" unicode="&#x200a;" horiz-adv-x="33" 
 />
    <glyph glyph-name="uni2011" unicode="&#x2011;" horiz-adv-x="222" 
d="M230 273l-11 -53h-222l11 53h222z" />
    <glyph glyph-name="figuredash" unicode="&#x2012;" horiz-adv-x="547" 
d="M496 273v-53h-440v53h440z" />
    <glyph glyph-name="endash" unicode="&#x2013;" horiz-adv-x="547" 
d="M496 273v-53h-440v53h440z" />
    <glyph glyph-name="emdash" unicode="&#x2014;" horiz-adv-x="665" 
d="M661 273v-53h-653v53h653z" />
    <glyph glyph-name="afii00208" unicode="&#x2015;" horiz-adv-x="665" 
d="M661 273v-53h-653v53h653z" />
    <glyph glyph-name="underscoredbl" unicode="&#x2017;" 
d="M21 -61h500v-32h-500v32zM21 -177h500v-33h-500v33z" />
    <glyph glyph-name="quoteleft" unicode="&#x2018;" horiz-adv-x="222" 
d="M120 454l19 90q15 67 40 96.5t75 39.5l-8 -38q-30 -10 -42.5 -28t-22.5 -62h35l-21 -98h-75z" />
    <glyph glyph-name="quoteright" unicode="&#x2019;" horiz-adv-x="222" 
d="M240 667l-19 -90q-15 -67 -40 -96.5t-75 -39.5l8 38q30 11 42.5 28.5t21.5 61.5h-34l21 98h75z" />
    <glyph glyph-name="quotesinglbase" unicode="&#x201a;" horiz-adv-x="222" 
d="M120 98l-19 -90q-15 -67 -40 -96.5t-75 -39.5l8 38q30 11 42.5 28.5t21.5 61.5h-34l21 98h75z" />
    <glyph glyph-name="quotedblleft" unicode="&#x201c;" horiz-adv-x="361" 
d="M264 458l19 89q13 65 38 95t72 38l-8 -37q-28 -10 -41 -29t-21 -62h32l-20 -94h-71zM121 458l19 89q14 65 39.5 95.5t71.5 37.5l-8 -37q-29 -10 -42 -29t-21 -62h33l-20 -94h-72z" />
    <glyph glyph-name="quotedblright" unicode="&#x201d;" horiz-adv-x="361" 
d="M237 667l-19 -89q-14 -65 -39.5 -95.5t-71.5 -37.5l8 37q28 10 41.5 29t21.5 62h-33l20 94h72zM379 667l-19 -89q-14 -66 -39 -96t-71 -37l8 37q28 10 41.5 29t21.5 62h-33l20 94h71z" />
    <glyph glyph-name="quotedblbase" unicode="&#x201e;" horiz-adv-x="361" 
d="M115 94l-19 -89q-14 -65 -39.5 -95.5t-71.5 -37.5l8 37q28 10 41.5 29t21.5 62h-33l20 94h72zM257 94l-19 -89q-14 -66 -39 -96t-71 -37l8 37q28 10 41.5 29t21.5 62h-33l20 94h71z" />
    <glyph glyph-name="dagger" unicode="&#x2020;" horiz-adv-x="547" 
d="M393 667l-44 -207h187l-10 -49h-187l-126 -590h-57l126 590h-187l10 49h187l44 207h57z" />
    <glyph glyph-name="daggerdbl" unicode="&#x2021;" horiz-adv-x="547" 
d="M393 667l-44 -207h188l-11 -49h-188l-71 -336h188l-11 -49h-188l-43 -205h-57l44 205h-186l10 49h186l72 336h-186l10 49h186l44 207h57z" />
    <glyph glyph-name="bullet" unicode="&#x2022;" horiz-adv-x="667" 
d="M358 477q55 0 95.5 -41t40.5 -97q0 -58 -40.5 -98.5t-97.5 -40.5t-98 40.5t-41 97.5q0 58 41 98.5t100 40.5z" />
    <glyph glyph-name="ellipsis" unicode="&#x2026;" horiz-adv-x="670" 
d="M121 100l-21 -100h-77l21 100h77zM344 100l-21 -100h-77l22 100h76zM568 100l-22 -100h-76l21 100h77z" />
    <glyph glyph-name="perthousand" unicode="&#x2030;" horiz-adv-x="1035" 
d="M661 682l-533 -712h-50l533 712h50zM259 663q56 0 86.5 -33t30.5 -94q0 -80 -46 -135t-114 -55q-56 0 -88 33t-32 90q0 44 17 88t45 69q39 37 101 37zM254 623q-47 0 -78.5 -44.5t-31.5 -111.5q0 -39 19.5 -60.5t54.5 -21.5q42 0 68 33q40 50 40 125q0 80 -72 80z
M527 306q56 0 87.5 -32.5t31.5 -89.5q0 -43 -15.5 -85.5t-41.5 -68.5q-41 -41 -106 -41q-55 0 -86 32.5t-31 90.5q0 83 46 138.5t115 55.5zM523 266q-39 0 -66 -29q-18 -20 -30.5 -57t-12.5 -71q0 -39 19.5 -60.5t54.5 -21.5q46 0 77 44t31 108q0 41 -19 64t-54 23zM859 306
q56 0 87.5 -31.5t31.5 -88.5q0 -86 -46 -141t-117 -55q-55 0 -86.5 33t-31.5 91q0 43 17.5 86.5t43.5 68.5q40 37 101 37zM857 266q-48 0 -79.5 -45t-31.5 -113q0 -38 19.5 -58.5t54.5 -20.5q39 0 64 28q45 50 45 124q0 40 -19 62.5t-53 22.5z" />
    <glyph glyph-name="guilsinglleft" unicode="&#x2039;" horiz-adv-x="238" 
d="M209 395l-14 -64l-108 -79l71 -96l-12 -58l-98 131l13 60z" />
    <glyph glyph-name="guilsinglright" unicode="&#x203a;" horiz-adv-x="238" 
d="M97 395l98 -131l-13 -59l-148 -107l14 65l108 78l-71 96z" />
    <glyph glyph-name="exclamdbl" unicode="&#x203c;" horiz-adv-x="383" 
d="M145 667v-177l-13 -307h-35l-13 306v178h61zM146 111v-111h-63v111h63zM339 667v-177l-13 -307h-36l-13 306v178h62zM340 111v-111h-63v111h63z" />
    <glyph glyph-name="uni203E" unicode="&#x203e;" 
d="M21 848h500v-41h-500v41z" />
    <glyph glyph-name="fraction" unicode="&#x2044;" horiz-adv-x="147" 
d="M310 655l-389 -655h-45l390 655h44z" />
    <glyph glyph-name="zerosuperior" unicode="&#x2070;" horiz-adv-x="356" 
d="M255 664q58 0 89 -35.5t31 -103.5q0 -102 -48 -185q-49 -81 -132 -81q-57 0 -88 37t-31 105q0 58 21 120t52 95q45 48 106 48zM253 627q-60 0 -97 -74q-36 -76 -36 -158q0 -48 20.5 -74t58.5 -26q61 0 98 77q34 75 34 152q0 103 -78 103z" />
    <glyph glyph-name="foursuperior" unicode="&#x2074;" horiz-adv-x="356" 
d="M360 398l-8 -35h-61l-21 -96h-42l20 96h-187l8 37l247 260h38l-56 -262h62zM256 398l30 143l5 23l6 26l1 3q-31 -35 -43 -47l-141 -148h142z" />
    <glyph glyph-name="fivesuperior" unicode="&#x2075;" horiz-adv-x="356" 
d="M378 655l-8 -37h-178l-39 -114q39 25 80 25q54 0 87.5 -32.5t33.5 -84.5q0 -66 -43.5 -109.5t-110.5 -43.5q-59 0 -92.5 29.5t-33.5 81.5v13h43l-1 -14q0 -34 23 -54t62 -20q47 0 76.5 31t29.5 80q0 40 -23.5 63t-63.5 23q-54 0 -84 -43l-39 2l67 204h214z" />
    <glyph glyph-name="sixsuperior" unicode="&#x2076;" horiz-adv-x="356" 
d="M382 555h-43q-4 72 -73 72q-48 0 -77 -32.5t-52 -113.5q43 44 97 44t88.5 -33.5t34.5 -86.5q0 -64 -41.5 -105.5t-104.5 -41.5q-62 0 -96 36t-34 103q0 40 12 90t31 85q49 91 144 91q55 0 84.5 -28t29.5 -80zM226 489q-43 0 -72 -30t-29 -75q0 -41 24.5 -65.5t64.5 -24.5
q43 0 71 31t28 79q0 39 -23.5 62t-63.5 23z" />
    <glyph glyph-name="sevensuperior" unicode="&#x2077;" horiz-adv-x="356" 
d="M396 655l-7 -34q-155 -151 -221 -354h-47q26 88 84 181t134 168h-21h-11h-184l8 39h265z" />
    <glyph glyph-name="eightsuperior" unicode="&#x2078;" horiz-adv-x="356" 
d="M293 472q58 -31 58 -89q0 -54 -42 -89.5t-106 -35.5q-61 0 -97 31t-36 83q0 84 98 109q-49 28 -49 78q0 46 36 75t92 29q55 0 88 -27t33 -71q0 -64 -75 -93zM247 628q-40 0 -63 -19.5t-23 -52.5q0 -29 22 -46.5t59 -17.5t60 19t23 51q0 31 -20.5 48.5t-57.5 17.5z
M215 458q-46 0 -73 -23t-27 -63q0 -37 25 -58t67 -21q44 0 71.5 24.5t27.5 64.5q0 35 -24.5 55.5t-66.5 20.5z" />
    <glyph glyph-name="ninesuperior" unicode="&#x2079;" horiz-adv-x="356" 
d="M73 367h42q-1 -34 19 -53t58 -19q48 0 76 34t48 115q-40 -47 -100 -47q-53 0 -87 33.5t-34 85.5q0 64 42 106t105 42q61 0 94 -36t33 -103q0 -95 -39 -173q-46 -94 -141 -94q-56 0 -86 28t-30 81zM241 628q-45 0 -74 -31.5t-29 -79.5q0 -38 23.5 -61t63.5 -23
q43 0 71.5 31t28.5 77q0 40 -22.5 63.5t-61.5 23.5z" />
    <glyph glyph-name="zeroinferior" unicode="&#x2080;" horiz-adv-x="356" 
d="M199 397q58 0 89 -35.5t31 -103.5q0 -102 -48 -185q-49 -81 -132 -81q-57 0 -88 37t-31 105q0 58 21 120t52 95q45 48 106 48zM197 360q-60 0 -97 -74q-36 -76 -36 -158q0 -48 20.5 -74t58.5 -26q61 0 98 77q34 75 34 152q0 103 -78 103z" />
    <glyph glyph-name="oneinferior" unicode="&#x2081;" horiz-adv-x="356" 
d="M262 392l-83 -392h-45l67 318q-52 -24 -111 -29l7 34q92 9 130 69h35z" />
    <glyph glyph-name="twoinferior" unicode="&#x2082;" horiz-adv-x="356" 
d="M281 37l-8 -37h-269q4 55 40.5 93.5t129.5 85.5q56 31 78.5 55.5t22.5 55.5q0 32 -22 51.5t-59 19.5q-43 0 -68.5 -27t-29.5 -76h-41q3 64 41.5 101.5t100.5 37.5q55 0 88 -28.5t33 -76.5q0 -62 -66 -109q-19 -14 -92 -53q-48 -26 -72 -47t-35 -46h33h195z" />
    <glyph glyph-name="threeinferior" unicode="&#x2083;" horiz-adv-x="356" 
d="M15 129h42q-2 -9 -2 -21q0 -37 24 -58.5t66 -21.5q44 0 73 26.5t29 66.5q0 23 -15 40.5t-40 21.5q-11 3 -54 3l7 36q11 -1 25 -1q101 0 101 74q0 29 -21.5 47t-56.5 18q-82 0 -96 -91h-42q10 61 46.5 94t94.5 33q53 0 86 -27t33 -71q0 -69 -74 -95q52 -25 52 -81
t-42.5 -93t-107.5 -37q-60 0 -95 30.5t-35 82.5q0 13 2 24z" />
    <glyph glyph-name="fourinferior" unicode="&#x2084;" horiz-adv-x="356" 
d="M303 131l-8 -35h-61l-21 -96h-42l20 96h-187l8 37l247 261h38l-56 -263h62zM199 131l30 143q4 16 5 23l6 27l1 2q-14 -15 -27.5 -30t-15.5 -17l-141 -148h142z" />
    <glyph glyph-name="fiveinferior" unicode="&#x2085;" horiz-adv-x="356" 
d="M322 388l-8 -37h-178l-39 -113q40 24 80 24q54 0 87.5 -32.5t33.5 -85.5q0 -66 -43.5 -109t-110.5 -43q-59 0 -92.5 29.5t-33.5 81.5v13h43l-1 -14q0 -34 23 -54t62 -20q47 0 76.5 31t29.5 80q0 40 -23.5 63t-63.5 23q-54 0 -84 -42l-39 1l67 204h214z" />
    <glyph glyph-name="sixinferior" unicode="&#x2086;" horiz-adv-x="356" 
d="M326 288h-43q-4 72 -73 72q-48 0 -77 -32.5t-52 -112.5q43 43 97 43q55 0 89 -33t34 -86q0 -64 -41.5 -105.5t-104.5 -41.5q-62 0 -96 36t-34 103q0 91 43 174q49 91 144 91q55 0 84.5 -28t29.5 -80zM170 222q-44 0 -72.5 -29.5t-28.5 -74.5q0 -41 24.5 -65.5t64.5 -24.5
q44 0 71.5 30.5t27.5 78.5q0 39 -23.5 62t-63.5 23z" />
    <glyph glyph-name="seveninferior" unicode="&#x2087;" horiz-adv-x="356" 
d="M340 388l-7 -34q-155 -151 -221 -354h-47q26 88 84 181t134 168h-21h-11h-184l8 39h265z" />
    <glyph glyph-name="eightinferior" unicode="&#x2088;" horiz-adv-x="356" 
d="M236 206q58 -33 58 -90q0 -54 -42 -89t-106 -35q-61 0 -97 31t-36 83q0 82 98 109q-49 28 -49 77q0 46 36 75t92 29q55 0 88 -27t33 -71q0 -65 -75 -92zM190 361q-40 0 -63 -19.5t-23 -52.5q0 -29 22 -46.5t59 -17.5t60 19t23 51q0 31 -20.5 48.5t-57.5 17.5zM158 191
q-46 0 -73 -23t-27 -63q0 -36 25 -57t67 -21q44 0 71.5 24.5t27.5 64.5q0 35 -24.5 55t-66.5 20z" />
    <glyph glyph-name="nineinferior" unicode="&#x2089;" horiz-adv-x="356" 
d="M16 100h42q-1 -34 19 -53t58 -19q48 0 76 34t48 115q-41 -47 -100 -47q-53 0 -87 33.5t-34 85.5q0 64 42 106t105 42q61 0 94 -36t33 -103q0 -95 -39 -173q-46 -94 -141 -94q-56 0 -86 28t-30 81zM184 361q-45 0 -74 -31.5t-29 -79.5q0 -38 23.5 -61t63.5 -23
q43 0 71.5 31t28.5 77q0 40 -22.5 63.5t-61.5 23.5z" />
    <glyph glyph-name="franc" unicode="&#x20a3;" horiz-adv-x="593" 
d="M527 647l-12 -53h-297l-51 -242h205l-12 -53h-205l-63 -299h-62l137 647h360zM628 358l-12 -55q-8 2 -21 2q-71 0 -115 -50q-46 -52 -66 -151l-22 -104h-51l74 352h49l-21 -101q22 50 65 79.5t94 29.5q15 0 26 -2z" />
    <glyph glyph-name="lira" unicode="&#x20a4;" horiz-adv-x="547" 
d="M170 236h-107l7 32h97q-3 21 -20 77q-4 14 -5 17l-3 10h-47l7 32h32q-5 27 -5 53q0 91 61.5 149t157.5 58q93 0 148.5 -52.5t55.5 -140.5q0 -12 -1 -22h-57v15q0 71 -37.5 109t-107.5 38q-71 0 -116.5 -43.5t-45.5 -111.5q0 -23 6 -52h182l-7 -32h-167q6 -22 8 -28
q16 -55 19 -76h118l-7 -32h-110q-2 -53 -25.5 -90t-92.5 -97q55 22 95 22q27 0 83 -16q52 -16 82 -16q28 0 51 10.5t57 39.5l24 -47q-69 -59 -139 -59q-21 0 -36.5 3.5t-70.5 22.5q-49 16 -80 16q-46 0 -111 -40l-22 51q72 59 100 102t29 98z" />
    <glyph glyph-name="peseta" unicode="&#x20a7;" horiz-adv-x="894" 
d="M167 647h140q107 0 149 -26q73 -45 73 -143q0 -59 -28 -109t-75 -75q-52 -28 -174 -28h-103l-57 -266h-62zM218 594l-58 -275h91q65 0 97.5 6t55.5 22q29 19 46 53.5t17 73.5q0 72 -51 101q-31 19 -128 19h-70zM616 266l-8 -39h-58l-32 -149q-5 -24 -5 -30q0 -15 25 -15
q10 0 36 6l-9 -41q-23 -3 -39 -3q-59 0 -59 43q0 12 6 40l32 149h-49l9 39h48l17 78h45l-17 -78h58zM857 179h-46q0 32 -14 44.5t-48 12.5q-56 0 -56 -34q0 -16 11.5 -24t59.5 -25q44 -17 60.5 -33.5t16.5 -44.5q0 -39 -32 -62.5t-84 -23.5q-53 0 -82.5 23.5t-29.5 65.5v15
h46q-1 -4 -1 -11q0 -55 71 -55q29 0 46.5 11t17.5 30q0 18 -17 29q-10 7 -59 25q-40 15 -55.5 31.5t-15.5 42.5q0 35 29.5 56.5t78.5 21.5t76 -21.5t27 -61.5v-12z" />
    <glyph glyph-name="Euro" unicode="&#x20ac;" horiz-adv-x="660" 
d="M203 400h367l-40 -54h-341q-6 -35 -6 -55l-1 -3h303l-40 -54h-261q11 -95 63.5 -146t138.5 -51q109 0 185 82l-18 -85q-48 -28 -83.5 -38.5t-85.5 -10.5q-114 0 -183 65t-81 184h-100l40 54h59q1 30 6 58h-83l40 54h55q36 134 127 208.5t218 74.5q147 0 218 -104l-44 -59
q-39 109 -177 109q-96 0 -169 -60t-107 -169z" />
    <glyph glyph-name="uni2101" unicode="&#x2101;" horiz-adv-x="960" 
d="M742 685l-422 -704h-45l421 704h46zM330 667l81 -400h-48l-23 124h-182l-76 -124h-52l253 400h47zM334 429l-25 125q-8 45 -12 67q-18 -34 -45 -79l-71 -113h153zM902 280h-44v9q0 80 -106 80q-48 0 -75.5 -19t-27.5 -52q0 -29 21.5 -44.5t87.5 -32.5q53 -13 78 -30
q39 -27 39 -77q0 -54 -44.5 -87.5t-117.5 -33.5q-75 0 -116.5 34t-41.5 96v14h45q0 -43 13 -64q26 -42 103 -42q52 0 83 22t31 59q0 27 -18 42t-67 28q-54 14 -74 22t-36 22q-30 27 -30 70q0 50 40.5 80.5t108.5 30.5q71 0 113 -33q20 -17 27.5 -36.5t7.5 -57.5z" />
    <glyph glyph-name="afii61248" unicode="&#x2105;" horiz-adv-x="273" 
d="M156 377q22 0 37.5 -15.5t15.5 -37.5t-15.5 -38t-37.5 -16t-38 16t-16 38t16 37.5t38 15.5z" />
    <glyph glyph-name="afii61289" unicode="&#x2113;" 
d="M263 267q-31 -166 -31 -211q0 -26 19 -26q14 0 25.5 12t26.5 44q9 17 18 17q12 0 12 -12q0 -16 -17 -47q-35 -60 -82 -60q-31 0 -48.5 21.5t-17.5 58.5q0 31 12 140q-17 -19 -35 -33t-23 -14q-4 0 -7.5 4.5t-3.5 9.5q0 10 21 27q27 25 56 57q42 220 88.5 321t105.5 101
q27 0 43 -21.5t16 -56.5q0 -84 -60 -187q-38 -62 -118 -145zM272 317q63 68 99 144t36 140q0 40 -26 40q-31 0 -54 -68t-55 -256z" />
    <glyph glyph-name="uni2117" unicode="&#x2117;" horiz-adv-x="139" 
d="M159 557l-62 -290h-42l62 290h42zM182 667l-14 -64h-42l14 64h42z" />
    <glyph glyph-name="trademark" unicode="&#x2122;" horiz-adv-x="821" 
d="M419 667l-8 -37h-135l-73 -343h-43l73 343h-139l8 37h317zM846 667l-80 -380h-44l46 215q14 65 26 107q-30 -51 -39 -64l-165 -258h-38l-58 263q-5 21 -11 62q-16 -88 -22 -118l-44 -207h-44l81 380h57l55 -259q6 -28 13 -73q9 14 19 31t17 28l173 273h58z" />
    <glyph glyph-name="uni2126" unicode="&#x2126;" horiz-adv-x="666" 
d="M49 0v53h193q-194 111 -194 309q0 135 88.5 228t217.5 93t217.5 -93t88.5 -228q0 -197 -194 -309h193v-53h-258v50q198 110 198 304q0 116 -70.5 196t-173.5 80q-104 0 -175 -80t-71 -196q0 -140 104 -238q35 -33 94 -66v-50h-258z" />
    <glyph glyph-name="onethird" unicode="&#x2153;" horiz-adv-x="858" 
d="M318 659l-83 -392h-45l67 318q-52 -24 -111 -29l7 34q92 9 130 69h35zM665 655l-389 -655h-45l391 655h43zM517 129h41q-1 -9 -1 -21q0 -37 24 -58.5t66 -21.5q44 0 73 26.5t29 66.5q0 23 -15 40.5t-40 21.5q-11 3 -54 3l7 36q11 -1 25 -1q101 0 101 74q0 29 -21.5 47
t-56.5 18q-82 0 -96 -91h-42q9 61 46 94t95 33q53 0 86 -27t33 -71q0 -69 -74 -95q52 -26 52 -81q0 -56 -42.5 -93t-107.5 -37q-60 0 -95 30.5t-35 82.5q0 13 2 24z" />
    <glyph glyph-name="twothirds" unicode="&#x2154;" horiz-adv-x="858" 
d="M341 304l-8 -37h-269q5 56 40.5 93.5t129.5 84.5q57 31 79 55t22 56t-22 51.5t-59 19.5q-43 0 -68.5 -27t-29.5 -76h-41q3 64 41.5 101.5t100.5 37.5q55 0 88 -29t33 -76q0 -62 -66 -109q-17 -12 -92 -52q-48 -26 -72 -47t-35 -46h33h195zM666 655l-389 -655h-45l391 655
h43zM518 129h41q-1 -10 -1 -21q0 -37 24 -58.5t66 -21.5q44 0 73 26.5t29 66.5q0 23 -15 40.5t-40 21.5q-11 3 -55 3l8 36q11 -1 24 -1q102 0 102 74q0 29 -21.5 47t-56.5 18q-82 0 -96 -91h-42q9 61 46 94t95 33q53 0 86 -27t33 -71q0 -69 -74 -95q52 -26 52 -81
q0 -56 -42.5 -93t-107.5 -37q-60 0 -95 30.5t-35 82.5q0 12 2 24z" />
    <glyph glyph-name="oneeighth" unicode="&#x215b;" horiz-adv-x="858" 
d="M318 659l-83 -392h-45l67 318q-52 -24 -111 -29l7 34q92 9 130 69h35zM665 655l-389 -655h-45l391 655h43zM738 206q58 -33 58 -90q0 -54 -42 -89t-106 -35q-61 0 -97 31t-36 83q0 82 98 109q-49 28 -49 77q0 46 36 75t92 29q55 0 88 -27t33 -71q0 -65 -75 -92zM692 361
q-40 0 -63 -19.5t-23 -52.5q0 -29 22 -46.5t59 -17.5t60 19t23 51q0 31 -20.5 48.5t-57.5 17.5zM660 191q-46 0 -73 -23t-27 -63q0 -36 25 -57t67 -21q44 0 71.5 24.5t27.5 64.5q0 35 -24.5 55t-66.5 20z" />
    <glyph glyph-name="threeeighths" unicode="&#x215c;" horiz-adv-x="858" 
d="M71 396h42q-2 -9 -2 -21q0 -37 24 -58.5t66 -21.5q44 0 73 26.5t29 66.5t-36 57q-20 8 -57 8h-16l7 36q12 -1 25 -1q101 0 101 74q0 29 -21.5 47t-56.5 18q-82 0 -96 -91h-42q10 61 46.5 94t94.5 33q53 0 86 -27t33 -71q0 -71 -74 -95q52 -26 52 -81q0 -56 -42.5 -93
t-107.5 -37q-60 0 -95 30.5t-35 82.5q0 13 2 24zM665 655l-389 -655h-45l391 655h43zM738 206q58 -33 58 -90q0 -54 -42 -89t-106 -35q-61 0 -97 31t-36 83q0 82 98 109q-49 28 -49 77q0 46 36 75t92 29q55 0 88 -27t33 -71q0 -65 -75 -92zM692 361q-40 0 -63 -19.5
t-23 -52.5q0 -29 22 -46.5t59 -17.5t60 19t23 51q0 31 -20.5 48.5t-57.5 17.5zM660 191q-46 0 -73 -23t-27 -63q0 -36 25 -57t67 -21q44 0 71.5 24.5t27.5 64.5q0 35 -24.5 55t-66.5 20z" />
    <glyph glyph-name="fiveeighths" unicode="&#x215d;" horiz-adv-x="858" 
d="M378 655l-8 -37h-178l-39 -114q39 25 80 25q54 0 87.5 -32.5t33.5 -84.5q0 -66 -43.5 -109.5t-110.5 -43.5q-59 0 -92.5 29.5t-33.5 81.5v13h43l-1 -14q0 -34 23 -54t62 -20q47 0 76.5 31t29.5 80q0 40 -23.5 63t-63.5 23q-54 0 -84 -43l-39 2l67 204h214zM665 655
l-389 -655h-45l391 655h43zM738 206q58 -33 58 -90q0 -54 -42 -89t-106 -35q-61 0 -97 31t-36 83q0 82 98 109q-49 28 -49 77q0 46 36 75t92 29q55 0 88 -27t33 -71q0 -65 -75 -92zM692 361q-40 0 -63 -19.5t-23 -52.5q0 -29 22 -46.5t59 -17.5t60 19t23 51q0 31 -20.5 48.5
t-57.5 17.5zM660 191q-46 0 -73 -23t-27 -63q0 -36 25 -57t67 -21q44 0 71.5 24.5t27.5 64.5q0 35 -24.5 55t-66.5 20z" />
    <glyph glyph-name="seveneighths" unicode="&#x215e;" horiz-adv-x="858" 
d="M396 655l-7 -34q-155 -151 -221 -354h-47q26 88 84 181t134 168h-21h-11h-184l8 39h265zM665 655l-389 -655h-45l391 655h43zM738 206q58 -33 58 -90q0 -54 -42 -89t-106 -35q-61 0 -97 31t-36 83q0 82 98 109q-49 28 -49 77q0 46 36 75t92 29q55 0 88 -27t33 -71
q0 -65 -75 -92zM692 361q-40 0 -63 -19.5t-23 -52.5q0 -29 22 -46.5t59 -17.5t60 19t23 51q0 31 -20.5 48.5t-57.5 17.5zM660 191q-46 0 -73 -23t-27 -63q0 -36 25 -57t67 -21q44 0 71.5 24.5t27.5 64.5q0 35 -24.5 55t-66.5 20z" />
    <glyph glyph-name="arrowleft" unicode="&#x2190;" horiz-adv-x="667" 
d="M674 363v-51h-500q16 -19 34 -56t18 -48q0 -14 -14 -14q-9 0 -23 17q-46 54 -132 104q-23 13 -23 21q0 9 16 19q61 36 86.5 56.5t58.5 59.5q8 9 16 9q15 0 15 -15q0 -28 -52 -102h500z" />
    <glyph glyph-name="arrowup" unicode="&#x2191;" horiz-adv-x="669" 
d="M382 13h-53v500q-19 -16 -55.5 -34t-47.5 -18q-14 0 -14 15q0 8 17 23q55 47 103 132q13 23 22 23t19 -16q7 -12 8 -13l9 -16q44 -71 99 -117q9 -8 9 -16q0 -15 -15 -15q-29 0 -101 52v-500z" />
    <glyph glyph-name="arrowright" unicode="&#x2192;" horiz-adv-x="667" 
d="M34 310v51h500q-16 22 -34 58t-18 47q0 14 15 14q8 0 23 -17q45 -55 131 -104q23 -12 23 -21t-16 -18q-63 -39 -88 -58.5t-57 -57.5q-7 -10 -16 -10q-15 0 -15 15q0 27 52 101h-500z" />
    <glyph glyph-name="arrowdown" unicode="&#x2193;" horiz-adv-x="667" 
d="M327 653h53v-500q19 16 56 34t48 18q14 0 14 -15q0 -8 -17 -22q-53 -45 -104 -132q-11 -23 -21 -23t-19 16q-1 1 -2 3l-2.5 5t-3.5 5q-4 6 -10 16q-26 43 -45 65t-53 51q-10 8 -10 16q0 15 15 15q30 0 101 -52v500z" />
    <glyph glyph-name="arrowboth" unicode="&#x2194;" horiz-adv-x="667" 
d="M534 310h-361q22 -29 37.5 -59t15.5 -42q0 -15 -15 -15q-7 0 -24 19q-28 32 -55.5 53.5t-87.5 57.5q-10 6 -10 15t23 20q85 49 132 104q14 17 22 17q15 0 15 -14q0 -12 -18 -47t-35 -58h361q-16 22 -34 58t-18 47q0 14 15 14q7 0 23 -17q46 -55 131 -104q23 -11 23 -20
q0 -10 -16 -19q-61 -38 -87 -58t-58 -58q-7 -10 -16 -10q-15 0 -15 15q0 30 52 101z" />
    <glyph glyph-name="arrowupdn" unicode="&#x2195;" horiz-adv-x="667" 
d="M381 513v-361q71 53 101 53q15 0 15 -15q0 -6 -2.5 -9t-16.5 -15q-48 -42 -89 -108q-1 -1 -4.5 -7t-5.5 -9t-7 -13q-11 -16 -20 -16t-21 23q-50 86 -104 132q-17 14 -17 22q0 15 14 15q11 0 48 -18.5t56 -34.5v361q-20 -15 -56.5 -33.5t-47.5 -18.5q-14 0 -14 15
q0 6 4 10.5t27 24.5q45 42 90 120q13 23 21 23q10 0 20 -16q5 -10 7 -13q8 -13 10 -16q26 -43 45 -65.5t54 -51.5q9 -8 9 -16q0 -15 -15 -15q-29 0 -101 52z" />
    <glyph glyph-name="arrowupdnbse" unicode="&#x21a8;" horiz-adv-x="667" 
d="M382 513v-361q69 53 99 53q15 0 15 -15q0 -6 -2.5 -9t-15.5 -15q-47 -41 -87 -108q-7 -9 -10 -16q-1 -1 -8 -13l-4 -6q-6 -10 -15 -10q-8 0 -22 23q-49 86 -103 132q-17 15 -17 22q0 15 14 15q11 0 47 -18.5t56 -34.5v361q-20 -15 -56.5 -33.5t-47.5 -18.5q-14 0 -14 15
q0 6 4 10.5t27 24.5q44 41 90 120q13 23 21 23q10 0 20 -16q3 -7 8 -13q1 -2 9 -16q26 -43 45 -66t52 -51q9 -8 9 -16q0 -15 -15 -15q-27 0 -99 52zM222 -64h264v-47h-264v47z" />
    <glyph glyph-name="partialdiff" unicode="&#x2202;" 
d="M113 623l7 49q80 -11 134.5 -35.5t101.5 -69.5q62 -59 96 -146t34 -186q0 -92 -38 -151q-29 -45 -75.5 -70.5t-99.5 -25.5q-90 0 -153 65.5t-63 159.5q0 93 60.5 158t147.5 65q68 0 112 -34q13 -11 43 -49q-5 13 -6 14q-2 6 -11.5 30t-14.5 37q-36 77 -108.5 127
t-166.5 62zM279 389q-71 0 -119 -51t-48 -126q0 -72 47.5 -123.5t113.5 -51.5q68 0 113 51.5t45 128.5q0 89 -54 135q-43 37 -98 37z" />
    <glyph glyph-name="emptyset" unicode="&#x2205;" horiz-adv-x="667" 
d="M552 647l-61 -123q56 -51 77 -91.5t21 -99.5q0 -95 -66.5 -164.5t-158.5 -69.5q-30 0 -82 11l-61 -121l-64 34l60 119q-56 51 -76.5 91.5t-20.5 98.5q0 95 66.5 164.5t158.5 69.5q26 0 79 -10l62 124zM458 459l-143 -284q36 -4 45 -4q64 0 110 47.5t46 113.5
q0 39 -12 65.5t-46 61.5zM250 208l141 281q-23 4 -42 4q-65 0 -111 -47t-46 -114q0 -38 12 -64t46 -60z" />
    <glyph glyph-name="Delta" unicode="&#x2206;" horiz-adv-x="616" 
d="M27 0l271 667h62l271 -667h-604zM106 53h446l-223 549z" />
    <glyph glyph-name="product" unicode="&#x220f;" horiz-adv-x="667" 
d="M50 750h609v-50h-74v-900h74v-50h-208v50h79v900h-350v-900h77v-50h-207v50h75v900h-75v50z" />
    <glyph glyph-name="summation" unicode="&#x2211;" horiz-adv-x="667" 
d="M612 750v-223h-55l-5 167h-431l251 -424l-250 -465h439l3 167h58v-222h-567v64l246 456l-246 418v62h557z" />
    <glyph glyph-name="minus" unicode="&#x2212;" horiz-adv-x="547" 
d="M68 345h447v-43h-447v43z" />
    <glyph glyph-name="uni2218" unicode="&#x2218;" 
d="M274 480q56 0 95.5 -41t39.5 -99t-40 -99t-97 -41t-97.5 41t-40.5 99t41 99t99 41zM273 433q-39 0 -65.5 -27t-26.5 -66q0 -38 27 -65.5t64 -27.5t63.5 27.5t26.5 65.5t-26 65.5t-63 27.5z" />
    <glyph glyph-name="radical" unicode="&#x221a;" horiz-adv-x="667" 
d="M688 827v-51h-199l-236 -776h-63l-91 303h-78v51h114l46 -148q11 -34 17 -60q8 -35 20 -74q12 35 27 92q22 79 29 101q17 58 53 174l118 388h243z" />
    <glyph glyph-name="infinity" unicode="&#x221e;" horiz-adv-x="667" 
d="M355 308q-41 -62 -81 -89.5t-88 -27.5q-65 0 -105.5 42t-40.5 109q0 64 41 105.5t106 41.5q91 0 166 -117q42 63 81 90t89 27q64 0 104.5 -42t40.5 -108q0 -65 -40 -106.5t-104 -41.5q-50 0 -89.5 27.5t-79.5 89.5zM377 340q38 -59 70.5 -83.5t72.5 -24.5q44 0 72.5 30.5
t28.5 77.5t-29 77.5t-73 30.5q-40 0 -71 -24t-71 -84zM331 340q-36 57 -69.5 82.5t-73.5 25.5q-44 0 -72.5 -30.5t-28.5 -77.5t29 -77.5t73 -30.5q40 0 71 24t71 84z" />
    <glyph glyph-name="orthogonal" unicode="&#x221f;" horiz-adv-x="344" 
d="M44 470h297v-43h-297v43z" />
    <glyph glyph-name="intersection" unicode="&#x2229;" horiz-adv-x="539" 
d="M525 0h-60v321q0 101 -6 143.5t-24 70.5q-23 35 -62.5 56.5t-82.5 21.5q-47 0 -88.5 -24t-61.5 -63q-25 -47 -25 -205v-321h-60v318q0 124 7.5 169t34.5 83q68 97 193 97q65 0 118.5 -30t85.5 -83q19 -34 25 -78t6 -158v-318z" />
    <glyph glyph-name="union" unicode="&#x222a;" horiz-adv-x="539" 
d="M55 667h60v-321q0 -101 6 -143.5t24 -70.5q23 -35 62.5 -56.5t82.5 -21.5q47 0 88.5 24t61.5 63q25 47 25 205v321h60v-318q0 -125 -7.5 -169.5t-34.5 -82.5q-68 -97 -193 -97q-65 0 -118.5 30t-85.5 83q-19 34 -25 78t-6 158v318z" />
    <glyph glyph-name="integral" unicode="&#x222b;" 
d="M130 -239l14 56q20 -10 39 -10q40 0 51 34q4 13 5 85v638q1 96 8 119q10 31 38.5 49t67.5 18q26 0 58 -11l-14 -55q-21 9 -39 9q-40 0 -51 -34q-5 -14 -5 -70v-651q0 -72 -3 -96t-14 -42q-14 -22 -44.5 -35t-66.5 -13q-21 0 -44 9z" />
    <glyph glyph-name="uni222E" unicode="&#x222e;" 
d="M128 -239l14 56q23 -10 41 -10q41 0 52 34q5 17 5 71v184q-58 7 -98 54t-40 108q0 62 38.5 107t99.5 55v173q0 77 15 106q27 51 94 51q27 0 60 -11l-14 -55q-22 9 -41 9q-42 0 -51 -34q-5 -14 -5 -66v-173q64 -10 102.5 -54t38.5 -108q0 -62 -40 -108.5t-101 -53.5v-185
q0 -53 -2.5 -72.5t-11.5 -36.5q-28 -52 -101 -52q-29 0 -55 11zM298 387v-257q48 8 77.5 43.5t29.5 84.5t-30 85.5t-77 43.5zM240 130v256q-45 -7 -74.5 -43t-29.5 -85q0 -48 30 -84.5t74 -43.5z" />
    <glyph glyph-name="uni2236" unicode="&#x2236;" horiz-adv-x="273" 
d="M156 512q20 0 35 -15t15 -36q0 -20 -15 -35t-35 -15q-22 0 -36.5 15t-14.5 36t15 35.5t36 14.5zM156 235q20 0 35 -15t15 -35q0 -21 -15 -36t-35 -15q-22 0 -36.5 15t-14.5 36t15 35.5t36 14.5z" />
    <glyph glyph-name="similar" unicode="&#x223c;" 
d="M67 266l-35 27q53 107 133 107q37 0 116 -40q69 -35 97 -35q29 0 51 17.5t46 59.5l35 -27q-50 -107 -135 -107q-22 0 -44.5 8t-84.5 40q-53 28 -84 28q-27 0 -49 -18t-46 -60z" />
    <glyph glyph-name="approxequal" unicode="&#x2248;" 
d="M67 347l-35 24q51 108 133 108q38 0 116 -41q69 -35 97 -35q29 0 49.5 15.5t47.5 58.5l35 -23q-50 -107 -138 -107q-22 0 -43.5 8.5t-82.5 39.5q-53 28 -84 28q-27 0 -48.5 -17t-46.5 -59zM67 187l-35 24q51 107 133 107q39 0 116 -40q68 -35 97 -35t50 16t47 58l35 -24
q-50 -106 -138 -106q-21 0 -43.5 8.5t-82.5 39.5q-54 27 -84 27q-27 0 -48 -17t-47 -58z" />
    <glyph glyph-name="notequal" unicode="&#x2260;" 
d="M295 431l59 121l45 -16l-51 -105h140v-52h-163l-49 -104h212v-52h-233l-61 -126l-45 17l52 109h-147v52h168l50 104h-218v52h241z" />
    <glyph glyph-name="equivalence" unicode="&#x2261;" 
d="M54 517h433v-55h-433v55zM54 361h433v-55h-433v55zM54 205h433v-55h-433v55z" />
    <glyph glyph-name="lessequal" unicode="&#x2264;" 
d="M487 584v-60l-364 -147l364 -146v-60l-433 179v55zM487 141v-55h-433v55h433z" />
    <glyph glyph-name="greaterequal" unicode="&#x2265;" 
d="M54 171v60l364 146l-364 147v60l433 -179v-55zM54 86v55h433v-55h-433z" />
    <glyph glyph-name="dotmath" unicode="&#x22c5;" horiz-adv-x="223" 
d="M163 297l-21 -100h-77l21 100h77z" />
    <glyph glyph-name="house" unicode="&#x2302;" horiz-adv-x="753" 
d="M105 0v400l292 329l293 -329v-400h-585zM158 51h479v328l-240 270l-239 -270v-328z" />
    <glyph glyph-name="revlogicalnot" unicode="&#x2310;" 
d="M115 0h-61v274h433v-55h-372v-219z" />
    <glyph glyph-name="uni2319" unicode="&#x2319;" 
d="M115 275v-220h372v-55h-433v275h61z" />
    <glyph glyph-name="integraltp" unicode="&#x2320;" 
d="M302 -250h-63v814q1 72 2 87t6 31q10 32 38 50t68 18q26 0 58 -11l-14 -56q-20 10 -39 10q-40 0 -51 -34q-5 -14 -5 -70v-839z" />
    <glyph glyph-name="integralbt" unicode="&#x2321;" 
d="M239 750h63v-814q-1 -95 -8 -118q-10 -32 -38 -50t-67 -18q-27 0 -59 11l14 56q20 -10 39 -10q40 0 51 34q5 14 5 70v839z" />
    <glyph glyph-name="filledbox" unicode="&#x25a0;" horiz-adv-x="667" 
d="M688 0h-667v667h667v-667z" />
    <glyph glyph-name="uni25A1" unicode="&#x25a1;" horiz-adv-x="667" 
d="M688 0h-667v667h667v-667zM641 47v573h-573v-573h573z" />
    <glyph glyph-name="H18551" unicode="&#x25ab;" horiz-adv-x="344" 
d="M44 470h125v123h46v-123h127v-43h-127v-122h-46v122h-125v43z" />
    <glyph glyph-name="filledrect" unicode="&#x25ac;" horiz-adv-x="667" 
d="M688 333v-333h-667v333h667z" />
    <glyph glyph-name="uni25AE" unicode="&#x25ae;" horiz-adv-x="667" 
d="M521 0h-333v667h333v-667z" />
    <glyph glyph-name="uni25AF" unicode="&#x25af;" horiz-adv-x="667" 
d="M354 589q108 0 184 -74.5t76 -180.5t-76.5 -181.5t-183.5 -75.5q-109 0 -184.5 75.5t-75.5 184.5q0 103 76.5 177.5t183.5 74.5z" />
    <glyph glyph-name="triagup" unicode="&#x25b2;" horiz-adv-x="667" 
d="M654 67h-600l300 561z" />
    <glyph glyph-name="uni25B4" unicode="&#x25b4;" 
d="M487 147h-433l217 405z" />
    <glyph glyph-name="uni25B8" unicode="&#x25b8;" 
d="M92 119v433l405 -217z" />
    <glyph glyph-name="triagdn" unicode="&#x25bc;" horiz-adv-x="667" 
d="M54 600h600l-300 -561z" />
    <glyph glyph-name="uni25BE" unicode="&#x25be;" 
d="M54 520h433l-216 -405z" />
    <glyph glyph-name="uni25C2" unicode="&#x25c2;" 
d="M449 552v-433l-405 216z" />
    <glyph glyph-name="lozenge" unicode="&#x25ca;" horiz-adv-x="667" 
d="M355 693l259 -359l-259 -360l-260 360zM355 569l-172 -235l172 -236l171 236z" />
    <glyph glyph-name="circle" unicode="&#x25cb;" horiz-adv-x="667" 
d="M354 589q108 0 184 -74.5t76 -180.5t-76.5 -181.5t-183.5 -75.5q-109 0 -184.5 75.5t-75.5 184.5q0 103 76.5 177.5t183.5 74.5zM354 542q-87 0 -150 -60.5t-63 -145.5q0 -89 62 -150.5t151 -61.5q88 0 150.5 61.5t62.5 148.5q0 86 -62.5 147t-150.5 61z" />
    <glyph glyph-name="invbullet" unicode="&#x25d8;" horiz-adv-x="667" 
d="M21 0v667h667v-667h-667zM357 474q-59 0 -99.5 -41t-40.5 -100q0 -58 40.5 -99t97.5 -41t97 41t40 100q0 57 -40 98.5t-95 41.5z" />
    <glyph glyph-name="invcircle" unicode="&#x25d9;" horiz-adv-x="667" 
d="M355 543q88 0 150.5 -61.5t62.5 -147.5q0 -87 -62.5 -149t-150.5 -62q-90 0 -152 62t-62 151q0 85 63 146t151 61zM688 0h-667v667h667v-667zM355 590q-107 0 -184 -74t-77 -178q0 -110 76 -185.5t185 -75.5q107 0 183.5 75.5t76.5 181.5t-76.5 181t-183.5 75z" />
    <glyph glyph-name="openbullet" unicode="&#x25e6;" 
d="M274 480q56 0 95.5 -41t39.5 -99t-40 -99t-97 -41t-97.5 41t-40.5 99t41 99t99 41zM273 433q-39 0 -65.5 -27t-26.5 -66q0 -38 27 -65.5t64 -27.5t63.5 27.5t26.5 65.5t-26 65.5t-63 27.5z" />
    <glyph glyph-name="smileface" unicode="&#x263a;" horiz-adv-x="667" 
d="M262 466q17 0 30 -13t13 -31t-13 -31t-31 -13t-31 13t-13 31q0 19 13 31.5t32 12.5zM456 465q17 0 30 -13t13 -31t-13 -31t-31 -13t-31 13t-13 31q0 19 13 31.5t32 12.5zM561 372q-4 -60 -15 -95t-35 -66q-56 -70 -156 -70q-110 0 -164 83q-20 29 -28.5 60t-13.5 88
q13 -55 42 -88q61 -70 164 -70q102 0 165 70q28 33 41 88zM360 650q127 0 219 -93.5t92 -222.5q0 -131 -92.5 -224t-223.5 -93q-132 0 -224.5 93t-92.5 226q0 131 94 222.5t228 91.5zM360 608q-126 0 -208 -91q-71 -79 -71 -181q0 -116 80 -196.5t195 -80.5
q113 0 193.5 80.5t80.5 194.5q0 112 -80 193t-190 81z" />
    <glyph glyph-name="invsmileface" unicode="&#x263b;" horiz-adv-x="667" 
d="M360 650q127 0 219 -93.5t92 -223.5q0 -131 -92.5 -223.5t-223.5 -92.5q-132 0 -224.5 93t-92.5 226q0 131 94 222.5t228 91.5zM262 465q-19 0 -32 -12.5t-13 -30.5t13 -31t31 -13t31 12.5t13 31.5q0 17 -13 30t-30 13zM455 465q-18 0 -31 -12.5t-13 -31.5
q0 -18 12.5 -31t31.5 -13q18 0 30.5 13t12.5 31t-12.5 31t-30.5 13zM561 372q-13 -55 -41 -89q-63 -70 -165 -70q-103 0 -164 70q-30 35 -42 89q5 -61 15.5 -95.5t35.5 -65.5q55 -69 155 -69q110 0 165 82q20 29 28.5 61t12.5 87z" />
    <glyph glyph-name="sun" unicode="&#x263c;" horiz-adv-x="667" 
d="M180 472l-75 75l36 35l75 -75q49 40 113 48v105h50v-105q66 -8 114 -48l74 75l35 -35l-74 -75q38 -46 47 -113h105v-51h-105q-7 -63 -47 -114l74 -74l-35 -35l-74 74q-53 -40 -114 -47v-105h-50v105q-57 6 -113 47l-75 -74l-36 35l75 74q-41 51 -47 114h-105v51h105
q9 63 47 113zM357 493q-68 0 -115 -46t-47 -112q0 -67 46.5 -114t112.5 -47t112.5 47t46.5 113q0 65 -46 112t-110 47z" />
    <glyph glyph-name="female" unicode="&#x2640;" horiz-adv-x="667" 
d="M329 209v105q-69 11 -112 62t-43 120q0 76 52.5 129.5t126.5 53.5q75 0 128 -53.5t53 -129.5q0 -70 -44 -121t-114 -61v-105h164v-43h-164v-166h-47v166h-161v43h161zM356 632q-56 0 -95.5 -39.5t-39.5 -96.5q0 -56 39 -95.5t94 -39.5t94 39.5t39 95.5q0 55 -39 95.5
t-92 40.5z" />
    <glyph glyph-name="male" unicode="&#x2642;" horiz-adv-x="667" 
d="M590 499l-151 -151q35 -49 35 -110q0 -76 -53 -129.5t-127 -53.5t-127 53.5t-53 129.5t53 129.5t128 53.5q62 0 111 -39l151 151q-55 13 -106 40q-21 11 -21 23t14 12q2 0 19 -3q41 -8 83 -8q58 0 106 13q4 1 10 1q10 0 10 -10q0 -4 -5 -23q-10 -41 -10 -88q0 -43 9 -83
q3 -15 3 -19q0 -14 -12 -14q-10 0 -24 21q-28 42 -43 104zM296 374q-57 0 -96 -39.5t-39 -96.5q0 -56 39 -96t94 -40t94 40t39 96t-38.5 96t-92.5 40z" />
    <glyph glyph-name="spade" unicode="&#x2660;" horiz-adv-x="667" 
d="M128 0v18q71 14 103.5 29t62.5 49q53 61 57 159q-12 -24 -14 -27q-19 -34 -55.5 -54.5t-76.5 -20.5q-49 0 -85 37t-36 88q0 82 103 169q140 112 164 239q27 -80 51.5 -116t99.5 -106q73 -66 97.5 -103t24.5 -84q0 -52 -35 -87.5t-87 -35.5q-32 0 -63.5 17t-51.5 45
q-9 11 -25 39q7 -106 59 -163q30 -31 62 -45t105 -29v-18h-460z" />
    <glyph glyph-name="club" unicode="&#x2663;" horiz-adv-x="667" 
d="M582 0h-455v18q113 16 167 78.5t54 177.5q-22 -38 -34 -52q-27 -35 -66.5 -55t-79.5 -20q-59 0 -101.5 44.5t-42.5 107.5q0 62 38.5 104.5t93.5 42.5q30 0 71 -21l15 -8q-35 53 -35 100q0 59 43.5 101t104.5 42t104 -42t43 -101q0 -48 -35 -100l19 10q39 19 67 19
q55 0 93.5 -42.5t38.5 -104.5q0 -64 -42.5 -108t-103.5 -44q-37 0 -76 19t-64 50q-8 10 -38 58q2 -65 15 -106t44 -76q32 -32 62.5 -46.5t99.5 -27.5v-18z" />
    <glyph glyph-name="heart" unicode="&#x2665;" horiz-adv-x="667" 
d="M353 -11q-17 67 -53 129t-133 192q-54 74 -72 113t-18 82q0 56 37.5 95t91.5 39q76 0 120 -68q13 -19 27 -62q38 131 147 131q55 0 93.5 -38.5t38.5 -92.5q0 -50 -24 -100.5t-86 -128.5q-143 -178 -169 -291z" />
    <glyph glyph-name="diamond" unicode="&#x2666;" horiz-adv-x="667" 
d="M354 693q22 -47 111.5 -173t142.5 -186q-71 -85 -141.5 -184.5t-112.5 -175.5q-71 135 -253 360q180 226 253 359z" />
    <glyph glyph-name="musicalnote" unicode="&#x266a;" horiz-adv-x="667" 
d="M327 156v511h47v-61q3 -4 15 -18l52 -63q91 -109 91 -225q0 -93 -57 -162h-28q38 77 38 149q0 65 -32.5 116t-78.5 57v-304q0 -72 -43 -118.5t-110 -46.5q-32 0 -50.5 16t-18.5 45q0 46 36.5 81t84.5 35q30 0 54 -12z" />
    <glyph glyph-name="uni266C" unicode="&#x266c;" horiz-adv-x="667" 
d="M637 694v-502q0 -47 -17 -81q-19 -38 -55.5 -61t-78.5 -23q-32 0 -50 16t-18 45q0 45 36 80t83 35q30 0 54 -11v270l-329 -90v-236q0 -72 -42.5 -117.5t-109.5 -45.5q-32 0 -50.5 16t-18.5 44q0 45 36.5 79.5t84.5 34.5q29 0 54 -11v451zM262 448l329 90v70l-329 -90v-70
z" />
    <glyph glyph-name="dotlessj" unicode="&#xf6be;" horiz-adv-x="198" 
d="M176 481l-104 -490q-22 -95 -33 -119q-27 -56 -97 -56q-20 0 -44 4l11 49q15 -5 30 -5q38 0 53 34q6 16 25 102l102 481h57z" />
    <glyph glyph-name="commaaccent" unicode="&#xf6c3;" 
d="M244 -57l-14 -65q-10 -48 -31.5 -72t-59.5 -29l6 29q43 13 52 65h-32l16 72h63z" />
    <glyph glyph-name="Acute" unicode="&#xf6c9;" 
d="M496 849l-133 -127h-46l102 127h77z" />
    <glyph glyph-name="Caron" unicode="&#xf6ca;" 
d="M233 849h54l62 -92l109 92h59l-143 -127h-61z" />
    <glyph glyph-name="Dieresis" unicode="&#xf6cb;" 
d="M308 831l-20 -94h-63l20 94h63zM495 831l-20 -94h-64l21 94h63z" />
    <glyph glyph-name="Grave" unicode="&#xf6ce;" 
d="M398 722h-46l-99 127h72z" />
    <glyph glyph-name="Hungarumlaut" unicode="&#xf6cf;" 
d="M398 849l-106 -127h-43l75 127h74zM548 849l-106 -127h-43l75 127h74z" />
    <glyph glyph-name="Macron" unicode="&#xf6d0;" 
d="M501 803l-9 -43h-288l9 43h288z" />
    <glyph glyph-name="commasuperior" unicode="&#xf6e2;" horiz-adv-x="156" 
d="M126 336l-14 -69q-10 -43 -28.5 -64.5t-52.5 -27.5l6 27q35 7 45 65h-25l15 69h54z" />
    <glyph glyph-name="periodsuperior" unicode="&#xf6e8;" horiz-adv-x="156" 
d="M127 338l-15 -71h-55l15 71h55z" />
    <glyph glyph-name="Dbreve" horiz-adv-x="661" 
d="M172 667h170q94 0 140.5 -12t83.5 -46q75 -69 75 -210q0 -85 -33 -167t-90 -138q-65 -64 -150 -83q-48 -11 -143 -11h-195zM222 614l-119 -561h136q113 0 166 26q77 37 126 127.5t49 196.5q0 134 -81 183q-46 28 -141 28h-136zM516 847h36q-13 -56 -54.5 -89t-100.5 -33
q-55 0 -85.5 29t-30.5 81q0 7 1 12h35q1 -37 24.5 -58t64.5 -21q76 0 110 79z" />
    <glyph glyph-name="Adotaccent" horiz-adv-x="616" 
d="M437 667l121 -667h-66l-35 210h-301l-125 -210h-72l407 667h71zM449 263l-39 219q-13 82 -19 130q-45 -85 -84 -149l-121 -200h263zM467 831l-20 -94h-64l20 94h64z" />
    <glyph glyph-name="Fdotaccent" horiz-adv-x="527" 
d="M600 667l-12 -53h-366l-51 -242h327l-12 -53h-326l-68 -319h-62l142 667h428zM449 831l-20 -94h-64l20 94h64z" />
    <glyph glyph-name="ahungarumlaut" horiz-adv-x="498" 
d="M133 340h-56q33 154 202 154q80 0 123.5 -30.5t43.5 -85.5q0 -17 -13 -82l-33 -154q-13 -55 -13 -70q0 -31 24 -31q8 0 27 4l-8 -45q-27 -7 -43 -7q-26 0 -41 15t-15 42q0 9 4 25q-65 -88 -176 -88q-68 0 -108 35.5t-40 96.5q0 74 58 115q49 35 178 44q68 4 91.5 10
t34.5 20q17 25 17 71q0 67 -108 67q-64 0 -99.5 -25t-49.5 -81zM359 217l10 43q-13 -13 -40 -18.5t-93 -10.5q-76 -6 -107 -18q-28 -11 -44.5 -35t-16.5 -54q0 -41 29 -65t79 -24q86 0 140 70q26 33 43 112zM366 687l-110 -134h-43l82 134h71zM492 687l-109 -134h-43l81 134
h71z" />
    <glyph glyph-name="adotaccent" horiz-adv-x="498" 
d="M133 340h-56q33 154 202 154q80 0 123.5 -30.5t43.5 -85.5q0 -17 -13 -82l-33 -154q-13 -55 -13 -70q0 -31 24 -31q8 0 27 4l-8 -45q-27 -7 -43 -7q-26 0 -41 15t-15 42q0 9 4 25q-65 -88 -176 -88q-68 0 -108 35.5t-40 96.5q0 74 58 115q49 35 178 44q68 4 91.5 10
t34.5 20q17 25 17 71q0 67 -108 67q-64 0 -99.5 -25t-49.5 -81zM359 217l10 43q-13 -13 -40 -18.5t-93 -10.5q-76 -6 -107 -18q-28 -11 -44.5 -35t-16.5 -54q0 -41 29 -65t79 -24q86 0 140 70q26 33 43 112zM358 667l-20 -94h-60l20 94h60z" />
    <glyph glyph-name="one.numerator" horiz-adv-x="268" 
d="M264 661l-57 -268h-37l45 212q-43 -16 -82 -18l6 28q68 5 96 46h29z" />
    <glyph glyph-name="two.numerator" horiz-adv-x="268" 
d="M284 423l-6 -30h-204q2 39 29 66t96 59q41 20 56.5 35.5t15.5 35.5q0 21 -16 34t-43 13q-66 0 -69 -70h-35q2 46 30 72.5t76 26.5q42 0 67.5 -20t25.5 -54q0 -29 -19.5 -50.5t-69.5 -46.5q-53 -25 -72 -38.5t-30 -32.5h168z" />
    <glyph glyph-name="three.numerator" horiz-adv-x="268" 
d="M80 485h35q-1 -7 -1 -14q0 -25 17.5 -39.5t48.5 -14.5q32 0 52 16.5t20 42.5q0 43 -69 43q-8 0 -14 -1l7 29h19q72 0 72 45q0 19 -15.5 31t-41.5 12q-59 0 -68 -61h-35q12 90 106 90q41 0 66 -19t25 -50q0 -45 -48 -63q35 -19 35 -55q0 -39 -31.5 -64t-81.5 -25
q-46 0 -73 21.5t-27 58.5q0 9 2 17z" />
    <glyph glyph-name="four.numerator" horiz-adv-x="268" 
d="M298 486l-6 -29h-45l-14 -64h-36l14 64h-139l6 29l181 176h31l-37 -176h45zM217 486l20 94l3 15q2 3 3 12l-26 -26l-98 -95h98z" />
    <glyph glyph-name="five.numerator" horiz-adv-x="268" 
d="M309 659l-6 -30h-132l-25 -69q28 14 56 14q41 0 67 -23t26 -60q0 -45 -32.5 -74t-82.5 -29q-45 0 -71 21t-26 57v10h37q-1 -4 -1 -10q0 -22 17 -35.5t46 -13.5q33 0 53.5 19t20.5 50q0 27 -17 42.5t-47 15.5q-40 0 -61 -28l-33 1l48 142h163z" />
    <glyph glyph-name="six.numerator" horiz-adv-x="268" 
d="M313 587h-36q-2 26 -14.5 37t-39.5 11q-33 0 -53 -20t-36 -68q29 25 68 25q42 0 68.5 -23.5t26.5 -60.5q0 -43 -31 -71.5t-78 -28.5q-48 0 -74 26t-26 73q0 32 11 68t28 60q34 49 98 49q86 0 88 -77zM196 543q-31 0 -51 -18.5t-20 -47.5q0 -27 18.5 -43.5t47.5 -16.5
q31 0 50 19t19 50q0 26 -17.5 41.5t-46.5 15.5z" />
    <glyph glyph-name="seven.numerator" horiz-adv-x="268" 
d="M323 659l-6 -26q-114 -105 -159 -240h-39q37 125 154 235h-19h-139l7 31h201z" />
    <glyph glyph-name="eight.numerator" horiz-adv-x="268" 
d="M252 534q40 -23 40 -61q0 -37 -31 -61t-80 -24q-47 0 -74.5 21.5t-27.5 58.5q0 53 65 73q-31 19 -31 52q0 32 26.5 51.5t69.5 19.5q41 0 66.5 -19t25.5 -50q0 -41 -49 -61zM208 636q-28 0 -43.5 -12t-15.5 -32q0 -19 16 -30.5t43 -11.5q26 0 41.5 11.5t15.5 31.5
t-15.5 31.5t-41.5 11.5zM187 522q-32 0 -51 -14t-19 -39q0 -24 18.5 -38t49.5 -14t50 15t19 40q0 23 -18 36.5t-49 13.5z" />
    <glyph glyph-name="nine.numerator" horiz-adv-x="268" 
d="M82 465h35q1 -48 57 -48q34 0 53.5 20.5t32.5 69.5q-30 -27 -70 -27q-41 0 -67.5 23.5t-26.5 60.5q0 44 31 72.5t79 28.5q47 0 72.5 -26t25.5 -73q0 -75 -35 -128q-34 -51 -97 -51q-88 0 -90 78zM204 635q-31 0 -51 -19.5t-20 -50.5q0 -26 17.5 -41t46.5 -15t49 19.5
t20 47.5q0 27 -17 43t-45 16z" />
    <glyph glyph-name="zero.numerator" horiz-adv-x="268" 
d="M216 665q45 0 69 -25.5t24 -73.5q0 -77 -37.5 -127.5t-95.5 -50.5q-44 0 -68 26.5t-24 74.5q0 40 14.5 80t37.5 63q33 33 80 33zM214 636q-43 0 -69 -48q-24 -46 -24 -102q0 -69 59 -69q38 0 59 33q33 49 33 114q0 72 -58 72z" />
    <glyph glyph-name="one.denominator" horiz-adv-x="268" 
d="M180 268l-57 -268h-37l45 212q-43 -16 -82 -18l6 28q68 5 96 46h29z" />
    <glyph glyph-name="two.denominator" horiz-adv-x="268" 
d="M198 30l-6 -30h-204q2 39 28.5 66t96.5 59q40 19 56 34.5t16 35.5q0 22 -16 34.5t-43 12.5q-66 0 -69 -69h-35q2 46 30 72t76 26q42 0 67.5 -20t25.5 -54q0 -41 -49 -74q-12 -8 -67 -35q-61 -31 -75 -58h168z" />
    <glyph glyph-name="three.denominator" horiz-adv-x="268" 
d="M-3 92h35q-1 -7 -1 -14q0 -25 17.5 -39.5t48.5 -14.5q32 0 52 16.5t20 42.5q0 43 -69 43q-8 0 -14 -1l7 29h19q72 0 72 45q0 19 -15.5 31t-41.5 12q-59 0 -68 -61h-35q12 90 106 90q41 0 66 -19t25 -50q0 -45 -48 -63q35 -19 35 -55q0 -39 -31.5 -64t-81.5 -25
q-46 0 -73 21.5t-27 58.5q0 9 2 17z" />
    <glyph glyph-name="four.denominator" horiz-adv-x="268" 
d="M215 93l-6 -29h-45l-14 -64h-36l14 64h-139l6 29l181 176h31l-37 -176h45zM134 93l20 94l3 15q1 3 3 12l-26 -26l-98 -95h98z" />
    <glyph glyph-name="five.denominator" horiz-adv-x="268" 
d="M225 265l-6 -30h-132l-25 -68q28 14 56 14q41 0 67 -22.5t26 -59.5q0 -45 -32.5 -74.5t-82.5 -29.5q-45 0 -71 21t-26 57v10h37q-1 -4 -1 -10q0 -22 17 -35.5t46 -13.5q33 0 53.5 19t20.5 50q0 27 -17 42.5t-47 15.5q-40 0 -61 -28l-33 1l48 141h163z" />
    <glyph glyph-name="six.denominator" horiz-adv-x="268" 
d="M229 193h-36q-2 26 -14.5 37.5t-39.5 11.5q-33 0 -53 -20t-36 -69q31 25 68 25q42 0 68.5 -23.5t26.5 -60.5q0 -43 -31 -71.5t-78 -28.5q-48 0 -74 26t-26 73q0 32 11 68.5t28 60.5q34 49 98 49q86 0 88 -78zM112 149q-31 0 -51 -18.5t-20 -47.5q0 -27 18.5 -43.5
t47.5 -16.5q31 0 50 19t19 50q0 26 -17.5 41.5t-46.5 15.5z" />
    <glyph glyph-name="seven.denominator" horiz-adv-x="268" 
d="M239 265l-6 -26q-114 -103 -159 -239h-39q38 126 154 234h-19h-139l7 31h201z" />
    <glyph glyph-name="eight.denominator" horiz-adv-x="268" 
d="M169 140q40 -21 40 -61q0 -37 -31 -61t-80 -24q-46 0 -74 22t-28 58q0 55 65 73q-31 21 -31 52q0 32 26.5 52t69.5 20q41 0 66.5 -19t25.5 -50q0 -42 -49 -62zM125 243q-28 0 -43.5 -12t-15.5 -33q0 -19 16 -30.5t43 -11.5q26 0 41.5 12t15.5 32t-15.5 31.5t-41.5 11.5z
M104 128q-32 0 -51 -14t-19 -39q0 -24 18.5 -38t49.5 -14t50 15t19 40q0 23 -18 36.5t-49 13.5z" />
    <glyph glyph-name="nine.denominator" horiz-adv-x="268" 
d="M-2 72h35q1 -48 57 -48q34 0 53.5 20.5t32.5 69.5q-28 -27 -70 -27q-41 0 -67.5 23.5t-26.5 60.5q0 44 31 72t79 28q47 0 72.5 -26t25.5 -73q0 -74 -35 -127q-34 -51 -97 -51q-88 0 -90 78zM120 242q-31 0 -51 -19.5t-20 -50.5q0 -26 17.5 -41t46.5 -15t49 19.5t20 47.5
q0 27 -17 43t-45 16z" />
    <glyph glyph-name="zero.denominator" horiz-adv-x="268" 
d="M132 271q45 0 69 -25.5t24 -72.5q0 -77 -37.5 -127.5t-95.5 -50.5q-43 0 -67.5 26.5t-24.5 73.5q0 40 14.5 80t37.5 63q33 33 80 33zM130 242q-43 0 -69 -48q-24 -46 -24 -101q0 -69 59 -69q38 0 59 33q33 49 33 114q0 71 -58 71z" />
    <glyph glyph-name="oneone" horiz-adv-x="858" 
d="M318 659l-83 -392h-45l67 318q-52 -24 -111 -29l7 34q92 9 130 69h35zM665 655l-389 -655h-45l391 655h43zM764 392l-84 -392h-44l67 318q-53 -24 -111 -29l7 34q92 10 130 69h35z" />
    <glyph glyph-name="onefifth" horiz-adv-x="858" 
d="M318 659l-83 -392h-45l67 318q-52 -24 -111 -29l7 34q92 9 130 69h35zM665 655l-389 -655h-45l391 655h43zM823 388l-7 -37h-178l-39 -113q40 24 80 24q54 0 87.5 -32.5t33.5 -85.5q0 -66 -43.5 -109t-110.5 -43q-59 0 -92.5 29.5t-33.5 81.5v13h43q-1 -5 -1 -14
q0 -34 23 -54t62 -20q47 0 76.5 31t29.5 80q0 40 -23.5 63t-63.5 23q-56 0 -84 -42l-39 1l67 204h213z" />
    <glyph glyph-name="twofifth" horiz-adv-x="858" 
d="M341 304l-8 -37h-269q5 56 40.5 93.5t129.5 84.5q57 31 79 55t22 56t-22 51.5t-59 19.5q-43 0 -68.5 -27t-29.5 -76h-41q3 64 41.5 101.5t100.5 37.5q55 0 88 -29t33 -76q0 -62 -66 -109q-17 -12 -92 -52q-48 -26 -72 -47t-35 -46h33h195zM666 655l-389 -655h-45l391 655
h43zM824 388l-8 -37h-177l-39 -113q39 24 80 24q54 0 87.5 -32.5t33.5 -85.5q0 -66 -43.5 -109t-110.5 -43q-59 0 -92.5 29.5t-33.5 81.5v13h43q-1 -5 -1 -14q0 -34 23 -54t62 -20q47 0 76.5 31t29.5 80q0 40 -23.5 63t-63.5 23q-55 0 -84 -42l-39 1l66 204h214z" />
    <glyph glyph-name="threefifth" horiz-adv-x="858" 
d="M71 396h42q-2 -9 -2 -21q0 -37 24 -58.5t66 -21.5q44 0 73 26.5t29 66.5t-36 57q-20 8 -57 8h-16l7 36q12 -1 25 -1q101 0 101 74q0 29 -21.5 47t-56.5 18q-82 0 -96 -91h-42q10 61 46.5 94t94.5 33q53 0 86 -27t33 -71q0 -71 -74 -95q52 -26 52 -81q0 -56 -42.5 -93
t-107.5 -37q-60 0 -95 30.5t-35 82.5q0 13 2 24zM665 655l-389 -655h-45l391 655h43zM823 388l-7 -37h-178l-39 -113q40 24 80 24q54 0 87.5 -32.5t33.5 -85.5q0 -66 -43.5 -109t-110.5 -43q-59 0 -92.5 29.5t-33.5 81.5v13h43q-1 -5 -1 -14q0 -34 23 -54t62 -20
q47 0 76.5 31t29.5 80q0 40 -23.5 63t-63.5 23q-56 0 -84 -42l-39 1l67 204h213z" />
    <glyph glyph-name="fourfifth" horiz-adv-x="858" 
d="M360 398l-8 -35h-61l-21 -96h-42l20 96h-187l8 37l247 260h38l-56 -262h62zM256 398l30 143l5 23l6 26l1 3q-31 -35 -43 -47l-141 -148h142zM666 655l-389 -655h-45l390 655h44zM824 388l-8 -37h-178l-39 -113q40 24 81 24q54 0 87.5 -32.5t33.5 -85.5q0 -66 -44 -109
t-111 -43q-59 0 -92.5 29.5t-33.5 81.5q0 7 1 13h42l-1 -14q-2 -32 22.5 -53t63.5 -21q47 0 76.5 31t29.5 80q0 40 -23.5 63t-63.5 23q-55 0 -84 -42l-40 1l67 204h214z" />
    <glyph glyph-name="onesixth" horiz-adv-x="858" 
d="M318 659l-83 -392h-45l67 318q-52 -24 -111 -29l7 34q92 9 130 69h35zM665 655l-389 -655h-45l391 655h43zM827 288h-43q-2 38 -19 55t-53 17q-48 0 -77 -32.5t-52 -112.5q43 43 96 43q55 0 89 -33t34 -86q0 -64 -41 -105.5t-105 -41.5q-62 0 -95.5 36t-33.5 103
q0 91 43 174q49 91 143 91q55 0 84.5 -27.5t29.5 -80.5zM671 222q-43 0 -71.5 -29.5t-28.5 -74.5q0 -41 24.5 -65.5t64.5 -24.5q43 0 70.5 30.5t27.5 78.5q0 39 -23.5 62t-63.5 23z" />
    <glyph glyph-name="fivesixth" horiz-adv-x="858" 
d="M378 655l-8 -37h-178l-39 -114q39 25 80 25q54 0 87.5 -32.5t33.5 -84.5q0 -66 -43.5 -109.5t-110.5 -43.5q-59 0 -92.5 29.5t-33.5 81.5v13h43l-1 -14q0 -34 23 -54t62 -20q47 0 76.5 31t29.5 80q0 40 -23.5 63t-63.5 23q-54 0 -84 -43l-39 2l67 204h214zM665 655
l-389 -655h-45l391 655h43zM827 288h-43q-2 38 -19 55t-53 17q-48 0 -77 -32.5t-52 -112.5q43 43 96 43q55 0 89 -33t34 -86q0 -64 -41 -105.5t-105 -41.5q-62 0 -95.5 36t-33.5 103q0 91 43 174q49 91 143 91q55 0 84.5 -27.5t29.5 -80.5zM671 222q-43 0 -71.5 -29.5
t-28.5 -74.5q0 -41 24.5 -65.5t64.5 -24.5q43 0 70.5 30.5t27.5 78.5q0 39 -23.5 62t-63.5 23z" />
    <glyph glyph-name="Dotaccent" 
d="M408 831l-20 -94h-63l20 94h63z" />
    <glyph glyph-name="Ring" 
d="M353 895q38 0 65.5 -28t27.5 -67t-27.5 -67t-67.5 -28t-67.5 28t-27.5 68q0 39 28.5 66.5t68.5 27.5zM352 856q-24 0 -40.5 -16.5t-16.5 -39.5t16.5 -39.5t39.5 -16.5t39.5 16.5t16.5 39.5t-16 39.5t-39 16.5z" />
    <glyph glyph-name="Circumflex" 
d="M489 722h-54l-62 92l-110 -92h-58l143 127h60z" />
    <glyph glyph-name="Breve" 
d="M473 847h35q-12 -56 -53.5 -89t-100.5 -33q-55 0 -85.5 29t-30.5 81v12h36q0 -37 23.5 -58t64.5 -21q76 0 111 79z" />
    <glyph glyph-name="Tilde" 
d="M477 826h37q-28 -93 -84 -93q-24 0 -56 18q-59 33 -72 33q-30 0 -47 -48h-37q26 93 85 93q16 0 28.5 -5.5t65.5 -34.5q23 -12 34 -12q29 0 46 49z" />
    <glyph glyph-name="Cedilla" 
d="M239 0l-46 -53q20 4 31 4q32 0 53 -17.5t21 -44.5q0 -34 -28.5 -56t-72.5 -22q-47 0 -95 21l14 27q44 -17 73 -17q26 0 42 11.5t16 30.5q0 17 -14 27.5t-36 10.5q-17 0 -38 -8l-15 14l63 72h32z" />
    <glyph glyph-name="Ogonek" 
d="M375 0h41q-34 -20 -54.5 -46.5t-20.5 -49.5q0 -17 14.5 -27.5t37.5 -10.5q16 0 41 8l-6 -35q-26 -10 -49 -10q-39 0 -63 19t-24 49q0 54 83 103z" />
    <glyph glyph-name="commaaccent.sc" 
d="M257 -57l-14 -65q-10 -48 -31.5 -72t-59.5 -29l6 29q43 13 52 65h-32l16 72h63z" />
    <glyph glyph-name="Comma.high" 
d="M474 667l-14 -65q-10 -49 -31.5 -73t-59.5 -29l6 29q43 15 52 66h-32l16 72h63z" />
    <glyph glyph-name="Dieresis.alt" 
d="M345 831l-20 -94h-63l20 94h63zM472 831l-20 -94h-64l21 94h63z" />
    <glyph glyph-name="comma.high" 
d="M474 667l-14 -65q-10 -49 -31.5 -73t-59.5 -29l6 29q43 15 52 66h-32l16 72h63z" />
    <glyph glyph-name="dieresis.alt" 
d="M315 667l-20 -94h-60l20 94h60zM428 667l-20 -94h-60l20 94h60z" />
    <glyph glyph-name="commareversed" 
d="M333 554l14 65q10 48 31.5 72t59.5 29l-6 -29q-43 -13 -52 -65h32l-16 -72h-63z" />
    <glyph glyph-name="zerozero.afrac" horiz-adv-x="268" 
d="M291 343l-6 -28h-268l6 28h268zM215 665q45 0 69 -25.5t24 -73.5q0 -77 -37.5 -127.5t-95.5 -50.5q-44 0 -68 26.5t-24 74.5q0 40 14.5 80t37.5 63q33 33 80 33zM213 636q-43 0 -69 -48q-24 -46 -24 -102q0 -69 59 -69q38 0 59 33q33 49 33 114q0 72 -58 72zM132 271
q45 0 69 -25.5t24 -72.5q0 -77 -37.5 -127.5t-95.5 -50.5q-43 0 -67.5 26.5t-24.5 73.5q0 40 14.5 80t37.5 63q33 33 80 33zM130 242q-43 0 -69 -48q-24 -46 -24 -101q0 -69 59 -69q38 0 59 33q33 49 33 114q0 71 -58 71z" />
    </font>
</defs>
</svg>
